G04 #@! TF.GenerationSoftware,KiCad,Pcbnew,6.0.4*
G04 #@! TF.CreationDate,2022-05-06T17:46:11+10:00*
G04 #@! TF.ProjectId,modularnixie,6d6f6475-6c61-4726-9e69-7869652e6b69,rev?*
G04 #@! TF.SameCoordinates,Original*
G04 #@! TF.FileFunction,Legend,Bot*
G04 #@! TF.FilePolarity,Positive*
%FSLAX46Y46*%
G04 Gerber Fmt 4.6, Leading zero omitted, Abs format (unit mm)*
G04 Created by KiCad (PCBNEW 6.0.4) date 2022-05-06 17:46:11*
%MOMM*%
%LPD*%
G01*
G04 APERTURE LIST*
%ADD10C,0.150000*%
%ADD11C,0.010000*%
G04 APERTURE END LIST*
D10*
X97127661Y-60063571D02*
X95127661Y-60063571D01*
X96556233Y-60563571D01*
X95127661Y-61063571D01*
X97127661Y-61063571D01*
X97127661Y-61992142D02*
X97032423Y-61849285D01*
X96937185Y-61777857D01*
X96746709Y-61706428D01*
X96175280Y-61706428D01*
X95984804Y-61777857D01*
X95889566Y-61849285D01*
X95794328Y-61992142D01*
X95794328Y-62206428D01*
X95889566Y-62349285D01*
X95984804Y-62420714D01*
X96175280Y-62492142D01*
X96746709Y-62492142D01*
X96937185Y-62420714D01*
X97032423Y-62349285D01*
X97127661Y-62206428D01*
X97127661Y-61992142D01*
X97127661Y-63777857D02*
X95127661Y-63777857D01*
X97032423Y-63777857D02*
X97127661Y-63635000D01*
X97127661Y-63349285D01*
X97032423Y-63206428D01*
X96937185Y-63135000D01*
X96746709Y-63063571D01*
X96175280Y-63063571D01*
X95984804Y-63135000D01*
X95889566Y-63206428D01*
X95794328Y-63349285D01*
X95794328Y-63635000D01*
X95889566Y-63777857D01*
X95794328Y-65135000D02*
X97127661Y-65135000D01*
X95794328Y-64492142D02*
X96841947Y-64492142D01*
X97032423Y-64563571D01*
X97127661Y-64706428D01*
X97127661Y-64920714D01*
X97032423Y-65063571D01*
X96937185Y-65135000D01*
X97127661Y-66063571D02*
X97032423Y-65920714D01*
X96841947Y-65849285D01*
X95127661Y-65849285D01*
X97127661Y-67277857D02*
X96080042Y-67277857D01*
X95889566Y-67206428D01*
X95794328Y-67063571D01*
X95794328Y-66777857D01*
X95889566Y-66635000D01*
X97032423Y-67277857D02*
X97127661Y-67135000D01*
X97127661Y-66777857D01*
X97032423Y-66635000D01*
X96841947Y-66563571D01*
X96651471Y-66563571D01*
X96460995Y-66635000D01*
X96365757Y-66777857D01*
X96365757Y-67135000D01*
X96270519Y-67277857D01*
X97127661Y-67992142D02*
X95794328Y-67992142D01*
X96175280Y-67992142D02*
X95984804Y-68063571D01*
X95889566Y-68135000D01*
X95794328Y-68277857D01*
X95794328Y-68420714D01*
X100347661Y-61742142D02*
X98347661Y-61742142D01*
X100347661Y-62599285D01*
X98347661Y-62599285D01*
X100347661Y-63313571D02*
X99014328Y-63313571D01*
X98347661Y-63313571D02*
X98442900Y-63242142D01*
X98538138Y-63313571D01*
X98442900Y-63385000D01*
X98347661Y-63313571D01*
X98538138Y-63313571D01*
X100347661Y-63885000D02*
X99014328Y-64670714D01*
X99014328Y-63885000D02*
X100347661Y-64670714D01*
X100347661Y-65242142D02*
X99014328Y-65242142D01*
X98347661Y-65242142D02*
X98442900Y-65170714D01*
X98538138Y-65242142D01*
X98442900Y-65313571D01*
X98347661Y-65242142D01*
X98538138Y-65242142D01*
X100252423Y-66527857D02*
X100347661Y-66385000D01*
X100347661Y-66099285D01*
X100252423Y-65956428D01*
X100061947Y-65885000D01*
X99300042Y-65885000D01*
X99109566Y-65956428D01*
X99014328Y-66099285D01*
X99014328Y-66385000D01*
X99109566Y-66527857D01*
X99300042Y-66599285D01*
X99490519Y-66599285D01*
X99680995Y-65885000D01*
G04 #@! TO.C,REF\u002A\u002A*
G36*
X92880713Y-58352303D02*
G01*
X92958889Y-58352552D01*
X93019103Y-58353188D01*
X93063982Y-58354385D01*
X93096152Y-58356316D01*
X93118239Y-58359154D01*
X93132870Y-58363073D01*
X93142670Y-58368245D01*
X93150267Y-58374844D01*
X93153444Y-58378178D01*
X93159554Y-58386700D01*
X93164229Y-58398702D01*
X93167659Y-58416913D01*
X93170036Y-58444060D01*
X93171552Y-58482871D01*
X93172398Y-58536076D01*
X93172765Y-58606402D01*
X93172845Y-58696578D01*
X93172833Y-58738686D01*
X93172651Y-58819833D01*
X93172098Y-58882325D01*
X93170982Y-58928891D01*
X93169113Y-58962259D01*
X93166298Y-58985156D01*
X93162346Y-59000312D01*
X93157066Y-59010454D01*
X93150267Y-59018311D01*
X93128667Y-59033037D01*
X93099467Y-59040889D01*
X93075560Y-59035390D01*
X93048667Y-59018311D01*
X93044059Y-59013332D01*
X93037772Y-59003557D01*
X93033146Y-58989441D01*
X93029930Y-58967946D01*
X93027870Y-58936032D01*
X93026712Y-58890658D01*
X93026202Y-58828787D01*
X93026089Y-58747378D01*
X93026089Y-58499022D01*
X92868045Y-58499022D01*
X92868045Y-58660199D01*
X92867899Y-58696017D01*
X92866176Y-58761641D01*
X92861741Y-58808882D01*
X92853637Y-58840617D01*
X92840906Y-58859723D01*
X92822592Y-58869077D01*
X92797738Y-58871555D01*
X92777482Y-58870758D01*
X92755656Y-58865506D01*
X92740304Y-58852712D01*
X92730309Y-58829372D01*
X92724553Y-58792483D01*
X92721919Y-58739041D01*
X92721289Y-58666042D01*
X92721289Y-58497895D01*
X92656378Y-58501281D01*
X92591467Y-58504666D01*
X92588418Y-58752383D01*
X92587539Y-58814974D01*
X92586095Y-58883435D01*
X92584164Y-58934339D01*
X92581514Y-58970592D01*
X92577910Y-58995099D01*
X92573121Y-59010765D01*
X92566913Y-59020494D01*
X92560510Y-59026509D01*
X92528828Y-59039518D01*
X92493142Y-59035957D01*
X92462084Y-59016182D01*
X92459161Y-59012931D01*
X92452810Y-59003951D01*
X92447957Y-58991847D01*
X92444403Y-58973841D01*
X92441946Y-58947153D01*
X92440385Y-58909003D01*
X92439518Y-58856614D01*
X92439146Y-58787206D01*
X92439067Y-58697999D01*
X92439083Y-58643266D01*
X92439275Y-58566169D01*
X92439860Y-58507223D01*
X92441051Y-58463636D01*
X92443064Y-58432617D01*
X92446112Y-58411375D01*
X92450409Y-58397118D01*
X92456172Y-58387055D01*
X92463612Y-58378394D01*
X92465293Y-58376609D01*
X92472832Y-58369365D01*
X92481850Y-58363723D01*
X92494984Y-58359483D01*
X92514872Y-58356444D01*
X92544151Y-58354406D01*
X92585458Y-58353170D01*
X92641431Y-58352535D01*
X92714707Y-58352300D01*
X92807923Y-58352266D01*
X92880713Y-58352303D01*
G37*
D11*
X92880713Y-58352303D02*
X92958889Y-58352552D01*
X93019103Y-58353188D01*
X93063982Y-58354385D01*
X93096152Y-58356316D01*
X93118239Y-58359154D01*
X93132870Y-58363073D01*
X93142670Y-58368245D01*
X93150267Y-58374844D01*
X93153444Y-58378178D01*
X93159554Y-58386700D01*
X93164229Y-58398702D01*
X93167659Y-58416913D01*
X93170036Y-58444060D01*
X93171552Y-58482871D01*
X93172398Y-58536076D01*
X93172765Y-58606402D01*
X93172845Y-58696578D01*
X93172833Y-58738686D01*
X93172651Y-58819833D01*
X93172098Y-58882325D01*
X93170982Y-58928891D01*
X93169113Y-58962259D01*
X93166298Y-58985156D01*
X93162346Y-59000312D01*
X93157066Y-59010454D01*
X93150267Y-59018311D01*
X93128667Y-59033037D01*
X93099467Y-59040889D01*
X93075560Y-59035390D01*
X93048667Y-59018311D01*
X93044059Y-59013332D01*
X93037772Y-59003557D01*
X93033146Y-58989441D01*
X93029930Y-58967946D01*
X93027870Y-58936032D01*
X93026712Y-58890658D01*
X93026202Y-58828787D01*
X93026089Y-58747378D01*
X93026089Y-58499022D01*
X92868045Y-58499022D01*
X92868045Y-58660199D01*
X92867899Y-58696017D01*
X92866176Y-58761641D01*
X92861741Y-58808882D01*
X92853637Y-58840617D01*
X92840906Y-58859723D01*
X92822592Y-58869077D01*
X92797738Y-58871555D01*
X92777482Y-58870758D01*
X92755656Y-58865506D01*
X92740304Y-58852712D01*
X92730309Y-58829372D01*
X92724553Y-58792483D01*
X92721919Y-58739041D01*
X92721289Y-58666042D01*
X92721289Y-58497895D01*
X92656378Y-58501281D01*
X92591467Y-58504666D01*
X92588418Y-58752383D01*
X92587539Y-58814974D01*
X92586095Y-58883435D01*
X92584164Y-58934339D01*
X92581514Y-58970592D01*
X92577910Y-58995099D01*
X92573121Y-59010765D01*
X92566913Y-59020494D01*
X92560510Y-59026509D01*
X92528828Y-59039518D01*
X92493142Y-59035957D01*
X92462084Y-59016182D01*
X92459161Y-59012931D01*
X92452810Y-59003951D01*
X92447957Y-58991847D01*
X92444403Y-58973841D01*
X92441946Y-58947153D01*
X92440385Y-58909003D01*
X92439518Y-58856614D01*
X92439146Y-58787206D01*
X92439067Y-58697999D01*
X92439083Y-58643266D01*
X92439275Y-58566169D01*
X92439860Y-58507223D01*
X92441051Y-58463636D01*
X92443064Y-58432617D01*
X92446112Y-58411375D01*
X92450409Y-58397118D01*
X92456172Y-58387055D01*
X92463612Y-58378394D01*
X92465293Y-58376609D01*
X92472832Y-58369365D01*
X92481850Y-58363723D01*
X92494984Y-58359483D01*
X92514872Y-58356444D01*
X92544151Y-58354406D01*
X92585458Y-58353170D01*
X92641431Y-58352535D01*
X92714707Y-58352300D01*
X92807923Y-58352266D01*
X92880713Y-58352303D01*
G36*
X88413011Y-57223941D02*
G01*
X88560216Y-57223638D01*
X88724349Y-57223452D01*
X88906352Y-57223358D01*
X89107165Y-57223329D01*
X89327732Y-57223339D01*
X89568992Y-57223364D01*
X89831889Y-57223378D01*
X89874040Y-57223378D01*
X90134668Y-57223354D01*
X90373796Y-57223315D01*
X90592360Y-57223292D01*
X90791295Y-57223313D01*
X90971535Y-57223407D01*
X91134015Y-57223605D01*
X91279670Y-57223937D01*
X91409434Y-57224431D01*
X91524243Y-57225117D01*
X91625030Y-57226024D01*
X91712730Y-57227183D01*
X91788279Y-57228622D01*
X91852611Y-57230371D01*
X91906661Y-57232460D01*
X91951363Y-57234917D01*
X91987652Y-57237773D01*
X92016463Y-57241057D01*
X92038731Y-57244798D01*
X92055390Y-57249026D01*
X92067375Y-57253771D01*
X92075621Y-57259061D01*
X92081062Y-57264927D01*
X92084634Y-57271398D01*
X92087270Y-57278503D01*
X92089906Y-57286272D01*
X92093477Y-57294734D01*
X92095145Y-57299092D01*
X92097111Y-57307605D01*
X92098911Y-57320306D01*
X92100555Y-57338115D01*
X92102047Y-57361951D01*
X92103397Y-57392734D01*
X92104611Y-57431383D01*
X92105697Y-57478818D01*
X92106661Y-57535957D01*
X92107511Y-57603721D01*
X92108253Y-57683029D01*
X92108897Y-57774801D01*
X92109447Y-57879956D01*
X92109913Y-57999413D01*
X92110300Y-58134092D01*
X92110616Y-58284912D01*
X92110869Y-58452794D01*
X92111066Y-58638655D01*
X92111213Y-58843417D01*
X92111318Y-59067998D01*
X92111389Y-59313318D01*
X92111432Y-59580296D01*
X92111437Y-59618679D01*
X92111480Y-59884078D01*
X92111525Y-60127950D01*
X92111548Y-60351217D01*
X92111524Y-60554804D01*
X92111430Y-60739633D01*
X92111243Y-60906627D01*
X92110939Y-61056710D01*
X92110494Y-61190804D01*
X92109885Y-61309834D01*
X92109089Y-61414721D01*
X92108080Y-61506390D01*
X92106837Y-61585763D01*
X92105335Y-61653763D01*
X92103551Y-61711314D01*
X92101461Y-61759338D01*
X92099042Y-61798760D01*
X92096270Y-61830501D01*
X92093121Y-61855486D01*
X92089572Y-61874636D01*
X92085598Y-61888877D01*
X92081178Y-61899129D01*
X92076286Y-61906318D01*
X92070900Y-61911365D01*
X92064996Y-61915195D01*
X92058549Y-61918729D01*
X92051537Y-61922892D01*
X92049687Y-61923975D01*
X92044180Y-61926187D01*
X92035868Y-61928214D01*
X92023809Y-61930062D01*
X92007063Y-61931739D01*
X91984687Y-61933255D01*
X91955740Y-61934617D01*
X91919280Y-61935833D01*
X91874367Y-61936911D01*
X91820057Y-61937860D01*
X91755410Y-61938688D01*
X91679484Y-61939403D01*
X91591338Y-61940013D01*
X91490029Y-61940526D01*
X91374617Y-61940950D01*
X91244160Y-61941294D01*
X91097716Y-61941566D01*
X90934344Y-61941773D01*
X90753101Y-61941924D01*
X90553048Y-61942028D01*
X90333241Y-61942092D01*
X90092739Y-61942124D01*
X89830602Y-61942133D01*
X87639031Y-61942133D01*
X87600649Y-61903751D01*
X87576911Y-61876645D01*
X87565111Y-61849747D01*
X87562267Y-61813440D01*
X87562267Y-61761511D01*
X87650206Y-61761511D01*
X87700102Y-61759573D01*
X87810523Y-61740801D01*
X87911987Y-61703783D01*
X88003152Y-61650631D01*
X88082673Y-61583454D01*
X88104249Y-61557805D01*
X89074978Y-61557805D01*
X90251845Y-61560880D01*
X91428711Y-61563955D01*
X91487622Y-61590593D01*
X91512183Y-61602515D01*
X91542434Y-61619754D01*
X91559560Y-61632926D01*
X91567591Y-61640924D01*
X91582493Y-61648622D01*
X91583765Y-61644740D01*
X91585791Y-61621480D01*
X91587626Y-61579126D01*
X91589227Y-61519868D01*
X91590549Y-61445893D01*
X91591548Y-61359390D01*
X91592180Y-61262548D01*
X91592400Y-61157555D01*
X91592349Y-61088644D01*
X91592091Y-60990393D01*
X91591637Y-60900970D01*
X91591010Y-60822667D01*
X91590235Y-60757777D01*
X91589335Y-60708589D01*
X91588334Y-60677396D01*
X91587257Y-60666489D01*
X91584037Y-60667678D01*
X91566452Y-60677824D01*
X91540158Y-60694960D01*
X91527691Y-60703460D01*
X91513622Y-60712671D01*
X91499351Y-60720767D01*
X91483479Y-60727815D01*
X91464609Y-60733883D01*
X91441341Y-60739039D01*
X91412278Y-60743349D01*
X91376021Y-60746881D01*
X91331170Y-60749703D01*
X91276328Y-60751882D01*
X91210097Y-60753486D01*
X91131077Y-60754581D01*
X91037871Y-60755235D01*
X90929079Y-60755516D01*
X90803303Y-60755491D01*
X90659145Y-60755228D01*
X90495207Y-60754794D01*
X90310089Y-60754255D01*
X90131232Y-60753721D01*
X89972374Y-60753195D01*
X89833316Y-60752650D01*
X89712665Y-60752055D01*
X89609028Y-60751381D01*
X89521011Y-60750597D01*
X89447223Y-60749674D01*
X89386269Y-60748581D01*
X89336757Y-60747288D01*
X89297293Y-60745765D01*
X89266484Y-60743981D01*
X89242938Y-60741908D01*
X89225260Y-60739514D01*
X89212059Y-60736770D01*
X89201940Y-60733644D01*
X89193511Y-60730108D01*
X89185375Y-60726209D01*
X89148544Y-60706562D01*
X89118391Y-60687775D01*
X89116908Y-60686728D01*
X89094659Y-60672398D01*
X89081702Y-60666489D01*
X89081249Y-60667496D01*
X89079803Y-60684695D01*
X89078480Y-60721344D01*
X89077316Y-60775038D01*
X89076347Y-60843370D01*
X89075611Y-60923936D01*
X89075142Y-61014330D01*
X89074978Y-61112147D01*
X89074978Y-61557805D01*
X88104249Y-61557805D01*
X88149205Y-61504362D01*
X88201406Y-61415466D01*
X88237930Y-61318875D01*
X88257434Y-61216700D01*
X88258573Y-61111050D01*
X88240005Y-61004036D01*
X88200384Y-60897768D01*
X88142516Y-60800781D01*
X88067684Y-60715707D01*
X87979615Y-60646985D01*
X87880616Y-60596082D01*
X87772993Y-60564465D01*
X87659054Y-60553600D01*
X87562267Y-60553600D01*
X87562267Y-59325884D01*
X88171867Y-59325884D01*
X88172117Y-60457644D01*
X88202722Y-60418133D01*
X88210089Y-60408752D01*
X88264438Y-60345817D01*
X88332259Y-60277003D01*
X88415516Y-60200404D01*
X88516178Y-60114112D01*
X88536847Y-60096948D01*
X88586409Y-60056167D01*
X88647326Y-60006412D01*
X88717898Y-59949045D01*
X88796424Y-59885431D01*
X88881204Y-59816931D01*
X88970537Y-59744910D01*
X89062722Y-59670730D01*
X89081702Y-59655483D01*
X89156060Y-59595754D01*
X89248848Y-59521347D01*
X89339388Y-59448869D01*
X89425978Y-59379686D01*
X89506918Y-59315159D01*
X89580506Y-59256653D01*
X89645044Y-59205530D01*
X89698829Y-59163153D01*
X89740162Y-59130885D01*
X89767342Y-59110090D01*
X89778668Y-59102131D01*
X89782771Y-59103889D01*
X89803334Y-59116770D01*
X89839561Y-59141115D01*
X89889824Y-59175753D01*
X89952492Y-59219514D01*
X90025936Y-59271225D01*
X90108527Y-59329716D01*
X90198636Y-59393816D01*
X90294631Y-59462354D01*
X90394885Y-59534157D01*
X90497768Y-59608056D01*
X90601650Y-59682879D01*
X90704901Y-59757455D01*
X90805892Y-59830613D01*
X90902994Y-59901181D01*
X90994577Y-59967989D01*
X91079011Y-60029865D01*
X91154667Y-60085639D01*
X91219916Y-60134138D01*
X91273128Y-60174193D01*
X91312673Y-60204631D01*
X91338026Y-60225056D01*
X91392295Y-60271101D01*
X91448775Y-60321388D01*
X91498669Y-60368185D01*
X91592400Y-60459349D01*
X91592400Y-59304910D01*
X91516200Y-59305544D01*
X91474160Y-59304426D01*
X91438334Y-59298696D01*
X91400772Y-59286110D01*
X91352577Y-59264432D01*
X91345897Y-59261211D01*
X91296359Y-59235812D01*
X91248369Y-59209004D01*
X91211466Y-59186083D01*
X91204834Y-59181515D01*
X91173593Y-59159484D01*
X91128654Y-59127307D01*
X91072147Y-59086543D01*
X91006204Y-59038755D01*
X90932957Y-58985502D01*
X90854536Y-58928345D01*
X90773072Y-58868845D01*
X90690698Y-58808563D01*
X90609544Y-58749060D01*
X90531742Y-58691895D01*
X90459423Y-58638630D01*
X90394718Y-58590826D01*
X90339759Y-58550043D01*
X90296676Y-58517842D01*
X90267602Y-58495784D01*
X90254667Y-58485429D01*
X90250351Y-58480956D01*
X90248312Y-58476764D01*
X90250926Y-58473357D01*
X90259986Y-58470675D01*
X90277285Y-58468659D01*
X90304614Y-58467252D01*
X90343765Y-58466395D01*
X90396533Y-58466030D01*
X90464707Y-58466097D01*
X90550082Y-58466540D01*
X90654449Y-58467298D01*
X90779600Y-58468315D01*
X90824300Y-58468692D01*
X90945395Y-58469831D01*
X91046688Y-58471028D01*
X91130262Y-58472364D01*
X91198204Y-58473923D01*
X91252599Y-58475785D01*
X91295532Y-58478034D01*
X91329089Y-58480752D01*
X91355355Y-58484021D01*
X91376416Y-58487922D01*
X91394357Y-58492539D01*
X91420770Y-58500808D01*
X91482772Y-58524417D01*
X91535573Y-58550315D01*
X91572645Y-58575465D01*
X91574075Y-58576661D01*
X91578424Y-58578832D01*
X91582026Y-58576672D01*
X91584951Y-58568356D01*
X91587269Y-58552060D01*
X91589051Y-58525959D01*
X91590367Y-58488229D01*
X91591286Y-58437044D01*
X91591878Y-58370580D01*
X91592215Y-58287013D01*
X91592365Y-58184517D01*
X91592400Y-58061268D01*
X91592400Y-57529704D01*
X91534783Y-57568477D01*
X91525893Y-57574568D01*
X91511069Y-57585024D01*
X91497422Y-57594421D01*
X91483765Y-57602817D01*
X91468911Y-57610267D01*
X91451670Y-57616827D01*
X91430855Y-57622554D01*
X91405280Y-57627505D01*
X91373755Y-57631734D01*
X91335093Y-57635299D01*
X91288107Y-57638256D01*
X91231608Y-57640660D01*
X91164409Y-57642569D01*
X91085322Y-57644038D01*
X90993160Y-57645124D01*
X90886734Y-57645882D01*
X90764857Y-57646370D01*
X90626341Y-57646642D01*
X90469999Y-57646757D01*
X90294642Y-57646769D01*
X90099082Y-57646735D01*
X89882133Y-57646711D01*
X89759513Y-57646720D01*
X89554447Y-57646757D01*
X89370116Y-57646773D01*
X89205334Y-57646712D01*
X89058916Y-57646516D01*
X88929674Y-57646130D01*
X88816422Y-57645495D01*
X88717975Y-57644556D01*
X88633144Y-57643255D01*
X88560744Y-57641536D01*
X88499589Y-57639341D01*
X88448492Y-57636615D01*
X88406267Y-57633299D01*
X88371727Y-57629338D01*
X88343686Y-57624675D01*
X88320958Y-57619253D01*
X88302356Y-57613014D01*
X88286693Y-57605903D01*
X88272784Y-57597862D01*
X88259441Y-57588834D01*
X88245479Y-57578764D01*
X88229711Y-57567593D01*
X88171867Y-57527803D01*
X88171867Y-58587686D01*
X88234966Y-58549689D01*
X88260005Y-58535007D01*
X88287586Y-58520469D01*
X88315700Y-58508373D01*
X88346551Y-58498468D01*
X88382344Y-58490506D01*
X88425283Y-58484239D01*
X88477574Y-58479418D01*
X88541419Y-58475794D01*
X88619025Y-58473119D01*
X88712594Y-58471143D01*
X88824333Y-58469618D01*
X88956445Y-58468296D01*
X89076434Y-58467387D01*
X89193063Y-58466980D01*
X89288531Y-58467233D01*
X89362556Y-58468143D01*
X89414855Y-58469707D01*
X89445149Y-58471921D01*
X89453156Y-58474780D01*
X89449858Y-58477839D01*
X89428408Y-58495994D01*
X89391889Y-58525725D01*
X89342442Y-58565361D01*
X89282207Y-58613229D01*
X89213327Y-58667657D01*
X89137943Y-58726973D01*
X89058196Y-58789505D01*
X88976228Y-58853579D01*
X88894180Y-58917525D01*
X88814194Y-58979669D01*
X88738411Y-59038339D01*
X88668973Y-59091863D01*
X88608021Y-59138570D01*
X88557696Y-59176786D01*
X88520140Y-59204839D01*
X88497495Y-59221057D01*
X88425212Y-59266365D01*
X88345463Y-59306339D01*
X88277188Y-59327870D01*
X88219844Y-59331173D01*
X88171867Y-59325884D01*
X87562267Y-59325884D01*
X87562267Y-58933247D01*
X87562280Y-58722103D01*
X87562330Y-58517980D01*
X87562430Y-58334314D01*
X87562592Y-58170009D01*
X87562829Y-58023971D01*
X87563153Y-57895106D01*
X87563575Y-57782317D01*
X87564109Y-57684512D01*
X87564767Y-57600596D01*
X87565561Y-57529473D01*
X87566504Y-57470050D01*
X87567608Y-57421232D01*
X87568884Y-57381923D01*
X87570347Y-57351031D01*
X87572007Y-57327459D01*
X87573878Y-57310114D01*
X87575972Y-57297901D01*
X87578300Y-57289725D01*
X87580876Y-57284492D01*
X87584445Y-57278496D01*
X87587978Y-57271721D01*
X87591488Y-57265522D01*
X87595918Y-57259874D01*
X87602208Y-57254753D01*
X87611301Y-57250131D01*
X87624139Y-57245985D01*
X87641662Y-57242287D01*
X87664813Y-57239013D01*
X87694534Y-57236137D01*
X87731765Y-57233633D01*
X87777449Y-57231476D01*
X87832527Y-57229640D01*
X87897941Y-57228100D01*
X87974633Y-57226830D01*
X88063544Y-57225805D01*
X88165617Y-57224999D01*
X88171867Y-57224966D01*
X88281792Y-57224386D01*
X88413011Y-57223941D01*
G37*
X88413011Y-57223941D02*
X88560216Y-57223638D01*
X88724349Y-57223452D01*
X88906352Y-57223358D01*
X89107165Y-57223329D01*
X89327732Y-57223339D01*
X89568992Y-57223364D01*
X89831889Y-57223378D01*
X89874040Y-57223378D01*
X90134668Y-57223354D01*
X90373796Y-57223315D01*
X90592360Y-57223292D01*
X90791295Y-57223313D01*
X90971535Y-57223407D01*
X91134015Y-57223605D01*
X91279670Y-57223937D01*
X91409434Y-57224431D01*
X91524243Y-57225117D01*
X91625030Y-57226024D01*
X91712730Y-57227183D01*
X91788279Y-57228622D01*
X91852611Y-57230371D01*
X91906661Y-57232460D01*
X91951363Y-57234917D01*
X91987652Y-57237773D01*
X92016463Y-57241057D01*
X92038731Y-57244798D01*
X92055390Y-57249026D01*
X92067375Y-57253771D01*
X92075621Y-57259061D01*
X92081062Y-57264927D01*
X92084634Y-57271398D01*
X92087270Y-57278503D01*
X92089906Y-57286272D01*
X92093477Y-57294734D01*
X92095145Y-57299092D01*
X92097111Y-57307605D01*
X92098911Y-57320306D01*
X92100555Y-57338115D01*
X92102047Y-57361951D01*
X92103397Y-57392734D01*
X92104611Y-57431383D01*
X92105697Y-57478818D01*
X92106661Y-57535957D01*
X92107511Y-57603721D01*
X92108253Y-57683029D01*
X92108897Y-57774801D01*
X92109447Y-57879956D01*
X92109913Y-57999413D01*
X92110300Y-58134092D01*
X92110616Y-58284912D01*
X92110869Y-58452794D01*
X92111066Y-58638655D01*
X92111213Y-58843417D01*
X92111318Y-59067998D01*
X92111389Y-59313318D01*
X92111432Y-59580296D01*
X92111437Y-59618679D01*
X92111480Y-59884078D01*
X92111525Y-60127950D01*
X92111548Y-60351217D01*
X92111524Y-60554804D01*
X92111430Y-60739633D01*
X92111243Y-60906627D01*
X92110939Y-61056710D01*
X92110494Y-61190804D01*
X92109885Y-61309834D01*
X92109089Y-61414721D01*
X92108080Y-61506390D01*
X92106837Y-61585763D01*
X92105335Y-61653763D01*
X92103551Y-61711314D01*
X92101461Y-61759338D01*
X92099042Y-61798760D01*
X92096270Y-61830501D01*
X92093121Y-61855486D01*
X92089572Y-61874636D01*
X92085598Y-61888877D01*
X92081178Y-61899129D01*
X92076286Y-61906318D01*
X92070900Y-61911365D01*
X92064996Y-61915195D01*
X92058549Y-61918729D01*
X92051537Y-61922892D01*
X92049687Y-61923975D01*
X92044180Y-61926187D01*
X92035868Y-61928214D01*
X92023809Y-61930062D01*
X92007063Y-61931739D01*
X91984687Y-61933255D01*
X91955740Y-61934617D01*
X91919280Y-61935833D01*
X91874367Y-61936911D01*
X91820057Y-61937860D01*
X91755410Y-61938688D01*
X91679484Y-61939403D01*
X91591338Y-61940013D01*
X91490029Y-61940526D01*
X91374617Y-61940950D01*
X91244160Y-61941294D01*
X91097716Y-61941566D01*
X90934344Y-61941773D01*
X90753101Y-61941924D01*
X90553048Y-61942028D01*
X90333241Y-61942092D01*
X90092739Y-61942124D01*
X89830602Y-61942133D01*
X87639031Y-61942133D01*
X87600649Y-61903751D01*
X87576911Y-61876645D01*
X87565111Y-61849747D01*
X87562267Y-61813440D01*
X87562267Y-61761511D01*
X87650206Y-61761511D01*
X87700102Y-61759573D01*
X87810523Y-61740801D01*
X87911987Y-61703783D01*
X88003152Y-61650631D01*
X88082673Y-61583454D01*
X88104249Y-61557805D01*
X89074978Y-61557805D01*
X90251845Y-61560880D01*
X91428711Y-61563955D01*
X91487622Y-61590593D01*
X91512183Y-61602515D01*
X91542434Y-61619754D01*
X91559560Y-61632926D01*
X91567591Y-61640924D01*
X91582493Y-61648622D01*
X91583765Y-61644740D01*
X91585791Y-61621480D01*
X91587626Y-61579126D01*
X91589227Y-61519868D01*
X91590549Y-61445893D01*
X91591548Y-61359390D01*
X91592180Y-61262548D01*
X91592400Y-61157555D01*
X91592349Y-61088644D01*
X91592091Y-60990393D01*
X91591637Y-60900970D01*
X91591010Y-60822667D01*
X91590235Y-60757777D01*
X91589335Y-60708589D01*
X91588334Y-60677396D01*
X91587257Y-60666489D01*
X91584037Y-60667678D01*
X91566452Y-60677824D01*
X91540158Y-60694960D01*
X91527691Y-60703460D01*
X91513622Y-60712671D01*
X91499351Y-60720767D01*
X91483479Y-60727815D01*
X91464609Y-60733883D01*
X91441341Y-60739039D01*
X91412278Y-60743349D01*
X91376021Y-60746881D01*
X91331170Y-60749703D01*
X91276328Y-60751882D01*
X91210097Y-60753486D01*
X91131077Y-60754581D01*
X91037871Y-60755235D01*
X90929079Y-60755516D01*
X90803303Y-60755491D01*
X90659145Y-60755228D01*
X90495207Y-60754794D01*
X90310089Y-60754255D01*
X90131232Y-60753721D01*
X89972374Y-60753195D01*
X89833316Y-60752650D01*
X89712665Y-60752055D01*
X89609028Y-60751381D01*
X89521011Y-60750597D01*
X89447223Y-60749674D01*
X89386269Y-60748581D01*
X89336757Y-60747288D01*
X89297293Y-60745765D01*
X89266484Y-60743981D01*
X89242938Y-60741908D01*
X89225260Y-60739514D01*
X89212059Y-60736770D01*
X89201940Y-60733644D01*
X89193511Y-60730108D01*
X89185375Y-60726209D01*
X89148544Y-60706562D01*
X89118391Y-60687775D01*
X89116908Y-60686728D01*
X89094659Y-60672398D01*
X89081702Y-60666489D01*
X89081249Y-60667496D01*
X89079803Y-60684695D01*
X89078480Y-60721344D01*
X89077316Y-60775038D01*
X89076347Y-60843370D01*
X89075611Y-60923936D01*
X89075142Y-61014330D01*
X89074978Y-61112147D01*
X89074978Y-61557805D01*
X88104249Y-61557805D01*
X88149205Y-61504362D01*
X88201406Y-61415466D01*
X88237930Y-61318875D01*
X88257434Y-61216700D01*
X88258573Y-61111050D01*
X88240005Y-61004036D01*
X88200384Y-60897768D01*
X88142516Y-60800781D01*
X88067684Y-60715707D01*
X87979615Y-60646985D01*
X87880616Y-60596082D01*
X87772993Y-60564465D01*
X87659054Y-60553600D01*
X87562267Y-60553600D01*
X87562267Y-59325884D01*
X88171867Y-59325884D01*
X88172117Y-60457644D01*
X88202722Y-60418133D01*
X88210089Y-60408752D01*
X88264438Y-60345817D01*
X88332259Y-60277003D01*
X88415516Y-60200404D01*
X88516178Y-60114112D01*
X88536847Y-60096948D01*
X88586409Y-60056167D01*
X88647326Y-60006412D01*
X88717898Y-59949045D01*
X88796424Y-59885431D01*
X88881204Y-59816931D01*
X88970537Y-59744910D01*
X89062722Y-59670730D01*
X89081702Y-59655483D01*
X89156060Y-59595754D01*
X89248848Y-59521347D01*
X89339388Y-59448869D01*
X89425978Y-59379686D01*
X89506918Y-59315159D01*
X89580506Y-59256653D01*
X89645044Y-59205530D01*
X89698829Y-59163153D01*
X89740162Y-59130885D01*
X89767342Y-59110090D01*
X89778668Y-59102131D01*
X89782771Y-59103889D01*
X89803334Y-59116770D01*
X89839561Y-59141115D01*
X89889824Y-59175753D01*
X89952492Y-59219514D01*
X90025936Y-59271225D01*
X90108527Y-59329716D01*
X90198636Y-59393816D01*
X90294631Y-59462354D01*
X90394885Y-59534157D01*
X90497768Y-59608056D01*
X90601650Y-59682879D01*
X90704901Y-59757455D01*
X90805892Y-59830613D01*
X90902994Y-59901181D01*
X90994577Y-59967989D01*
X91079011Y-60029865D01*
X91154667Y-60085639D01*
X91219916Y-60134138D01*
X91273128Y-60174193D01*
X91312673Y-60204631D01*
X91338026Y-60225056D01*
X91392295Y-60271101D01*
X91448775Y-60321388D01*
X91498669Y-60368185D01*
X91592400Y-60459349D01*
X91592400Y-59304910D01*
X91516200Y-59305544D01*
X91474160Y-59304426D01*
X91438334Y-59298696D01*
X91400772Y-59286110D01*
X91352577Y-59264432D01*
X91345897Y-59261211D01*
X91296359Y-59235812D01*
X91248369Y-59209004D01*
X91211466Y-59186083D01*
X91204834Y-59181515D01*
X91173593Y-59159484D01*
X91128654Y-59127307D01*
X91072147Y-59086543D01*
X91006204Y-59038755D01*
X90932957Y-58985502D01*
X90854536Y-58928345D01*
X90773072Y-58868845D01*
X90690698Y-58808563D01*
X90609544Y-58749060D01*
X90531742Y-58691895D01*
X90459423Y-58638630D01*
X90394718Y-58590826D01*
X90339759Y-58550043D01*
X90296676Y-58517842D01*
X90267602Y-58495784D01*
X90254667Y-58485429D01*
X90250351Y-58480956D01*
X90248312Y-58476764D01*
X90250926Y-58473357D01*
X90259986Y-58470675D01*
X90277285Y-58468659D01*
X90304614Y-58467252D01*
X90343765Y-58466395D01*
X90396533Y-58466030D01*
X90464707Y-58466097D01*
X90550082Y-58466540D01*
X90654449Y-58467298D01*
X90779600Y-58468315D01*
X90824300Y-58468692D01*
X90945395Y-58469831D01*
X91046688Y-58471028D01*
X91130262Y-58472364D01*
X91198204Y-58473923D01*
X91252599Y-58475785D01*
X91295532Y-58478034D01*
X91329089Y-58480752D01*
X91355355Y-58484021D01*
X91376416Y-58487922D01*
X91394357Y-58492539D01*
X91420770Y-58500808D01*
X91482772Y-58524417D01*
X91535573Y-58550315D01*
X91572645Y-58575465D01*
X91574075Y-58576661D01*
X91578424Y-58578832D01*
X91582026Y-58576672D01*
X91584951Y-58568356D01*
X91587269Y-58552060D01*
X91589051Y-58525959D01*
X91590367Y-58488229D01*
X91591286Y-58437044D01*
X91591878Y-58370580D01*
X91592215Y-58287013D01*
X91592365Y-58184517D01*
X91592400Y-58061268D01*
X91592400Y-57529704D01*
X91534783Y-57568477D01*
X91525893Y-57574568D01*
X91511069Y-57585024D01*
X91497422Y-57594421D01*
X91483765Y-57602817D01*
X91468911Y-57610267D01*
X91451670Y-57616827D01*
X91430855Y-57622554D01*
X91405280Y-57627505D01*
X91373755Y-57631734D01*
X91335093Y-57635299D01*
X91288107Y-57638256D01*
X91231608Y-57640660D01*
X91164409Y-57642569D01*
X91085322Y-57644038D01*
X90993160Y-57645124D01*
X90886734Y-57645882D01*
X90764857Y-57646370D01*
X90626341Y-57646642D01*
X90469999Y-57646757D01*
X90294642Y-57646769D01*
X90099082Y-57646735D01*
X89882133Y-57646711D01*
X89759513Y-57646720D01*
X89554447Y-57646757D01*
X89370116Y-57646773D01*
X89205334Y-57646712D01*
X89058916Y-57646516D01*
X88929674Y-57646130D01*
X88816422Y-57645495D01*
X88717975Y-57644556D01*
X88633144Y-57643255D01*
X88560744Y-57641536D01*
X88499589Y-57639341D01*
X88448492Y-57636615D01*
X88406267Y-57633299D01*
X88371727Y-57629338D01*
X88343686Y-57624675D01*
X88320958Y-57619253D01*
X88302356Y-57613014D01*
X88286693Y-57605903D01*
X88272784Y-57597862D01*
X88259441Y-57588834D01*
X88245479Y-57578764D01*
X88229711Y-57567593D01*
X88171867Y-57527803D01*
X88171867Y-58587686D01*
X88234966Y-58549689D01*
X88260005Y-58535007D01*
X88287586Y-58520469D01*
X88315700Y-58508373D01*
X88346551Y-58498468D01*
X88382344Y-58490506D01*
X88425283Y-58484239D01*
X88477574Y-58479418D01*
X88541419Y-58475794D01*
X88619025Y-58473119D01*
X88712594Y-58471143D01*
X88824333Y-58469618D01*
X88956445Y-58468296D01*
X89076434Y-58467387D01*
X89193063Y-58466980D01*
X89288531Y-58467233D01*
X89362556Y-58468143D01*
X89414855Y-58469707D01*
X89445149Y-58471921D01*
X89453156Y-58474780D01*
X89449858Y-58477839D01*
X89428408Y-58495994D01*
X89391889Y-58525725D01*
X89342442Y-58565361D01*
X89282207Y-58613229D01*
X89213327Y-58667657D01*
X89137943Y-58726973D01*
X89058196Y-58789505D01*
X88976228Y-58853579D01*
X88894180Y-58917525D01*
X88814194Y-58979669D01*
X88738411Y-59038339D01*
X88668973Y-59091863D01*
X88608021Y-59138570D01*
X88557696Y-59176786D01*
X88520140Y-59204839D01*
X88497495Y-59221057D01*
X88425212Y-59266365D01*
X88345463Y-59306339D01*
X88277188Y-59327870D01*
X88219844Y-59331173D01*
X88171867Y-59325884D01*
X87562267Y-59325884D01*
X87562267Y-58933247D01*
X87562280Y-58722103D01*
X87562330Y-58517980D01*
X87562430Y-58334314D01*
X87562592Y-58170009D01*
X87562829Y-58023971D01*
X87563153Y-57895106D01*
X87563575Y-57782317D01*
X87564109Y-57684512D01*
X87564767Y-57600596D01*
X87565561Y-57529473D01*
X87566504Y-57470050D01*
X87567608Y-57421232D01*
X87568884Y-57381923D01*
X87570347Y-57351031D01*
X87572007Y-57327459D01*
X87573878Y-57310114D01*
X87575972Y-57297901D01*
X87578300Y-57289725D01*
X87580876Y-57284492D01*
X87584445Y-57278496D01*
X87587978Y-57271721D01*
X87591488Y-57265522D01*
X87595918Y-57259874D01*
X87602208Y-57254753D01*
X87611301Y-57250131D01*
X87624139Y-57245985D01*
X87641662Y-57242287D01*
X87664813Y-57239013D01*
X87694534Y-57236137D01*
X87731765Y-57233633D01*
X87777449Y-57231476D01*
X87832527Y-57229640D01*
X87897941Y-57228100D01*
X87974633Y-57226830D01*
X88063544Y-57225805D01*
X88165617Y-57224999D01*
X88171867Y-57224966D01*
X88281792Y-57224386D01*
X88413011Y-57223941D01*
G36*
X89991325Y-62182449D02*
G01*
X90192581Y-62199209D01*
X90387128Y-62232708D01*
X90570756Y-62282956D01*
X90688053Y-62326810D01*
X90850951Y-62404652D01*
X91004866Y-62498172D01*
X91146671Y-62605178D01*
X91273239Y-62723481D01*
X91381441Y-62850889D01*
X91434120Y-62928394D01*
X91503750Y-63055275D01*
X91562468Y-63192757D01*
X91607587Y-63334284D01*
X91636422Y-63473298D01*
X91638106Y-63487403D01*
X91641434Y-63530847D01*
X91644275Y-63588277D01*
X91646373Y-63653878D01*
X91647468Y-63721833D01*
X91645140Y-63848622D01*
X91632136Y-63996327D01*
X91607133Y-64134221D01*
X91569318Y-64267986D01*
X91560889Y-64291438D01*
X91541408Y-64339388D01*
X91516473Y-64395860D01*
X91487722Y-64457621D01*
X91456790Y-64521437D01*
X91425315Y-64584074D01*
X91394934Y-64642297D01*
X91367283Y-64692873D01*
X91343999Y-64732567D01*
X91326718Y-64758146D01*
X91317079Y-64766375D01*
X91313984Y-64764924D01*
X91294079Y-64753750D01*
X91258420Y-64732866D01*
X91209459Y-64703735D01*
X91149646Y-64667819D01*
X91081433Y-64626580D01*
X91007271Y-64581483D01*
X90710008Y-64400215D01*
X90754539Y-64353685D01*
X90832865Y-64262277D01*
X90907439Y-64148666D01*
X90961474Y-64030878D01*
X90994290Y-63910441D01*
X91005211Y-63788883D01*
X91003868Y-63747415D01*
X90985612Y-63629920D01*
X90946617Y-63519911D01*
X90887670Y-63418570D01*
X90809557Y-63327079D01*
X90713064Y-63246620D01*
X90598978Y-63178373D01*
X90564724Y-63162092D01*
X90441240Y-63116018D01*
X90302918Y-63080894D01*
X90153561Y-63056803D01*
X89996973Y-63043827D01*
X89836956Y-63042051D01*
X89677314Y-63051557D01*
X89521850Y-63072428D01*
X89374366Y-63104748D01*
X89238667Y-63148601D01*
X89152076Y-63186018D01*
X89038688Y-63250815D01*
X88945070Y-63326228D01*
X88870959Y-63412582D01*
X88816094Y-63510205D01*
X88780212Y-63619423D01*
X88763051Y-63740561D01*
X88761880Y-63809962D01*
X88776141Y-63932832D01*
X88811241Y-64048336D01*
X88866682Y-64155047D01*
X88941964Y-64251536D01*
X88956440Y-64267280D01*
X88982962Y-64297850D01*
X89000138Y-64320191D01*
X89004787Y-64330309D01*
X89002597Y-64332294D01*
X88983721Y-64346759D01*
X88950397Y-64370600D01*
X88905380Y-64401971D01*
X88851425Y-64439026D01*
X88791285Y-64479917D01*
X88727718Y-64522798D01*
X88663476Y-64565822D01*
X88601315Y-64607143D01*
X88543991Y-64644914D01*
X88494257Y-64677288D01*
X88454868Y-64702418D01*
X88428580Y-64718458D01*
X88418147Y-64723561D01*
X88413941Y-64718950D01*
X88408933Y-64699733D01*
X88406386Y-64690162D01*
X88395249Y-64662191D01*
X88376802Y-64620552D01*
X88352725Y-64569005D01*
X88324699Y-64511310D01*
X88319154Y-64500043D01*
X88239889Y-64322313D01*
X88180385Y-64152510D01*
X88140245Y-63988570D01*
X88119071Y-63828429D01*
X88116466Y-63670023D01*
X88132033Y-63511289D01*
X88149523Y-63415732D01*
X88194564Y-63251442D01*
X88257656Y-63097411D01*
X88339915Y-62951491D01*
X88442457Y-62811534D01*
X88566399Y-62675392D01*
X88611661Y-62631527D01*
X88743865Y-62519242D01*
X88881832Y-62426028D01*
X89029750Y-62349281D01*
X89191803Y-62286397D01*
X89203391Y-62282580D01*
X89389392Y-62232493D01*
X89585521Y-62199101D01*
X89787568Y-62182416D01*
X89991325Y-62182449D01*
G37*
X89991325Y-62182449D02*
X90192581Y-62199209D01*
X90387128Y-62232708D01*
X90570756Y-62282956D01*
X90688053Y-62326810D01*
X90850951Y-62404652D01*
X91004866Y-62498172D01*
X91146671Y-62605178D01*
X91273239Y-62723481D01*
X91381441Y-62850889D01*
X91434120Y-62928394D01*
X91503750Y-63055275D01*
X91562468Y-63192757D01*
X91607587Y-63334284D01*
X91636422Y-63473298D01*
X91638106Y-63487403D01*
X91641434Y-63530847D01*
X91644275Y-63588277D01*
X91646373Y-63653878D01*
X91647468Y-63721833D01*
X91645140Y-63848622D01*
X91632136Y-63996327D01*
X91607133Y-64134221D01*
X91569318Y-64267986D01*
X91560889Y-64291438D01*
X91541408Y-64339388D01*
X91516473Y-64395860D01*
X91487722Y-64457621D01*
X91456790Y-64521437D01*
X91425315Y-64584074D01*
X91394934Y-64642297D01*
X91367283Y-64692873D01*
X91343999Y-64732567D01*
X91326718Y-64758146D01*
X91317079Y-64766375D01*
X91313984Y-64764924D01*
X91294079Y-64753750D01*
X91258420Y-64732866D01*
X91209459Y-64703735D01*
X91149646Y-64667819D01*
X91081433Y-64626580D01*
X91007271Y-64581483D01*
X90710008Y-64400215D01*
X90754539Y-64353685D01*
X90832865Y-64262277D01*
X90907439Y-64148666D01*
X90961474Y-64030878D01*
X90994290Y-63910441D01*
X91005211Y-63788883D01*
X91003868Y-63747415D01*
X90985612Y-63629920D01*
X90946617Y-63519911D01*
X90887670Y-63418570D01*
X90809557Y-63327079D01*
X90713064Y-63246620D01*
X90598978Y-63178373D01*
X90564724Y-63162092D01*
X90441240Y-63116018D01*
X90302918Y-63080894D01*
X90153561Y-63056803D01*
X89996973Y-63043827D01*
X89836956Y-63042051D01*
X89677314Y-63051557D01*
X89521850Y-63072428D01*
X89374366Y-63104748D01*
X89238667Y-63148601D01*
X89152076Y-63186018D01*
X89038688Y-63250815D01*
X88945070Y-63326228D01*
X88870959Y-63412582D01*
X88816094Y-63510205D01*
X88780212Y-63619423D01*
X88763051Y-63740561D01*
X88761880Y-63809962D01*
X88776141Y-63932832D01*
X88811241Y-64048336D01*
X88866682Y-64155047D01*
X88941964Y-64251536D01*
X88956440Y-64267280D01*
X88982962Y-64297850D01*
X89000138Y-64320191D01*
X89004787Y-64330309D01*
X89002597Y-64332294D01*
X88983721Y-64346759D01*
X88950397Y-64370600D01*
X88905380Y-64401971D01*
X88851425Y-64439026D01*
X88791285Y-64479917D01*
X88727718Y-64522798D01*
X88663476Y-64565822D01*
X88601315Y-64607143D01*
X88543991Y-64644914D01*
X88494257Y-64677288D01*
X88454868Y-64702418D01*
X88428580Y-64718458D01*
X88418147Y-64723561D01*
X88413941Y-64718950D01*
X88408933Y-64699733D01*
X88406386Y-64690162D01*
X88395249Y-64662191D01*
X88376802Y-64620552D01*
X88352725Y-64569005D01*
X88324699Y-64511310D01*
X88319154Y-64500043D01*
X88239889Y-64322313D01*
X88180385Y-64152510D01*
X88140245Y-63988570D01*
X88119071Y-63828429D01*
X88116466Y-63670023D01*
X88132033Y-63511289D01*
X88149523Y-63415732D01*
X88194564Y-63251442D01*
X88257656Y-63097411D01*
X88339915Y-62951491D01*
X88442457Y-62811534D01*
X88566399Y-62675392D01*
X88611661Y-62631527D01*
X88743865Y-62519242D01*
X88881832Y-62426028D01*
X89029750Y-62349281D01*
X89191803Y-62286397D01*
X89203391Y-62282580D01*
X89389392Y-62232493D01*
X89585521Y-62199101D01*
X89787568Y-62182416D01*
X89991325Y-62182449D01*
G36*
X92705041Y-57223130D02*
G01*
X92805956Y-57223378D01*
X92881617Y-57223417D01*
X92959526Y-57223672D01*
X93019536Y-57224316D01*
X93064264Y-57225520D01*
X93096326Y-57227457D01*
X93118340Y-57230297D01*
X93132924Y-57234212D01*
X93142694Y-57239374D01*
X93150267Y-57245955D01*
X93156501Y-57252923D01*
X93163801Y-57265921D01*
X93168554Y-57285069D01*
X93171292Y-57314472D01*
X93172545Y-57358238D01*
X93172845Y-57420472D01*
X93172469Y-57469418D01*
X93168041Y-57576278D01*
X93157953Y-57665506D01*
X93141365Y-57740304D01*
X93117435Y-57803875D01*
X93085321Y-57859421D01*
X93044182Y-57910146D01*
X93038330Y-57916134D01*
X92989821Y-57953001D01*
X92929013Y-57984101D01*
X92864769Y-58005583D01*
X92805956Y-58013600D01*
X92784739Y-58012321D01*
X92727323Y-58000009D01*
X92667413Y-57977480D01*
X92613363Y-57948250D01*
X92573532Y-57915833D01*
X92556510Y-57896292D01*
X92517322Y-57841580D01*
X92487193Y-57781277D01*
X92465232Y-57712081D01*
X92450550Y-57630689D01*
X92442259Y-57533800D01*
X92440148Y-57446333D01*
X92585808Y-57446333D01*
X92585817Y-57449361D01*
X92587782Y-57500481D01*
X92592507Y-57560584D01*
X92599035Y-57617292D01*
X92608331Y-57667250D01*
X92634600Y-57742002D01*
X92673899Y-57799511D01*
X92726933Y-57841012D01*
X92778200Y-57862229D01*
X92826026Y-57863647D01*
X92876961Y-57845365D01*
X92922878Y-57815695D01*
X92965287Y-57768998D01*
X92995090Y-57707608D01*
X93014226Y-57628462D01*
X93014464Y-57626972D01*
X93020256Y-57578001D01*
X93024396Y-57519307D01*
X93026004Y-57463266D01*
X93026089Y-57370133D01*
X92585822Y-57370133D01*
X92585808Y-57446333D01*
X92440148Y-57446333D01*
X92439467Y-57418111D01*
X92439066Y-57378629D01*
X92438653Y-57332918D01*
X92440457Y-57297117D01*
X92446739Y-57270026D01*
X92459759Y-57250444D01*
X92481778Y-57237170D01*
X92515055Y-57229002D01*
X92561851Y-57224740D01*
X92585822Y-57224143D01*
X92624427Y-57223183D01*
X92705041Y-57223130D01*
G37*
X92705041Y-57223130D02*
X92805956Y-57223378D01*
X92881617Y-57223417D01*
X92959526Y-57223672D01*
X93019536Y-57224316D01*
X93064264Y-57225520D01*
X93096326Y-57227457D01*
X93118340Y-57230297D01*
X93132924Y-57234212D01*
X93142694Y-57239374D01*
X93150267Y-57245955D01*
X93156501Y-57252923D01*
X93163801Y-57265921D01*
X93168554Y-57285069D01*
X93171292Y-57314472D01*
X93172545Y-57358238D01*
X93172845Y-57420472D01*
X93172469Y-57469418D01*
X93168041Y-57576278D01*
X93157953Y-57665506D01*
X93141365Y-57740304D01*
X93117435Y-57803875D01*
X93085321Y-57859421D01*
X93044182Y-57910146D01*
X93038330Y-57916134D01*
X92989821Y-57953001D01*
X92929013Y-57984101D01*
X92864769Y-58005583D01*
X92805956Y-58013600D01*
X92784739Y-58012321D01*
X92727323Y-58000009D01*
X92667413Y-57977480D01*
X92613363Y-57948250D01*
X92573532Y-57915833D01*
X92556510Y-57896292D01*
X92517322Y-57841580D01*
X92487193Y-57781277D01*
X92465232Y-57712081D01*
X92450550Y-57630689D01*
X92442259Y-57533800D01*
X92440148Y-57446333D01*
X92585808Y-57446333D01*
X92585817Y-57449361D01*
X92587782Y-57500481D01*
X92592507Y-57560584D01*
X92599035Y-57617292D01*
X92608331Y-57667250D01*
X92634600Y-57742002D01*
X92673899Y-57799511D01*
X92726933Y-57841012D01*
X92778200Y-57862229D01*
X92826026Y-57863647D01*
X92876961Y-57845365D01*
X92922878Y-57815695D01*
X92965287Y-57768998D01*
X92995090Y-57707608D01*
X93014226Y-57628462D01*
X93014464Y-57626972D01*
X93020256Y-57578001D01*
X93024396Y-57519307D01*
X93026004Y-57463266D01*
X93026089Y-57370133D01*
X92585822Y-57370133D01*
X92585808Y-57446333D01*
X92440148Y-57446333D01*
X92439467Y-57418111D01*
X92439066Y-57378629D01*
X92438653Y-57332918D01*
X92440457Y-57297117D01*
X92446739Y-57270026D01*
X92459759Y-57250444D01*
X92481778Y-57237170D01*
X92515055Y-57229002D01*
X92561851Y-57224740D01*
X92585822Y-57224143D01*
X92624427Y-57223183D01*
X92705041Y-57223130D01*
G36*
X92565178Y-67989083D02*
G01*
X92566631Y-67990443D01*
X92574992Y-68001646D01*
X92580547Y-68018748D01*
X92583840Y-68045918D01*
X92585418Y-68087322D01*
X92585822Y-68147127D01*
X92585822Y-68286489D01*
X92849589Y-68286489D01*
X92925417Y-68286564D01*
X92992083Y-68286972D01*
X93041867Y-68287954D01*
X93077784Y-68289750D01*
X93102850Y-68292601D01*
X93120081Y-68296747D01*
X93132492Y-68302429D01*
X93143100Y-68309886D01*
X93145906Y-68312176D01*
X93168548Y-68343354D01*
X93170112Y-68377734D01*
X93150267Y-68410666D01*
X93142191Y-68417645D01*
X93131593Y-68423117D01*
X93115749Y-68427137D01*
X93091773Y-68429928D01*
X93056774Y-68431712D01*
X93007864Y-68432711D01*
X92942154Y-68433148D01*
X92856756Y-68433244D01*
X92585822Y-68433244D01*
X92585822Y-68579180D01*
X92585821Y-68590280D01*
X92585596Y-68646798D01*
X92584457Y-68685642D01*
X92581657Y-68711035D01*
X92576450Y-68727196D01*
X92568089Y-68738348D01*
X92555826Y-68748711D01*
X92525138Y-68764559D01*
X92491358Y-68761457D01*
X92458822Y-68735813D01*
X92455105Y-68730871D01*
X92450269Y-68720662D01*
X92446506Y-68705236D01*
X92443683Y-68682114D01*
X92441670Y-68648817D01*
X92440333Y-68602863D01*
X92439542Y-68541772D01*
X92439163Y-68463065D01*
X92439067Y-68364260D01*
X92439068Y-68344233D01*
X92439158Y-68250110D01*
X92439498Y-68175595D01*
X92440239Y-68118189D01*
X92441535Y-68075389D01*
X92443537Y-68044696D01*
X92446396Y-68023609D01*
X92450266Y-68009627D01*
X92455298Y-68000250D01*
X92461645Y-67992978D01*
X92494362Y-67974172D01*
X92531939Y-67972725D01*
X92565178Y-67989083D01*
G37*
X92565178Y-67989083D02*
X92566631Y-67990443D01*
X92574992Y-68001646D01*
X92580547Y-68018748D01*
X92583840Y-68045918D01*
X92585418Y-68087322D01*
X92585822Y-68147127D01*
X92585822Y-68286489D01*
X92849589Y-68286489D01*
X92925417Y-68286564D01*
X92992083Y-68286972D01*
X93041867Y-68287954D01*
X93077784Y-68289750D01*
X93102850Y-68292601D01*
X93120081Y-68296747D01*
X93132492Y-68302429D01*
X93143100Y-68309886D01*
X93145906Y-68312176D01*
X93168548Y-68343354D01*
X93170112Y-68377734D01*
X93150267Y-68410666D01*
X93142191Y-68417645D01*
X93131593Y-68423117D01*
X93115749Y-68427137D01*
X93091773Y-68429928D01*
X93056774Y-68431712D01*
X93007864Y-68432711D01*
X92942154Y-68433148D01*
X92856756Y-68433244D01*
X92585822Y-68433244D01*
X92585822Y-68579180D01*
X92585821Y-68590280D01*
X92585596Y-68646798D01*
X92584457Y-68685642D01*
X92581657Y-68711035D01*
X92576450Y-68727196D01*
X92568089Y-68738348D01*
X92555826Y-68748711D01*
X92525138Y-68764559D01*
X92491358Y-68761457D01*
X92458822Y-68735813D01*
X92455105Y-68730871D01*
X92450269Y-68720662D01*
X92446506Y-68705236D01*
X92443683Y-68682114D01*
X92441670Y-68648817D01*
X92440333Y-68602863D01*
X92439542Y-68541772D01*
X92439163Y-68463065D01*
X92439067Y-68364260D01*
X92439068Y-68344233D01*
X92439158Y-68250110D01*
X92439498Y-68175595D01*
X92440239Y-68118189D01*
X92441535Y-68075389D01*
X92443537Y-68044696D01*
X92446396Y-68023609D01*
X92450266Y-68009627D01*
X92455298Y-68000250D01*
X92461645Y-67992978D01*
X92494362Y-67974172D01*
X92531939Y-67972725D01*
X92565178Y-67989083D01*
G36*
X92876911Y-63296829D02*
G01*
X92955228Y-63297061D01*
X93015496Y-63297681D01*
X93060393Y-63298874D01*
X93092602Y-63300821D01*
X93114800Y-63303706D01*
X93129669Y-63307712D01*
X93139889Y-63313021D01*
X93148138Y-63319817D01*
X93152795Y-63324332D01*
X93159282Y-63332562D01*
X93164194Y-63343922D01*
X93167749Y-63361190D01*
X93170167Y-63387145D01*
X93171667Y-63424564D01*
X93172467Y-63476227D01*
X93172787Y-63544911D01*
X93172845Y-63633394D01*
X93172838Y-63653069D01*
X93172572Y-63740094D01*
X93171806Y-63807746D01*
X93170392Y-63858701D01*
X93168180Y-63895633D01*
X93165022Y-63921217D01*
X93160769Y-63938129D01*
X93155271Y-63949043D01*
X93145285Y-63959536D01*
X93114168Y-63972797D01*
X93078280Y-63971614D01*
X93046733Y-63955450D01*
X93044457Y-63953261D01*
X93038189Y-63944573D01*
X93033523Y-63931231D01*
X93030227Y-63910248D01*
X93028068Y-63878637D01*
X93026814Y-63833410D01*
X93026231Y-63771580D01*
X93026089Y-63690161D01*
X93026089Y-63443555D01*
X92868045Y-63443555D01*
X92868045Y-63605994D01*
X92867964Y-63641662D01*
X92867167Y-63697432D01*
X92865162Y-63736570D01*
X92861521Y-63763024D01*
X92855812Y-63780741D01*
X92847607Y-63793671D01*
X92844423Y-63797314D01*
X92813448Y-63815722D01*
X92777112Y-63816356D01*
X92743493Y-63798817D01*
X92743424Y-63798755D01*
X92734798Y-63789084D01*
X92728742Y-63775791D01*
X92724811Y-63755083D01*
X92722556Y-63723172D01*
X92721531Y-63676266D01*
X92721289Y-63610576D01*
X92721289Y-63442429D01*
X92656378Y-63445814D01*
X92591467Y-63449200D01*
X92588414Y-63691277D01*
X92588086Y-63716293D01*
X92586606Y-63797913D01*
X92584222Y-63860232D01*
X92580227Y-63905846D01*
X92573913Y-63937348D01*
X92564574Y-63957333D01*
X92551503Y-63968396D01*
X92533992Y-63973131D01*
X92511335Y-63974133D01*
X92508970Y-63974127D01*
X92488939Y-63972973D01*
X92473146Y-63968176D01*
X92461090Y-63957368D01*
X92452267Y-63938183D01*
X92446175Y-63908255D01*
X92442311Y-63865217D01*
X92440174Y-63806701D01*
X92439260Y-63730343D01*
X92439067Y-63633774D01*
X92439067Y-63343594D01*
X92468811Y-63320197D01*
X92475495Y-63315248D01*
X92486066Y-63309404D01*
X92500153Y-63304943D01*
X92520478Y-63301679D01*
X92549765Y-63299426D01*
X92590737Y-63297998D01*
X92646117Y-63297208D01*
X92718628Y-63296871D01*
X92810994Y-63296800D01*
X92876911Y-63296829D01*
G37*
X92876911Y-63296829D02*
X92955228Y-63297061D01*
X93015496Y-63297681D01*
X93060393Y-63298874D01*
X93092602Y-63300821D01*
X93114800Y-63303706D01*
X93129669Y-63307712D01*
X93139889Y-63313021D01*
X93148138Y-63319817D01*
X93152795Y-63324332D01*
X93159282Y-63332562D01*
X93164194Y-63343922D01*
X93167749Y-63361190D01*
X93170167Y-63387145D01*
X93171667Y-63424564D01*
X93172467Y-63476227D01*
X93172787Y-63544911D01*
X93172845Y-63633394D01*
X93172838Y-63653069D01*
X93172572Y-63740094D01*
X93171806Y-63807746D01*
X93170392Y-63858701D01*
X93168180Y-63895633D01*
X93165022Y-63921217D01*
X93160769Y-63938129D01*
X93155271Y-63949043D01*
X93145285Y-63959536D01*
X93114168Y-63972797D01*
X93078280Y-63971614D01*
X93046733Y-63955450D01*
X93044457Y-63953261D01*
X93038189Y-63944573D01*
X93033523Y-63931231D01*
X93030227Y-63910248D01*
X93028068Y-63878637D01*
X93026814Y-63833410D01*
X93026231Y-63771580D01*
X93026089Y-63690161D01*
X93026089Y-63443555D01*
X92868045Y-63443555D01*
X92868045Y-63605994D01*
X92867964Y-63641662D01*
X92867167Y-63697432D01*
X92865162Y-63736570D01*
X92861521Y-63763024D01*
X92855812Y-63780741D01*
X92847607Y-63793671D01*
X92844423Y-63797314D01*
X92813448Y-63815722D01*
X92777112Y-63816356D01*
X92743493Y-63798817D01*
X92743424Y-63798755D01*
X92734798Y-63789084D01*
X92728742Y-63775791D01*
X92724811Y-63755083D01*
X92722556Y-63723172D01*
X92721531Y-63676266D01*
X92721289Y-63610576D01*
X92721289Y-63442429D01*
X92656378Y-63445814D01*
X92591467Y-63449200D01*
X92588414Y-63691277D01*
X92588086Y-63716293D01*
X92586606Y-63797913D01*
X92584222Y-63860232D01*
X92580227Y-63905846D01*
X92573913Y-63937348D01*
X92564574Y-63957333D01*
X92551503Y-63968396D01*
X92533992Y-63973131D01*
X92511335Y-63974133D01*
X92508970Y-63974127D01*
X92488939Y-63972973D01*
X92473146Y-63968176D01*
X92461090Y-63957368D01*
X92452267Y-63938183D01*
X92446175Y-63908255D01*
X92442311Y-63865217D01*
X92440174Y-63806701D01*
X92439260Y-63730343D01*
X92439067Y-63633774D01*
X92439067Y-63343594D01*
X92468811Y-63320197D01*
X92475495Y-63315248D01*
X92486066Y-63309404D01*
X92500153Y-63304943D01*
X92520478Y-63301679D01*
X92549765Y-63299426D01*
X92590737Y-63297998D01*
X92646117Y-63297208D01*
X92718628Y-63296871D01*
X92810994Y-63296800D01*
X92876911Y-63296829D01*
G36*
X92690232Y-59324048D02*
G01*
X92715029Y-59329840D01*
X92736699Y-59344647D01*
X92764049Y-59372620D01*
X92771378Y-59380598D01*
X92792281Y-59404308D01*
X92809251Y-59426702D01*
X92823205Y-59450735D01*
X92835056Y-59479363D01*
X92845720Y-59515540D01*
X92856111Y-59562220D01*
X92867146Y-59622359D01*
X92879738Y-59698910D01*
X92894804Y-59794829D01*
X92897838Y-59813192D01*
X92911458Y-59875522D01*
X92927192Y-59920740D01*
X92944263Y-59947024D01*
X92961897Y-59952553D01*
X92966168Y-59949932D01*
X92981233Y-59932000D01*
X92997867Y-59903874D01*
X93003857Y-59891074D01*
X93011050Y-59869776D01*
X93015827Y-59843390D01*
X93018646Y-59807546D01*
X93019964Y-59757872D01*
X93020237Y-59690000D01*
X93020164Y-59672215D01*
X93019053Y-59604594D01*
X93016828Y-59539655D01*
X93013762Y-59484030D01*
X93010127Y-59444349D01*
X93006059Y-59408838D01*
X93005276Y-59379585D01*
X93009876Y-59360685D01*
X93020551Y-59345571D01*
X93024144Y-59341915D01*
X93055918Y-59325573D01*
X93091572Y-59326893D01*
X93122190Y-59345850D01*
X93133796Y-59366220D01*
X93146491Y-59402204D01*
X93156541Y-59444628D01*
X93157140Y-59448078D01*
X93162356Y-59490748D01*
X93166730Y-59548134D01*
X93169818Y-59613151D01*
X93171177Y-59678711D01*
X93171218Y-59694943D01*
X93168741Y-59793256D01*
X93160735Y-59873308D01*
X93146203Y-59938487D01*
X93124149Y-59992183D01*
X93093576Y-60037784D01*
X93053486Y-60078677D01*
X93027259Y-60098798D01*
X92997712Y-60110424D01*
X92957995Y-60113333D01*
X92946026Y-60113192D01*
X92913345Y-60109319D01*
X92886819Y-60096935D01*
X92855971Y-60071770D01*
X92833831Y-60050558D01*
X92811285Y-60024162D01*
X92792917Y-59994445D01*
X92777661Y-59958215D01*
X92764449Y-59912283D01*
X92752214Y-59853456D01*
X92739889Y-59778544D01*
X92726406Y-59684355D01*
X92719396Y-59639043D01*
X92704837Y-59571089D01*
X92688337Y-59521953D01*
X92670439Y-59492386D01*
X92651685Y-59483136D01*
X92632615Y-59494952D01*
X92613771Y-59528584D01*
X92612557Y-59531630D01*
X92600479Y-59577989D01*
X92592279Y-59640639D01*
X92588119Y-59714073D01*
X92588161Y-59792783D01*
X92592569Y-59871261D01*
X92601505Y-59944000D01*
X92602154Y-59947927D01*
X92609861Y-59996743D01*
X92613473Y-60028995D01*
X92612876Y-60049992D01*
X92607954Y-60065046D01*
X92598596Y-60079466D01*
X92597725Y-60080636D01*
X92567351Y-60105153D01*
X92531850Y-60109946D01*
X92497269Y-60094140D01*
X92492813Y-60089594D01*
X92477673Y-60059980D01*
X92464550Y-60012998D01*
X92453750Y-59952694D01*
X92445581Y-59883112D01*
X92440351Y-59808297D01*
X92438367Y-59732294D01*
X92439936Y-59659147D01*
X92445366Y-59592900D01*
X92454964Y-59537600D01*
X92469825Y-59486717D01*
X92502958Y-59415405D01*
X92545640Y-59364248D01*
X92597705Y-59333425D01*
X92658983Y-59323111D01*
X92690232Y-59324048D01*
G37*
X92690232Y-59324048D02*
X92715029Y-59329840D01*
X92736699Y-59344647D01*
X92764049Y-59372620D01*
X92771378Y-59380598D01*
X92792281Y-59404308D01*
X92809251Y-59426702D01*
X92823205Y-59450735D01*
X92835056Y-59479363D01*
X92845720Y-59515540D01*
X92856111Y-59562220D01*
X92867146Y-59622359D01*
X92879738Y-59698910D01*
X92894804Y-59794829D01*
X92897838Y-59813192D01*
X92911458Y-59875522D01*
X92927192Y-59920740D01*
X92944263Y-59947024D01*
X92961897Y-59952553D01*
X92966168Y-59949932D01*
X92981233Y-59932000D01*
X92997867Y-59903874D01*
X93003857Y-59891074D01*
X93011050Y-59869776D01*
X93015827Y-59843390D01*
X93018646Y-59807546D01*
X93019964Y-59757872D01*
X93020237Y-59690000D01*
X93020164Y-59672215D01*
X93019053Y-59604594D01*
X93016828Y-59539655D01*
X93013762Y-59484030D01*
X93010127Y-59444349D01*
X93006059Y-59408838D01*
X93005276Y-59379585D01*
X93009876Y-59360685D01*
X93020551Y-59345571D01*
X93024144Y-59341915D01*
X93055918Y-59325573D01*
X93091572Y-59326893D01*
X93122190Y-59345850D01*
X93133796Y-59366220D01*
X93146491Y-59402204D01*
X93156541Y-59444628D01*
X93157140Y-59448078D01*
X93162356Y-59490748D01*
X93166730Y-59548134D01*
X93169818Y-59613151D01*
X93171177Y-59678711D01*
X93171218Y-59694943D01*
X93168741Y-59793256D01*
X93160735Y-59873308D01*
X93146203Y-59938487D01*
X93124149Y-59992183D01*
X93093576Y-60037784D01*
X93053486Y-60078677D01*
X93027259Y-60098798D01*
X92997712Y-60110424D01*
X92957995Y-60113333D01*
X92946026Y-60113192D01*
X92913345Y-60109319D01*
X92886819Y-60096935D01*
X92855971Y-60071770D01*
X92833831Y-60050558D01*
X92811285Y-60024162D01*
X92792917Y-59994445D01*
X92777661Y-59958215D01*
X92764449Y-59912283D01*
X92752214Y-59853456D01*
X92739889Y-59778544D01*
X92726406Y-59684355D01*
X92719396Y-59639043D01*
X92704837Y-59571089D01*
X92688337Y-59521953D01*
X92670439Y-59492386D01*
X92651685Y-59483136D01*
X92632615Y-59494952D01*
X92613771Y-59528584D01*
X92612557Y-59531630D01*
X92600479Y-59577989D01*
X92592279Y-59640639D01*
X92588119Y-59714073D01*
X92588161Y-59792783D01*
X92592569Y-59871261D01*
X92601505Y-59944000D01*
X92602154Y-59947927D01*
X92609861Y-59996743D01*
X92613473Y-60028995D01*
X92612876Y-60049992D01*
X92607954Y-60065046D01*
X92598596Y-60079466D01*
X92597725Y-60080636D01*
X92567351Y-60105153D01*
X92531850Y-60109946D01*
X92497269Y-60094140D01*
X92492813Y-60089594D01*
X92477673Y-60059980D01*
X92464550Y-60012998D01*
X92453750Y-59952694D01*
X92445581Y-59883112D01*
X92440351Y-59808297D01*
X92438367Y-59732294D01*
X92439936Y-59659147D01*
X92445366Y-59592900D01*
X92454964Y-59537600D01*
X92469825Y-59486717D01*
X92502958Y-59415405D01*
X92545640Y-59364248D01*
X92597705Y-59333425D01*
X92658983Y-59323111D01*
X92690232Y-59324048D01*
G36*
X90490158Y-67314732D02*
G01*
X90641594Y-67323311D01*
X90778283Y-67342167D01*
X90904276Y-67372163D01*
X91023625Y-67414164D01*
X91140381Y-67469031D01*
X91251179Y-67535833D01*
X91364739Y-67626637D01*
X91460211Y-67730292D01*
X91537073Y-67846113D01*
X91594797Y-67973414D01*
X91632858Y-68111511D01*
X91638666Y-68149207D01*
X91644396Y-68228248D01*
X91644583Y-68316371D01*
X91639539Y-68405764D01*
X91629578Y-68488616D01*
X91615012Y-68557113D01*
X91605364Y-68587965D01*
X91575123Y-68665270D01*
X91537617Y-68742321D01*
X91496614Y-68811800D01*
X91455879Y-68866385D01*
X91436505Y-68889084D01*
X91418662Y-68911799D01*
X91411778Y-68923221D01*
X91413424Y-68924463D01*
X91431205Y-68927272D01*
X91464370Y-68929224D01*
X91507733Y-68929955D01*
X91603689Y-68929955D01*
X91603689Y-69788104D01*
X91542974Y-69753839D01*
X91533868Y-69748645D01*
X91519249Y-69740285D01*
X91505173Y-69732712D01*
X91490540Y-69725888D01*
X91474249Y-69719773D01*
X91455198Y-69714327D01*
X91432286Y-69709513D01*
X91404413Y-69705292D01*
X91370478Y-69701623D01*
X91329379Y-69698469D01*
X91280015Y-69695789D01*
X91221286Y-69693546D01*
X91152090Y-69691701D01*
X91071326Y-69690213D01*
X90977894Y-69689045D01*
X90870692Y-69688156D01*
X90748620Y-69687509D01*
X90610576Y-69687064D01*
X90455459Y-69686782D01*
X90282168Y-69686625D01*
X90089603Y-69686552D01*
X89876662Y-69686526D01*
X89642245Y-69686507D01*
X87957378Y-69686311D01*
X87957378Y-68780983D01*
X87994067Y-68805415D01*
X88003647Y-68811682D01*
X88049981Y-68837792D01*
X88097102Y-68855531D01*
X88152251Y-68867092D01*
X88222667Y-68874669D01*
X88229650Y-68875161D01*
X88267641Y-68876938D01*
X88321576Y-68878556D01*
X88388703Y-68880001D01*
X88466271Y-68881260D01*
X88551528Y-68882320D01*
X88641724Y-68883171D01*
X88734107Y-68883797D01*
X88825925Y-68884188D01*
X88914427Y-68884330D01*
X88996862Y-68884210D01*
X89070479Y-68883817D01*
X89132526Y-68883138D01*
X89180251Y-68882159D01*
X89210904Y-68880868D01*
X89221733Y-68879253D01*
X89217333Y-68871043D01*
X89202362Y-68849353D01*
X89180448Y-68819986D01*
X89146236Y-68771121D01*
X89099714Y-68682875D01*
X89066046Y-68584084D01*
X89063231Y-68569557D01*
X89617465Y-68569557D01*
X89629389Y-68654681D01*
X89656040Y-68738867D01*
X89696962Y-68817392D01*
X89740530Y-68884800D01*
X90890721Y-68884800D01*
X90937089Y-68814244D01*
X90960791Y-68773583D01*
X90986639Y-68719454D01*
X91004829Y-68670311D01*
X91020551Y-68606835D01*
X91031541Y-68510669D01*
X91023365Y-68426100D01*
X90995805Y-68352781D01*
X90948642Y-68290363D01*
X90881658Y-68238498D01*
X90794633Y-68196840D01*
X90687350Y-68165038D01*
X90675009Y-68162455D01*
X90613772Y-68154000D01*
X90536692Y-68148337D01*
X90449002Y-68145424D01*
X90355934Y-68145217D01*
X90262720Y-68147670D01*
X90174594Y-68152739D01*
X90096788Y-68160381D01*
X90034533Y-68170552D01*
X90028666Y-68171833D01*
X89918121Y-68200874D01*
X89827575Y-68235390D01*
X89754953Y-68276544D01*
X89698181Y-68325501D01*
X89655184Y-68383426D01*
X89639615Y-68415380D01*
X89620722Y-68488216D01*
X89617465Y-68569557D01*
X89063231Y-68569557D01*
X89044231Y-68471490D01*
X89033265Y-68341836D01*
X89032219Y-68249330D01*
X89042014Y-68127989D01*
X89066174Y-68017901D01*
X89105785Y-67914611D01*
X89161932Y-67813662D01*
X89192883Y-67768497D01*
X89284115Y-67663089D01*
X89393106Y-67571462D01*
X89519726Y-67493668D01*
X89663845Y-67429759D01*
X89825332Y-67379786D01*
X90004059Y-67343802D01*
X90199895Y-67321857D01*
X90355934Y-67316100D01*
X90412711Y-67314006D01*
X90490158Y-67314732D01*
G37*
X90490158Y-67314732D02*
X90641594Y-67323311D01*
X90778283Y-67342167D01*
X90904276Y-67372163D01*
X91023625Y-67414164D01*
X91140381Y-67469031D01*
X91251179Y-67535833D01*
X91364739Y-67626637D01*
X91460211Y-67730292D01*
X91537073Y-67846113D01*
X91594797Y-67973414D01*
X91632858Y-68111511D01*
X91638666Y-68149207D01*
X91644396Y-68228248D01*
X91644583Y-68316371D01*
X91639539Y-68405764D01*
X91629578Y-68488616D01*
X91615012Y-68557113D01*
X91605364Y-68587965D01*
X91575123Y-68665270D01*
X91537617Y-68742321D01*
X91496614Y-68811800D01*
X91455879Y-68866385D01*
X91436505Y-68889084D01*
X91418662Y-68911799D01*
X91411778Y-68923221D01*
X91413424Y-68924463D01*
X91431205Y-68927272D01*
X91464370Y-68929224D01*
X91507733Y-68929955D01*
X91603689Y-68929955D01*
X91603689Y-69788104D01*
X91542974Y-69753839D01*
X91533868Y-69748645D01*
X91519249Y-69740285D01*
X91505173Y-69732712D01*
X91490540Y-69725888D01*
X91474249Y-69719773D01*
X91455198Y-69714327D01*
X91432286Y-69709513D01*
X91404413Y-69705292D01*
X91370478Y-69701623D01*
X91329379Y-69698469D01*
X91280015Y-69695789D01*
X91221286Y-69693546D01*
X91152090Y-69691701D01*
X91071326Y-69690213D01*
X90977894Y-69689045D01*
X90870692Y-69688156D01*
X90748620Y-69687509D01*
X90610576Y-69687064D01*
X90455459Y-69686782D01*
X90282168Y-69686625D01*
X90089603Y-69686552D01*
X89876662Y-69686526D01*
X89642245Y-69686507D01*
X87957378Y-69686311D01*
X87957378Y-68780983D01*
X87994067Y-68805415D01*
X88003647Y-68811682D01*
X88049981Y-68837792D01*
X88097102Y-68855531D01*
X88152251Y-68867092D01*
X88222667Y-68874669D01*
X88229650Y-68875161D01*
X88267641Y-68876938D01*
X88321576Y-68878556D01*
X88388703Y-68880001D01*
X88466271Y-68881260D01*
X88551528Y-68882320D01*
X88641724Y-68883171D01*
X88734107Y-68883797D01*
X88825925Y-68884188D01*
X88914427Y-68884330D01*
X88996862Y-68884210D01*
X89070479Y-68883817D01*
X89132526Y-68883138D01*
X89180251Y-68882159D01*
X89210904Y-68880868D01*
X89221733Y-68879253D01*
X89217333Y-68871043D01*
X89202362Y-68849353D01*
X89180448Y-68819986D01*
X89146236Y-68771121D01*
X89099714Y-68682875D01*
X89066046Y-68584084D01*
X89063231Y-68569557D01*
X89617465Y-68569557D01*
X89629389Y-68654681D01*
X89656040Y-68738867D01*
X89696962Y-68817392D01*
X89740530Y-68884800D01*
X90890721Y-68884800D01*
X90937089Y-68814244D01*
X90960791Y-68773583D01*
X90986639Y-68719454D01*
X91004829Y-68670311D01*
X91020551Y-68606835D01*
X91031541Y-68510669D01*
X91023365Y-68426100D01*
X90995805Y-68352781D01*
X90948642Y-68290363D01*
X90881658Y-68238498D01*
X90794633Y-68196840D01*
X90687350Y-68165038D01*
X90675009Y-68162455D01*
X90613772Y-68154000D01*
X90536692Y-68148337D01*
X90449002Y-68145424D01*
X90355934Y-68145217D01*
X90262720Y-68147670D01*
X90174594Y-68152739D01*
X90096788Y-68160381D01*
X90034533Y-68170552D01*
X90028666Y-68171833D01*
X89918121Y-68200874D01*
X89827575Y-68235390D01*
X89754953Y-68276544D01*
X89698181Y-68325501D01*
X89655184Y-68383426D01*
X89639615Y-68415380D01*
X89620722Y-68488216D01*
X89617465Y-68569557D01*
X89063231Y-68569557D01*
X89044231Y-68471490D01*
X89033265Y-68341836D01*
X89032219Y-68249330D01*
X89042014Y-68127989D01*
X89066174Y-68017901D01*
X89105785Y-67914611D01*
X89161932Y-67813662D01*
X89192883Y-67768497D01*
X89284115Y-67663089D01*
X89393106Y-67571462D01*
X89519726Y-67493668D01*
X89663845Y-67429759D01*
X89825332Y-67379786D01*
X90004059Y-67343802D01*
X90199895Y-67321857D01*
X90355934Y-67316100D01*
X90412711Y-67314006D01*
X90490158Y-67314732D01*
G36*
X93151264Y-67618873D02*
G01*
X93168739Y-67650233D01*
X93169575Y-67686034D01*
X93149082Y-67717472D01*
X93144416Y-67721348D01*
X93134949Y-67726814D01*
X93121267Y-67731021D01*
X93100748Y-67734133D01*
X93070768Y-67736313D01*
X93028704Y-67737724D01*
X92971932Y-67738529D01*
X92897830Y-67738893D01*
X92803773Y-67738978D01*
X92482227Y-67738978D01*
X92460647Y-67712327D01*
X92445877Y-67688614D01*
X92439067Y-67665600D01*
X92444949Y-67644594D01*
X92460647Y-67618873D01*
X92482227Y-67592222D01*
X93129684Y-67592222D01*
X93151264Y-67618873D01*
G37*
X93151264Y-67618873D02*
X93168739Y-67650233D01*
X93169575Y-67686034D01*
X93149082Y-67717472D01*
X93144416Y-67721348D01*
X93134949Y-67726814D01*
X93121267Y-67731021D01*
X93100748Y-67734133D01*
X93070768Y-67736313D01*
X93028704Y-67737724D01*
X92971932Y-67738529D01*
X92897830Y-67738893D01*
X92803773Y-67738978D01*
X92482227Y-67738978D01*
X92460647Y-67712327D01*
X92445877Y-67688614D01*
X92439067Y-67665600D01*
X92444949Y-67644594D01*
X92460647Y-67618873D01*
X92482227Y-67592222D01*
X93129684Y-67592222D01*
X93151264Y-67618873D01*
G36*
X92521915Y-66204772D02*
G01*
X92556481Y-66217636D01*
X92604826Y-66237395D01*
X92663825Y-66262619D01*
X92730355Y-66291881D01*
X92801291Y-66323750D01*
X92873507Y-66356799D01*
X92943880Y-66389599D01*
X93009285Y-66420720D01*
X93066597Y-66448735D01*
X93112692Y-66472214D01*
X93144446Y-66489728D01*
X93158733Y-66499849D01*
X93172102Y-66534257D01*
X93165741Y-66575954D01*
X93161044Y-66581319D01*
X93138893Y-66597148D01*
X93102132Y-66619350D01*
X93054415Y-66645767D01*
X92999393Y-66674240D01*
X92840150Y-66754014D01*
X92986742Y-66827201D01*
X93006032Y-66836897D01*
X93058380Y-66863875D01*
X93103170Y-66887904D01*
X93136154Y-66906668D01*
X93153089Y-66917854D01*
X93154332Y-66919000D01*
X93169619Y-66947121D01*
X93171302Y-66982183D01*
X93158733Y-67013224D01*
X93155884Y-67015650D01*
X93135259Y-67027910D01*
X93097708Y-67047648D01*
X93045880Y-67073552D01*
X92982423Y-67104315D01*
X92909985Y-67138625D01*
X92831216Y-67175175D01*
X92787093Y-67195415D01*
X92706365Y-67232188D01*
X92642687Y-67260645D01*
X92593752Y-67281669D01*
X92557257Y-67296146D01*
X92530895Y-67304961D01*
X92512361Y-67308996D01*
X92499352Y-67309138D01*
X92489561Y-67306270D01*
X92468678Y-67291613D01*
X92448377Y-67265010D01*
X92448035Y-67264255D01*
X92441034Y-67244665D01*
X92440504Y-67227210D01*
X92448478Y-67210298D01*
X92466989Y-67192337D01*
X92498071Y-67171737D01*
X92543756Y-67146905D01*
X92606078Y-67116250D01*
X92687071Y-67078180D01*
X92718454Y-67063546D01*
X92781638Y-67033797D01*
X92836244Y-67007703D01*
X92879290Y-66986708D01*
X92907793Y-66972261D01*
X92918770Y-66965809D01*
X92918189Y-66964450D01*
X92904242Y-66954458D01*
X92874704Y-66937167D01*
X92833087Y-66914570D01*
X92782903Y-66888662D01*
X92751414Y-66872689D01*
X92696061Y-66843739D01*
X92657044Y-66821251D01*
X92631566Y-66803035D01*
X92616831Y-66786904D01*
X92610042Y-66770670D01*
X92608400Y-66752143D01*
X92608875Y-66741640D01*
X92613082Y-66725524D01*
X92623946Y-66710210D01*
X92644219Y-66693612D01*
X92676654Y-66673643D01*
X92724004Y-66648217D01*
X92789022Y-66615248D01*
X92808277Y-66605515D01*
X92854946Y-66581057D01*
X92891109Y-66560822D01*
X92913497Y-66546689D01*
X92918845Y-66540540D01*
X92915573Y-66539173D01*
X92894664Y-66529798D01*
X92857725Y-66512938D01*
X92807874Y-66490021D01*
X92748226Y-66462480D01*
X92681898Y-66431745D01*
X92624677Y-66405030D01*
X92562688Y-66375407D01*
X92516949Y-66352336D01*
X92484908Y-66334357D01*
X92464014Y-66320010D01*
X92451718Y-66307834D01*
X92445466Y-66296368D01*
X92442574Y-66286958D01*
X92442425Y-66261853D01*
X92457768Y-66234710D01*
X92458753Y-66233410D01*
X92481388Y-66211326D01*
X92503613Y-66200277D01*
X92504253Y-66200231D01*
X92521915Y-66204772D01*
G37*
X92521915Y-66204772D02*
X92556481Y-66217636D01*
X92604826Y-66237395D01*
X92663825Y-66262619D01*
X92730355Y-66291881D01*
X92801291Y-66323750D01*
X92873507Y-66356799D01*
X92943880Y-66389599D01*
X93009285Y-66420720D01*
X93066597Y-66448735D01*
X93112692Y-66472214D01*
X93144446Y-66489728D01*
X93158733Y-66499849D01*
X93172102Y-66534257D01*
X93165741Y-66575954D01*
X93161044Y-66581319D01*
X93138893Y-66597148D01*
X93102132Y-66619350D01*
X93054415Y-66645767D01*
X92999393Y-66674240D01*
X92840150Y-66754014D01*
X92986742Y-66827201D01*
X93006032Y-66836897D01*
X93058380Y-66863875D01*
X93103170Y-66887904D01*
X93136154Y-66906668D01*
X93153089Y-66917854D01*
X93154332Y-66919000D01*
X93169619Y-66947121D01*
X93171302Y-66982183D01*
X93158733Y-67013224D01*
X93155884Y-67015650D01*
X93135259Y-67027910D01*
X93097708Y-67047648D01*
X93045880Y-67073552D01*
X92982423Y-67104315D01*
X92909985Y-67138625D01*
X92831216Y-67175175D01*
X92787093Y-67195415D01*
X92706365Y-67232188D01*
X92642687Y-67260645D01*
X92593752Y-67281669D01*
X92557257Y-67296146D01*
X92530895Y-67304961D01*
X92512361Y-67308996D01*
X92499352Y-67309138D01*
X92489561Y-67306270D01*
X92468678Y-67291613D01*
X92448377Y-67265010D01*
X92448035Y-67264255D01*
X92441034Y-67244665D01*
X92440504Y-67227210D01*
X92448478Y-67210298D01*
X92466989Y-67192337D01*
X92498071Y-67171737D01*
X92543756Y-67146905D01*
X92606078Y-67116250D01*
X92687071Y-67078180D01*
X92718454Y-67063546D01*
X92781638Y-67033797D01*
X92836244Y-67007703D01*
X92879290Y-66986708D01*
X92907793Y-66972261D01*
X92918770Y-66965809D01*
X92918189Y-66964450D01*
X92904242Y-66954458D01*
X92874704Y-66937167D01*
X92833087Y-66914570D01*
X92782903Y-66888662D01*
X92751414Y-66872689D01*
X92696061Y-66843739D01*
X92657044Y-66821251D01*
X92631566Y-66803035D01*
X92616831Y-66786904D01*
X92610042Y-66770670D01*
X92608400Y-66752143D01*
X92608875Y-66741640D01*
X92613082Y-66725524D01*
X92623946Y-66710210D01*
X92644219Y-66693612D01*
X92676654Y-66673643D01*
X92724004Y-66648217D01*
X92789022Y-66615248D01*
X92808277Y-66605515D01*
X92854946Y-66581057D01*
X92891109Y-66560822D01*
X92913497Y-66546689D01*
X92918845Y-66540540D01*
X92915573Y-66539173D01*
X92894664Y-66529798D01*
X92857725Y-66512938D01*
X92807874Y-66490021D01*
X92748226Y-66462480D01*
X92681898Y-66431745D01*
X92624677Y-66405030D01*
X92562688Y-66375407D01*
X92516949Y-66352336D01*
X92484908Y-66334357D01*
X92464014Y-66320010D01*
X92451718Y-66307834D01*
X92445466Y-66296368D01*
X92442574Y-66286958D01*
X92442425Y-66261853D01*
X92457768Y-66234710D01*
X92458753Y-66233410D01*
X92481388Y-66211326D01*
X92503613Y-66200277D01*
X92504253Y-66200231D01*
X92521915Y-66204772D01*
G36*
X92865526Y-64312825D02*
G01*
X92944311Y-64313050D01*
X93005021Y-64313668D01*
X93026089Y-64314225D01*
X93050396Y-64314867D01*
X93083175Y-64316837D01*
X93106095Y-64319765D01*
X93121897Y-64323842D01*
X93133319Y-64329257D01*
X93143100Y-64336197D01*
X93172845Y-64359594D01*
X93172251Y-64525286D01*
X93171953Y-64560082D01*
X93168522Y-64658565D01*
X93160839Y-64739527D01*
X93148282Y-64806621D01*
X93130227Y-64863504D01*
X93106052Y-64913831D01*
X93104135Y-64917190D01*
X93067417Y-64975002D01*
X93030451Y-65017356D01*
X92986966Y-65050172D01*
X92930689Y-65079372D01*
X92921073Y-65083654D01*
X92857887Y-65106231D01*
X92802509Y-65113203D01*
X92747483Y-65104601D01*
X92685351Y-65080459D01*
X92683658Y-65079663D01*
X92614236Y-65039212D01*
X92557638Y-64988527D01*
X92513070Y-64925802D01*
X92479741Y-64849226D01*
X92456861Y-64756991D01*
X92443636Y-64647288D01*
X92439275Y-64518309D01*
X92439270Y-64514737D01*
X92439372Y-64470844D01*
X92585822Y-64470844D01*
X92586270Y-64558333D01*
X92588746Y-64625253D01*
X92599998Y-64717651D01*
X92619537Y-64796966D01*
X92646511Y-64858940D01*
X92667240Y-64889880D01*
X92697006Y-64918000D01*
X92739434Y-64941340D01*
X92755400Y-64948467D01*
X92787902Y-64960291D01*
X92812333Y-64962721D01*
X92837061Y-64957108D01*
X92852939Y-64951382D01*
X92912847Y-64918452D01*
X92958600Y-64871114D01*
X92991736Y-64807348D01*
X93013790Y-64725139D01*
X93014292Y-64722345D01*
X93020255Y-64676060D01*
X93024483Y-64619664D01*
X93026089Y-64564726D01*
X93026089Y-64470844D01*
X92585822Y-64470844D01*
X92439372Y-64470844D01*
X92439410Y-64454717D01*
X92440446Y-64412786D01*
X92443040Y-64384672D01*
X92447853Y-64366103D01*
X92455544Y-64352806D01*
X92466776Y-64340509D01*
X92494485Y-64312800D01*
X92803920Y-64312800D01*
X92865526Y-64312825D01*
G37*
X92865526Y-64312825D02*
X92944311Y-64313050D01*
X93005021Y-64313668D01*
X93026089Y-64314225D01*
X93050396Y-64314867D01*
X93083175Y-64316837D01*
X93106095Y-64319765D01*
X93121897Y-64323842D01*
X93133319Y-64329257D01*
X93143100Y-64336197D01*
X93172845Y-64359594D01*
X93172251Y-64525286D01*
X93171953Y-64560082D01*
X93168522Y-64658565D01*
X93160839Y-64739527D01*
X93148282Y-64806621D01*
X93130227Y-64863504D01*
X93106052Y-64913831D01*
X93104135Y-64917190D01*
X93067417Y-64975002D01*
X93030451Y-65017356D01*
X92986966Y-65050172D01*
X92930689Y-65079372D01*
X92921073Y-65083654D01*
X92857887Y-65106231D01*
X92802509Y-65113203D01*
X92747483Y-65104601D01*
X92685351Y-65080459D01*
X92683658Y-65079663D01*
X92614236Y-65039212D01*
X92557638Y-64988527D01*
X92513070Y-64925802D01*
X92479741Y-64849226D01*
X92456861Y-64756991D01*
X92443636Y-64647288D01*
X92439275Y-64518309D01*
X92439270Y-64514737D01*
X92439372Y-64470844D01*
X92585822Y-64470844D01*
X92586270Y-64558333D01*
X92588746Y-64625253D01*
X92599998Y-64717651D01*
X92619537Y-64796966D01*
X92646511Y-64858940D01*
X92667240Y-64889880D01*
X92697006Y-64918000D01*
X92739434Y-64941340D01*
X92755400Y-64948467D01*
X92787902Y-64960291D01*
X92812333Y-64962721D01*
X92837061Y-64957108D01*
X92852939Y-64951382D01*
X92912847Y-64918452D01*
X92958600Y-64871114D01*
X92991736Y-64807348D01*
X93013790Y-64725139D01*
X93014292Y-64722345D01*
X93020255Y-64676060D01*
X93024483Y-64619664D01*
X93026089Y-64564726D01*
X93026089Y-64470844D01*
X92585822Y-64470844D01*
X92439372Y-64470844D01*
X92439410Y-64454717D01*
X92440446Y-64412786D01*
X92443040Y-64384672D01*
X92447853Y-64366103D01*
X92455544Y-64352806D01*
X92466776Y-64340509D01*
X92494485Y-64312800D01*
X92803920Y-64312800D01*
X92865526Y-64312825D01*
G36*
X90847363Y-64772739D02*
G01*
X90922202Y-64776368D01*
X90984401Y-64783978D01*
X91040984Y-64796312D01*
X91167076Y-64840687D01*
X91281679Y-64903600D01*
X91382568Y-64983762D01*
X91468924Y-65080260D01*
X91539932Y-65192178D01*
X91594776Y-65318603D01*
X91632638Y-65458622D01*
X91638351Y-65494851D01*
X91644313Y-65573845D01*
X91644646Y-65662159D01*
X91639659Y-65751925D01*
X91629666Y-65835278D01*
X91614978Y-65904349D01*
X91584749Y-65990813D01*
X91530057Y-66100714D01*
X91462543Y-66198044D01*
X91411556Y-66260133D01*
X91507622Y-66263395D01*
X91603689Y-66266657D01*
X91603689Y-66689550D01*
X91603686Y-66700457D01*
X91603380Y-66794944D01*
X91602616Y-66881669D01*
X91601451Y-66958163D01*
X91599942Y-67021957D01*
X91598147Y-67070582D01*
X91596121Y-67101567D01*
X91593922Y-67112444D01*
X91593463Y-67112422D01*
X91577910Y-67105386D01*
X91555071Y-67089566D01*
X91549638Y-67085266D01*
X91535606Y-67074223D01*
X91522186Y-67064689D01*
X91507722Y-67056539D01*
X91490556Y-67049648D01*
X91469034Y-67043889D01*
X91441498Y-67039138D01*
X91406292Y-67035269D01*
X91361760Y-67032156D01*
X91306246Y-67029675D01*
X91238093Y-67027700D01*
X91155645Y-67026106D01*
X91057246Y-67024766D01*
X90941239Y-67023556D01*
X90805968Y-67022351D01*
X90649778Y-67021025D01*
X90507012Y-67019772D01*
X90361942Y-67018349D01*
X90236027Y-67016824D01*
X90127436Y-67015067D01*
X90034334Y-67012949D01*
X89954891Y-67010340D01*
X89887273Y-67007110D01*
X89829649Y-67003131D01*
X89780185Y-66998272D01*
X89737050Y-66992403D01*
X89698410Y-66985396D01*
X89662434Y-66977120D01*
X89627289Y-66967446D01*
X89591142Y-66956244D01*
X89552161Y-66943384D01*
X89509091Y-66927910D01*
X89416871Y-66885006D01*
X89337099Y-66831265D01*
X89262965Y-66762424D01*
X89199405Y-66684815D01*
X89137725Y-66580239D01*
X89090202Y-66460756D01*
X89056567Y-66325492D01*
X89036552Y-66173574D01*
X89029889Y-66004128D01*
X89030287Y-65946110D01*
X89032335Y-65880602D01*
X89036704Y-65819307D01*
X89044035Y-65757903D01*
X89054969Y-65692068D01*
X89070147Y-65617480D01*
X89090209Y-65529816D01*
X89115797Y-65424755D01*
X89122820Y-65396194D01*
X89140776Y-65320946D01*
X89156820Y-65250612D01*
X89170028Y-65189433D01*
X89179474Y-65141646D01*
X89184231Y-65111489D01*
X89187910Y-65083217D01*
X89193187Y-65056940D01*
X89197942Y-65046941D01*
X89206781Y-65050048D01*
X89234072Y-65060806D01*
X89276906Y-65078136D01*
X89332425Y-65100874D01*
X89397772Y-65127853D01*
X89470089Y-65157910D01*
X89485879Y-65164507D01*
X89576484Y-65203093D01*
X89646217Y-65234232D01*
X89695405Y-65258083D01*
X89724374Y-65274802D01*
X89733452Y-65284546D01*
X89731405Y-65292234D01*
X89721760Y-65318585D01*
X89706190Y-65357018D01*
X89686815Y-65402178D01*
X89648814Y-65496707D01*
X89607780Y-65633520D01*
X89582612Y-65774711D01*
X89578611Y-65812686D01*
X89576447Y-65915941D01*
X89589622Y-66003048D01*
X89618756Y-66074871D01*
X89664466Y-66132269D01*
X89727372Y-66176104D01*
X89808092Y-66207238D01*
X89907245Y-66226530D01*
X89966224Y-66233950D01*
X89959445Y-66072064D01*
X89959110Y-66046106D01*
X90481842Y-66046106D01*
X90481857Y-66054993D01*
X90482655Y-66110340D01*
X90484488Y-66157264D01*
X90487111Y-66191047D01*
X90490274Y-66206972D01*
X90496741Y-66211057D01*
X90518875Y-66215428D01*
X90557988Y-66218396D01*
X90615939Y-66220086D01*
X90694586Y-66220622D01*
X90890462Y-66220622D01*
X90946973Y-66175952D01*
X90962212Y-66163215D01*
X91004844Y-66116396D01*
X91040672Y-66055745D01*
X91045850Y-66045103D01*
X91062745Y-66006324D01*
X91072909Y-65971308D01*
X91078325Y-65931278D01*
X91080978Y-65877459D01*
X91081383Y-65859352D01*
X91078540Y-65783989D01*
X91066620Y-65723257D01*
X91044037Y-65671548D01*
X91009211Y-65623254D01*
X91004798Y-65618197D01*
X90949160Y-65569728D01*
X90885333Y-65541541D01*
X90810282Y-65532248D01*
X90738693Y-65539480D01*
X90675645Y-65564204D01*
X90617758Y-65608751D01*
X90570808Y-65663681D01*
X90530961Y-65736106D01*
X90503263Y-65822660D01*
X90487096Y-65925330D01*
X90481842Y-66046106D01*
X89959110Y-66046106D01*
X89957813Y-65945505D01*
X89964194Y-65794049D01*
X89978777Y-65645604D01*
X90000882Y-65509422D01*
X90015821Y-65444755D01*
X90058741Y-65312510D01*
X90115340Y-65190238D01*
X90184017Y-65080315D01*
X90263170Y-64985117D01*
X90351196Y-64907020D01*
X90446493Y-64848401D01*
X90498864Y-64824405D01*
X90569590Y-64798768D01*
X90640812Y-64782522D01*
X90719712Y-64774178D01*
X90810282Y-64772310D01*
X90813467Y-64772245D01*
X90847363Y-64772739D01*
G37*
X90847363Y-64772739D02*
X90922202Y-64776368D01*
X90984401Y-64783978D01*
X91040984Y-64796312D01*
X91167076Y-64840687D01*
X91281679Y-64903600D01*
X91382568Y-64983762D01*
X91468924Y-65080260D01*
X91539932Y-65192178D01*
X91594776Y-65318603D01*
X91632638Y-65458622D01*
X91638351Y-65494851D01*
X91644313Y-65573845D01*
X91644646Y-65662159D01*
X91639659Y-65751925D01*
X91629666Y-65835278D01*
X91614978Y-65904349D01*
X91584749Y-65990813D01*
X91530057Y-66100714D01*
X91462543Y-66198044D01*
X91411556Y-66260133D01*
X91507622Y-66263395D01*
X91603689Y-66266657D01*
X91603689Y-66689550D01*
X91603686Y-66700457D01*
X91603380Y-66794944D01*
X91602616Y-66881669D01*
X91601451Y-66958163D01*
X91599942Y-67021957D01*
X91598147Y-67070582D01*
X91596121Y-67101567D01*
X91593922Y-67112444D01*
X91593463Y-67112422D01*
X91577910Y-67105386D01*
X91555071Y-67089566D01*
X91549638Y-67085266D01*
X91535606Y-67074223D01*
X91522186Y-67064689D01*
X91507722Y-67056539D01*
X91490556Y-67049648D01*
X91469034Y-67043889D01*
X91441498Y-67039138D01*
X91406292Y-67035269D01*
X91361760Y-67032156D01*
X91306246Y-67029675D01*
X91238093Y-67027700D01*
X91155645Y-67026106D01*
X91057246Y-67024766D01*
X90941239Y-67023556D01*
X90805968Y-67022351D01*
X90649778Y-67021025D01*
X90507012Y-67019772D01*
X90361942Y-67018349D01*
X90236027Y-67016824D01*
X90127436Y-67015067D01*
X90034334Y-67012949D01*
X89954891Y-67010340D01*
X89887273Y-67007110D01*
X89829649Y-67003131D01*
X89780185Y-66998272D01*
X89737050Y-66992403D01*
X89698410Y-66985396D01*
X89662434Y-66977120D01*
X89627289Y-66967446D01*
X89591142Y-66956244D01*
X89552161Y-66943384D01*
X89509091Y-66927910D01*
X89416871Y-66885006D01*
X89337099Y-66831265D01*
X89262965Y-66762424D01*
X89199405Y-66684815D01*
X89137725Y-66580239D01*
X89090202Y-66460756D01*
X89056567Y-66325492D01*
X89036552Y-66173574D01*
X89029889Y-66004128D01*
X89030287Y-65946110D01*
X89032335Y-65880602D01*
X89036704Y-65819307D01*
X89044035Y-65757903D01*
X89054969Y-65692068D01*
X89070147Y-65617480D01*
X89090209Y-65529816D01*
X89115797Y-65424755D01*
X89122820Y-65396194D01*
X89140776Y-65320946D01*
X89156820Y-65250612D01*
X89170028Y-65189433D01*
X89179474Y-65141646D01*
X89184231Y-65111489D01*
X89187910Y-65083217D01*
X89193187Y-65056940D01*
X89197942Y-65046941D01*
X89206781Y-65050048D01*
X89234072Y-65060806D01*
X89276906Y-65078136D01*
X89332425Y-65100874D01*
X89397772Y-65127853D01*
X89470089Y-65157910D01*
X89485879Y-65164507D01*
X89576484Y-65203093D01*
X89646217Y-65234232D01*
X89695405Y-65258083D01*
X89724374Y-65274802D01*
X89733452Y-65284546D01*
X89731405Y-65292234D01*
X89721760Y-65318585D01*
X89706190Y-65357018D01*
X89686815Y-65402178D01*
X89648814Y-65496707D01*
X89607780Y-65633520D01*
X89582612Y-65774711D01*
X89578611Y-65812686D01*
X89576447Y-65915941D01*
X89589622Y-66003048D01*
X89618756Y-66074871D01*
X89664466Y-66132269D01*
X89727372Y-66176104D01*
X89808092Y-66207238D01*
X89907245Y-66226530D01*
X89966224Y-66233950D01*
X89959445Y-66072064D01*
X89959110Y-66046106D01*
X90481842Y-66046106D01*
X90481857Y-66054993D01*
X90482655Y-66110340D01*
X90484488Y-66157264D01*
X90487111Y-66191047D01*
X90490274Y-66206972D01*
X90496741Y-66211057D01*
X90518875Y-66215428D01*
X90557988Y-66218396D01*
X90615939Y-66220086D01*
X90694586Y-66220622D01*
X90890462Y-66220622D01*
X90946973Y-66175952D01*
X90962212Y-66163215D01*
X91004844Y-66116396D01*
X91040672Y-66055745D01*
X91045850Y-66045103D01*
X91062745Y-66006324D01*
X91072909Y-65971308D01*
X91078325Y-65931278D01*
X91080978Y-65877459D01*
X91081383Y-65859352D01*
X91078540Y-65783989D01*
X91066620Y-65723257D01*
X91044037Y-65671548D01*
X91009211Y-65623254D01*
X91004798Y-65618197D01*
X90949160Y-65569728D01*
X90885333Y-65541541D01*
X90810282Y-65532248D01*
X90738693Y-65539480D01*
X90675645Y-65564204D01*
X90617758Y-65608751D01*
X90570808Y-65663681D01*
X90530961Y-65736106D01*
X90503263Y-65822660D01*
X90487096Y-65925330D01*
X90481842Y-66046106D01*
X89959110Y-66046106D01*
X89957813Y-65945505D01*
X89964194Y-65794049D01*
X89978777Y-65645604D01*
X90000882Y-65509422D01*
X90015821Y-65444755D01*
X90058741Y-65312510D01*
X90115340Y-65190238D01*
X90184017Y-65080315D01*
X90263170Y-64985117D01*
X90351196Y-64907020D01*
X90446493Y-64848401D01*
X90498864Y-64824405D01*
X90569590Y-64798768D01*
X90640812Y-64782522D01*
X90719712Y-64774178D01*
X90810282Y-64772310D01*
X90813467Y-64772245D01*
X90847363Y-64772739D01*
G36*
X92864486Y-62111489D02*
G01*
X92943573Y-62111708D01*
X93004516Y-62112317D01*
X93050062Y-62113508D01*
X93082963Y-62115471D01*
X93105968Y-62118397D01*
X93121826Y-62122477D01*
X93133286Y-62127903D01*
X93143100Y-62134864D01*
X93167493Y-62165292D01*
X93170372Y-62200235D01*
X93151282Y-62237216D01*
X93147807Y-62241400D01*
X93139279Y-62249576D01*
X93127728Y-62255636D01*
X93109896Y-62260019D01*
X93082524Y-62263161D01*
X93042354Y-62265498D01*
X92986128Y-62267469D01*
X92910589Y-62269511D01*
X92691458Y-62275155D01*
X92932099Y-62540444D01*
X92998875Y-62614278D01*
X93056991Y-62679458D01*
X93101949Y-62731652D01*
X93134871Y-62772727D01*
X93156879Y-62804545D01*
X93169094Y-62828974D01*
X93172639Y-62847876D01*
X93168636Y-62863117D01*
X93158207Y-62876561D01*
X93142474Y-62890073D01*
X93133991Y-62896318D01*
X93123413Y-62901950D01*
X93109255Y-62906161D01*
X93088803Y-62909113D01*
X93059342Y-62910968D01*
X93018161Y-62911887D01*
X92962544Y-62912032D01*
X92889779Y-62911565D01*
X92797151Y-62910648D01*
X92482199Y-62907333D01*
X92460633Y-62880682D01*
X92444441Y-62854617D01*
X92441670Y-62821759D01*
X92460623Y-62787228D01*
X92464208Y-62782916D01*
X92472737Y-62774784D01*
X92484329Y-62768755D01*
X92502235Y-62764394D01*
X92529706Y-62761266D01*
X92569994Y-62758937D01*
X92626351Y-62756971D01*
X92702029Y-62754933D01*
X92921878Y-62749289D01*
X92758084Y-62568666D01*
X92679451Y-62481928D01*
X92611058Y-62406157D01*
X92555708Y-62344020D01*
X92512338Y-62293922D01*
X92479881Y-62254265D01*
X92457273Y-62223452D01*
X92443448Y-62199886D01*
X92437343Y-62181970D01*
X92437892Y-62168107D01*
X92444029Y-62156699D01*
X92454691Y-62146150D01*
X92468811Y-62134864D01*
X92474772Y-62130411D01*
X92485268Y-62124412D01*
X92499093Y-62119833D01*
X92518998Y-62116481D01*
X92547732Y-62114167D01*
X92588045Y-62112699D01*
X92642687Y-62111887D01*
X92714407Y-62111540D01*
X92805956Y-62111466D01*
X92864486Y-62111489D01*
G37*
X92864486Y-62111489D02*
X92943573Y-62111708D01*
X93004516Y-62112317D01*
X93050062Y-62113508D01*
X93082963Y-62115471D01*
X93105968Y-62118397D01*
X93121826Y-62122477D01*
X93133286Y-62127903D01*
X93143100Y-62134864D01*
X93167493Y-62165292D01*
X93170372Y-62200235D01*
X93151282Y-62237216D01*
X93147807Y-62241400D01*
X93139279Y-62249576D01*
X93127728Y-62255636D01*
X93109896Y-62260019D01*
X93082524Y-62263161D01*
X93042354Y-62265498D01*
X92986128Y-62267469D01*
X92910589Y-62269511D01*
X92691458Y-62275155D01*
X92932099Y-62540444D01*
X92998875Y-62614278D01*
X93056991Y-62679458D01*
X93101949Y-62731652D01*
X93134871Y-62772727D01*
X93156879Y-62804545D01*
X93169094Y-62828974D01*
X93172639Y-62847876D01*
X93168636Y-62863117D01*
X93158207Y-62876561D01*
X93142474Y-62890073D01*
X93133991Y-62896318D01*
X93123413Y-62901950D01*
X93109255Y-62906161D01*
X93088803Y-62909113D01*
X93059342Y-62910968D01*
X93018161Y-62911887D01*
X92962544Y-62912032D01*
X92889779Y-62911565D01*
X92797151Y-62910648D01*
X92482199Y-62907333D01*
X92460633Y-62880682D01*
X92444441Y-62854617D01*
X92441670Y-62821759D01*
X92460623Y-62787228D01*
X92464208Y-62782916D01*
X92472737Y-62774784D01*
X92484329Y-62768755D01*
X92502235Y-62764394D01*
X92529706Y-62761266D01*
X92569994Y-62758937D01*
X92626351Y-62756971D01*
X92702029Y-62754933D01*
X92921878Y-62749289D01*
X92758084Y-62568666D01*
X92679451Y-62481928D01*
X92611058Y-62406157D01*
X92555708Y-62344020D01*
X92512338Y-62293922D01*
X92479881Y-62254265D01*
X92457273Y-62223452D01*
X92443448Y-62199886D01*
X92437343Y-62181970D01*
X92437892Y-62168107D01*
X92444029Y-62156699D01*
X92454691Y-62146150D01*
X92468811Y-62134864D01*
X92474772Y-62130411D01*
X92485268Y-62124412D01*
X92499093Y-62119833D01*
X92518998Y-62116481D01*
X92547732Y-62114167D01*
X92588045Y-62112699D01*
X92642687Y-62111887D01*
X92714407Y-62111540D01*
X92805956Y-62111466D01*
X92864486Y-62111489D01*
G36*
X92824259Y-60927702D02*
G01*
X92875592Y-60940643D01*
X92932118Y-60963806D01*
X92986035Y-60993698D01*
X93029539Y-61026827D01*
X93039887Y-61037023D01*
X93091662Y-61104108D01*
X93131554Y-61184234D01*
X93155956Y-61270444D01*
X93164068Y-61325408D01*
X93170673Y-61418861D01*
X93168586Y-61508642D01*
X93158340Y-61591131D01*
X93140470Y-61662714D01*
X93115508Y-61719772D01*
X93083988Y-61758689D01*
X93082012Y-61760064D01*
X93056786Y-61767152D01*
X93009535Y-61771391D01*
X92940071Y-61772800D01*
X92877838Y-61771940D01*
X92830456Y-61767220D01*
X92798353Y-61755530D01*
X92778800Y-61733761D01*
X92769070Y-61698802D01*
X92766433Y-61647544D01*
X92768161Y-61576877D01*
X92771173Y-61528257D01*
X92779366Y-61478061D01*
X92793419Y-61445567D01*
X92814654Y-61428108D01*
X92844394Y-61423017D01*
X92848936Y-61423123D01*
X92883730Y-61431825D01*
X92907147Y-61455835D01*
X92920347Y-61497100D01*
X92924489Y-61557569D01*
X92924489Y-61626044D01*
X92962841Y-61626044D01*
X92971976Y-61625994D01*
X92989227Y-61623773D01*
X92999521Y-61614506D01*
X93006459Y-61593125D01*
X93013641Y-61554564D01*
X93014575Y-61549090D01*
X93024478Y-61452140D01*
X93021559Y-61362148D01*
X93006829Y-61281240D01*
X92981299Y-61211541D01*
X92945978Y-61155176D01*
X92901879Y-61114271D01*
X92850012Y-61090949D01*
X92791388Y-61087337D01*
X92762494Y-61092855D01*
X92706604Y-61119539D01*
X92660945Y-61165727D01*
X92626108Y-61230709D01*
X92602690Y-61313771D01*
X92598241Y-61338445D01*
X92587742Y-61427774D01*
X92588971Y-61507581D01*
X92601906Y-61585674D01*
X92608696Y-61620817D01*
X92609713Y-61666255D01*
X92597182Y-61697570D01*
X92570395Y-61717723D01*
X92542148Y-61724107D01*
X92510924Y-61714621D01*
X92497499Y-61705292D01*
X92473967Y-61671057D01*
X92456095Y-61618435D01*
X92444599Y-61549919D01*
X92440192Y-61468000D01*
X92444179Y-61370850D01*
X92460494Y-61264843D01*
X92488545Y-61171031D01*
X92527452Y-61092235D01*
X92576334Y-61031281D01*
X92609195Y-61005211D01*
X92658394Y-60975703D01*
X92712252Y-60950432D01*
X92763419Y-60932782D01*
X92804544Y-60926142D01*
X92824259Y-60927702D01*
G37*
X92824259Y-60927702D02*
X92875592Y-60940643D01*
X92932118Y-60963806D01*
X92986035Y-60993698D01*
X93029539Y-61026827D01*
X93039887Y-61037023D01*
X93091662Y-61104108D01*
X93131554Y-61184234D01*
X93155956Y-61270444D01*
X93164068Y-61325408D01*
X93170673Y-61418861D01*
X93168586Y-61508642D01*
X93158340Y-61591131D01*
X93140470Y-61662714D01*
X93115508Y-61719772D01*
X93083988Y-61758689D01*
X93082012Y-61760064D01*
X93056786Y-61767152D01*
X93009535Y-61771391D01*
X92940071Y-61772800D01*
X92877838Y-61771940D01*
X92830456Y-61767220D01*
X92798353Y-61755530D01*
X92778800Y-61733761D01*
X92769070Y-61698802D01*
X92766433Y-61647544D01*
X92768161Y-61576877D01*
X92771173Y-61528257D01*
X92779366Y-61478061D01*
X92793419Y-61445567D01*
X92814654Y-61428108D01*
X92844394Y-61423017D01*
X92848936Y-61423123D01*
X92883730Y-61431825D01*
X92907147Y-61455835D01*
X92920347Y-61497100D01*
X92924489Y-61557569D01*
X92924489Y-61626044D01*
X92962841Y-61626044D01*
X92971976Y-61625994D01*
X92989227Y-61623773D01*
X92999521Y-61614506D01*
X93006459Y-61593125D01*
X93013641Y-61554564D01*
X93014575Y-61549090D01*
X93024478Y-61452140D01*
X93021559Y-61362148D01*
X93006829Y-61281240D01*
X92981299Y-61211541D01*
X92945978Y-61155176D01*
X92901879Y-61114271D01*
X92850012Y-61090949D01*
X92791388Y-61087337D01*
X92762494Y-61092855D01*
X92706604Y-61119539D01*
X92660945Y-61165727D01*
X92626108Y-61230709D01*
X92602690Y-61313771D01*
X92598241Y-61338445D01*
X92587742Y-61427774D01*
X92588971Y-61507581D01*
X92601906Y-61585674D01*
X92608696Y-61620817D01*
X92609713Y-61666255D01*
X92597182Y-61697570D01*
X92570395Y-61717723D01*
X92542148Y-61724107D01*
X92510924Y-61714621D01*
X92497499Y-61705292D01*
X92473967Y-61671057D01*
X92456095Y-61618435D01*
X92444599Y-61549919D01*
X92440192Y-61468000D01*
X92444179Y-61370850D01*
X92460494Y-61264843D01*
X92488545Y-61171031D01*
X92527452Y-61092235D01*
X92576334Y-61031281D01*
X92609195Y-61005211D01*
X92658394Y-60975703D01*
X92712252Y-60950432D01*
X92763419Y-60932782D01*
X92804544Y-60926142D01*
X92824259Y-60927702D01*
G36*
X92891567Y-60452041D02*
G01*
X92965789Y-60452299D01*
X93022541Y-60452970D01*
X93064512Y-60454248D01*
X93094389Y-60456327D01*
X93114861Y-60459401D01*
X93128614Y-60463666D01*
X93138337Y-60469316D01*
X93146717Y-60476545D01*
X93168181Y-60508009D01*
X93169947Y-60543174D01*
X93150267Y-60576178D01*
X93144398Y-60581484D01*
X93135314Y-60586934D01*
X93121973Y-60591100D01*
X93101757Y-60594154D01*
X93072049Y-60596268D01*
X93030232Y-60597614D01*
X92973689Y-60598362D01*
X92899802Y-60598686D01*
X92805956Y-60598755D01*
X92730294Y-60598716D01*
X92652385Y-60598461D01*
X92592375Y-60597817D01*
X92547648Y-60596613D01*
X92515585Y-60594676D01*
X92493571Y-60591836D01*
X92478987Y-60587921D01*
X92469218Y-60582758D01*
X92461645Y-60576178D01*
X92442623Y-60546994D01*
X92443463Y-60513863D01*
X92466776Y-60479709D01*
X92494485Y-60452000D01*
X92807537Y-60452000D01*
X92891567Y-60452041D01*
G37*
X92891567Y-60452041D02*
X92965789Y-60452299D01*
X93022541Y-60452970D01*
X93064512Y-60454248D01*
X93094389Y-60456327D01*
X93114861Y-60459401D01*
X93128614Y-60463666D01*
X93138337Y-60469316D01*
X93146717Y-60476545D01*
X93168181Y-60508009D01*
X93169947Y-60543174D01*
X93150267Y-60576178D01*
X93144398Y-60581484D01*
X93135314Y-60586934D01*
X93121973Y-60591100D01*
X93101757Y-60594154D01*
X93072049Y-60596268D01*
X93030232Y-60597614D01*
X92973689Y-60598362D01*
X92899802Y-60598686D01*
X92805956Y-60598755D01*
X92730294Y-60598716D01*
X92652385Y-60598461D01*
X92592375Y-60597817D01*
X92547648Y-60596613D01*
X92515585Y-60594676D01*
X92493571Y-60591836D01*
X92478987Y-60587921D01*
X92469218Y-60582758D01*
X92461645Y-60576178D01*
X92442623Y-60546994D01*
X92443463Y-60513863D01*
X92466776Y-60479709D01*
X92494485Y-60452000D01*
X92807537Y-60452000D01*
X92891567Y-60452041D01*
G36*
X92847631Y-68996891D02*
G01*
X92964000Y-68997375D01*
X92978175Y-68997443D01*
X93039937Y-68998029D01*
X93083620Y-68999352D01*
X93113001Y-69001897D01*
X93131855Y-69006152D01*
X93143959Y-69012604D01*
X93153089Y-69021738D01*
X93170506Y-69055196D01*
X93167604Y-69090144D01*
X93143100Y-69121047D01*
X93129897Y-69130056D01*
X93111361Y-69137508D01*
X93085333Y-69141876D01*
X93046787Y-69143931D01*
X92990700Y-69144444D01*
X92868045Y-69144444D01*
X92868045Y-69641155D01*
X93002871Y-69641155D01*
X93038662Y-69641228D01*
X93084992Y-69641991D01*
X93115526Y-69644167D01*
X93134557Y-69648464D01*
X93146374Y-69655588D01*
X93155271Y-69666245D01*
X93170341Y-69698496D01*
X93167673Y-69733783D01*
X93143100Y-69764514D01*
X93136845Y-69769169D01*
X93126321Y-69775105D01*
X93112391Y-69779636D01*
X93092317Y-69782952D01*
X93063360Y-69785241D01*
X93022780Y-69786692D01*
X92967840Y-69787495D01*
X92895799Y-69787838D01*
X92803920Y-69787911D01*
X92494485Y-69787911D01*
X92466776Y-69760202D01*
X92444533Y-69728823D01*
X92441844Y-69695594D01*
X92461645Y-69663733D01*
X92471415Y-69655447D01*
X92487307Y-69648035D01*
X92511275Y-69643698D01*
X92548148Y-69641662D01*
X92602756Y-69641155D01*
X92721289Y-69641155D01*
X92721289Y-69144444D01*
X92605776Y-69144444D01*
X92554078Y-69144006D01*
X92519554Y-69142042D01*
X92496978Y-69137526D01*
X92481126Y-69129433D01*
X92466776Y-69116735D01*
X92444533Y-69085357D01*
X92441844Y-69052128D01*
X92461645Y-69020266D01*
X92467835Y-69014634D01*
X92476041Y-69009544D01*
X92487817Y-69005457D01*
X92505276Y-69002279D01*
X92530530Y-68999913D01*
X92565690Y-68998262D01*
X92612869Y-68997231D01*
X92674177Y-68996723D01*
X92751727Y-68996641D01*
X92847631Y-68996891D01*
G37*
X92847631Y-68996891D02*
X92964000Y-68997375D01*
X92978175Y-68997443D01*
X93039937Y-68998029D01*
X93083620Y-68999352D01*
X93113001Y-69001897D01*
X93131855Y-69006152D01*
X93143959Y-69012604D01*
X93153089Y-69021738D01*
X93170506Y-69055196D01*
X93167604Y-69090144D01*
X93143100Y-69121047D01*
X93129897Y-69130056D01*
X93111361Y-69137508D01*
X93085333Y-69141876D01*
X93046787Y-69143931D01*
X92990700Y-69144444D01*
X92868045Y-69144444D01*
X92868045Y-69641155D01*
X93002871Y-69641155D01*
X93038662Y-69641228D01*
X93084992Y-69641991D01*
X93115526Y-69644167D01*
X93134557Y-69648464D01*
X93146374Y-69655588D01*
X93155271Y-69666245D01*
X93170341Y-69698496D01*
X93167673Y-69733783D01*
X93143100Y-69764514D01*
X93136845Y-69769169D01*
X93126321Y-69775105D01*
X93112391Y-69779636D01*
X93092317Y-69782952D01*
X93063360Y-69785241D01*
X93022780Y-69786692D01*
X92967840Y-69787495D01*
X92895799Y-69787838D01*
X92803920Y-69787911D01*
X92494485Y-69787911D01*
X92466776Y-69760202D01*
X92444533Y-69728823D01*
X92441844Y-69695594D01*
X92461645Y-69663733D01*
X92471415Y-69655447D01*
X92487307Y-69648035D01*
X92511275Y-69643698D01*
X92548148Y-69641662D01*
X92602756Y-69641155D01*
X92721289Y-69641155D01*
X92721289Y-69144444D01*
X92605776Y-69144444D01*
X92554078Y-69144006D01*
X92519554Y-69142042D01*
X92496978Y-69137526D01*
X92481126Y-69129433D01*
X92466776Y-69116735D01*
X92444533Y-69085357D01*
X92441844Y-69052128D01*
X92461645Y-69020266D01*
X92467835Y-69014634D01*
X92476041Y-69009544D01*
X92487817Y-69005457D01*
X92505276Y-69002279D01*
X92530530Y-68999913D01*
X92565690Y-68998262D01*
X92612869Y-68997231D01*
X92674177Y-68996723D01*
X92751727Y-68996641D01*
X92847631Y-68996891D01*
G36*
X87704307Y-60695331D02*
G01*
X87745450Y-60697540D01*
X87777582Y-60703106D01*
X87808122Y-60713414D01*
X87844489Y-60729852D01*
X87871728Y-60743800D01*
X87957429Y-60802335D01*
X88026617Y-60874381D01*
X88077741Y-60958053D01*
X88109250Y-61051469D01*
X88116225Y-61084566D01*
X88123094Y-61125040D01*
X88124919Y-61158001D01*
X88121947Y-61192302D01*
X88114426Y-61236800D01*
X88102002Y-61288066D01*
X88064112Y-61378566D01*
X88009836Y-61457655D01*
X87941770Y-61523472D01*
X87862511Y-61574160D01*
X87774654Y-61607860D01*
X87680795Y-61622714D01*
X87583530Y-61616864D01*
X87487220Y-61590601D01*
X87398494Y-61545582D01*
X87323419Y-61484627D01*
X87263641Y-61409816D01*
X87220809Y-61323232D01*
X87196571Y-61226957D01*
X87192576Y-61123072D01*
X87202850Y-61045438D01*
X87230053Y-60962687D01*
X87275484Y-60887594D01*
X87341302Y-60815702D01*
X87385567Y-60777154D01*
X87443961Y-60737744D01*
X87504586Y-60712554D01*
X87573865Y-60699139D01*
X87658222Y-60695052D01*
X87704307Y-60695331D01*
G37*
X87704307Y-60695331D02*
X87745450Y-60697540D01*
X87777582Y-60703106D01*
X87808122Y-60713414D01*
X87844489Y-60729852D01*
X87871728Y-60743800D01*
X87957429Y-60802335D01*
X88026617Y-60874381D01*
X88077741Y-60958053D01*
X88109250Y-61051469D01*
X88116225Y-61084566D01*
X88123094Y-61125040D01*
X88124919Y-61158001D01*
X88121947Y-61192302D01*
X88114426Y-61236800D01*
X88102002Y-61288066D01*
X88064112Y-61378566D01*
X88009836Y-61457655D01*
X87941770Y-61523472D01*
X87862511Y-61574160D01*
X87774654Y-61607860D01*
X87680795Y-61622714D01*
X87583530Y-61616864D01*
X87487220Y-61590601D01*
X87398494Y-61545582D01*
X87323419Y-61484627D01*
X87263641Y-61409816D01*
X87220809Y-61323232D01*
X87196571Y-61226957D01*
X87192576Y-61123072D01*
X87202850Y-61045438D01*
X87230053Y-60962687D01*
X87275484Y-60887594D01*
X87341302Y-60815702D01*
X87385567Y-60777154D01*
X87443961Y-60737744D01*
X87504586Y-60712554D01*
X87573865Y-60699139D01*
X87658222Y-60695052D01*
X87704307Y-60695331D01*
G04 #@! TD*
M02*
