G04 #@! TF.GenerationSoftware,KiCad,Pcbnew,6.0.4*
G04 #@! TF.CreationDate,2022-05-06T17:46:11+10:00*
G04 #@! TF.ProjectId,modularnixie,6d6f6475-6c61-4726-9e69-7869652e6b69,rev?*
G04 #@! TF.SameCoordinates,Original*
G04 #@! TF.FileFunction,Copper,L2,Bot*
G04 #@! TF.FilePolarity,Positive*
%FSLAX46Y46*%
G04 Gerber Fmt 4.6, Leading zero omitted, Abs format (unit mm)*
G04 Created by KiCad (PCBNEW 6.0.4) date 2022-05-06 17:46:11*
%MOMM*%
%LPD*%
G01*
G04 APERTURE LIST*
G04 #@! TA.AperFunction,ComponentPad*
%ADD10C,1.600000*%
G04 #@! TD*
G04 #@! TA.AperFunction,ComponentPad*
%ADD11O,1.600000X1.600000*%
G04 #@! TD*
G04 #@! TA.AperFunction,ComponentPad*
%ADD12R,1.700000X1.700000*%
G04 #@! TD*
G04 #@! TA.AperFunction,ComponentPad*
%ADD13O,1.700000X1.700000*%
G04 #@! TD*
G04 #@! TA.AperFunction,ComponentPad*
%ADD14R,1.500000X1.500000*%
G04 #@! TD*
G04 #@! TA.AperFunction,ComponentPad*
%ADD15O,1.500000X1.500000*%
G04 #@! TD*
G04 #@! TA.AperFunction,ViaPad*
%ADD16C,0.800000*%
G04 #@! TD*
G04 #@! TA.AperFunction,Conductor*
%ADD17C,0.250000*%
G04 #@! TD*
G04 APERTURE END LIST*
D10*
G04 #@! TO.P,R30,1*
G04 #@! TO.N,Net-(R30-Pad1)*
X91513400Y-71120000D03*
D11*
G04 #@! TO.P,R30,2*
G04 #@! TO.N,/HV*
X91513400Y-55880000D03*
G04 #@! TD*
D12*
G04 #@! TO.P,J1,1,Pin_1*
G04 #@! TO.N,VCC*
X127827200Y-55245000D03*
D13*
G04 #@! TO.P,J1,2,Pin_2*
G04 #@! TO.N,GND*
X125287200Y-55245000D03*
G04 #@! TO.P,J1,3,Pin_3*
G04 #@! TO.N,Net-(J1-Pad3)*
X122747200Y-55245000D03*
G04 #@! TO.P,J1,4,Pin_4*
G04 #@! TO.N,Net-(J1-Pad4)*
X120207200Y-55245000D03*
G04 #@! TO.P,J1,5,Pin_5*
G04 #@! TO.N,Net-(J1-Pad5)*
X117667200Y-55245000D03*
G04 #@! TO.P,J1,6,Pin_6*
G04 #@! TO.N,Net-(J1-Pad6)*
X115127200Y-55245000D03*
G04 #@! TD*
D12*
G04 #@! TO.P,J2,1,Pin_1*
G04 #@! TO.N,VCC*
X127827200Y-71755000D03*
D13*
G04 #@! TO.P,J2,2,Pin_2*
G04 #@! TO.N,GND*
X125287200Y-71755000D03*
G04 #@! TO.P,J2,3,Pin_3*
G04 #@! TO.N,Net-(J2-Pad3)*
X122747200Y-71755000D03*
G04 #@! TO.P,J2,4,Pin_4*
G04 #@! TO.N,Net-(J1-Pad4)*
X120207200Y-71755000D03*
G04 #@! TO.P,J2,5,Pin_5*
G04 #@! TO.N,Net-(J1-Pad5)*
X117667200Y-71755000D03*
G04 #@! TO.P,J2,6,Pin_6*
G04 #@! TO.N,Net-(J1-Pad6)*
X115127200Y-71755000D03*
G04 #@! TD*
D14*
G04 #@! TO.P,V1,1,A*
G04 #@! TO.N,Net-(R30-Pad1)*
X76213400Y-68000000D03*
D15*
G04 #@! TO.P,V1,2,K9*
G04 #@! TO.N,/K9*
X78463399Y-67397114D03*
G04 #@! TO.P,V1,3,K1*
G04 #@! TO.N,/K1*
X80110514Y-65749999D03*
G04 #@! TO.P,V1,4,K0*
G04 #@! TO.N,/K0*
X80713400Y-63500000D03*
G04 #@! TO.P,V1,5,K2*
G04 #@! TO.N,/K2*
X80110514Y-61250000D03*
G04 #@! TO.P,V1,6,K3*
G04 #@! TO.N,/K3*
X78463400Y-59602886D03*
G04 #@! TO.P,V1,7,K4*
G04 #@! TO.N,/K4*
X76213400Y-59000000D03*
G04 #@! TO.P,V1,8,K5*
G04 #@! TO.N,/K5*
X73963400Y-59602886D03*
G04 #@! TO.P,V1,9,K7*
G04 #@! TO.N,/K7*
X72316286Y-61250000D03*
G04 #@! TO.P,V1,10,K6*
G04 #@! TO.N,/K6*
X71713400Y-63500000D03*
G04 #@! TO.P,V1,11,K8*
G04 #@! TO.N,/K8*
X72316286Y-65749999D03*
G04 #@! TO.P,V1,12,KDP*
G04 #@! TO.N,/KDP*
X73963401Y-67397114D03*
G04 #@! TD*
D12*
G04 #@! TO.P,J4,1,Pin_1*
G04 #@! TO.N,GND*
X83377200Y-55245000D03*
D13*
G04 #@! TO.P,J4,2,Pin_2*
G04 #@! TO.N,/HV*
X80837200Y-55245000D03*
G04 #@! TD*
D12*
G04 #@! TO.P,J3,1,Pin_1*
G04 #@! TO.N,GND*
X83377200Y-71755000D03*
D13*
G04 #@! TO.P,J3,2,Pin_2*
G04 #@! TO.N,/HV*
X80837200Y-71755000D03*
G04 #@! TD*
D10*
G04 #@! TO.P,R31,1*
G04 #@! TO.N,Net-(R30-Pad1)*
X87703400Y-71120000D03*
D11*
G04 #@! TO.P,R31,2*
G04 #@! TO.N,/HV*
X87703400Y-55880000D03*
G04 #@! TD*
D16*
G04 #@! TO.N,Net-(Q4-Pad1)*
X106414000Y-68665400D03*
X108519100Y-71725900D03*
G04 #@! TO.N,Net-(R13-Pad2)*
X122076800Y-69662900D03*
X122777200Y-62279500D03*
G04 #@! TO.N,Net-(R1-Pad2)*
X122586300Y-60325000D03*
X123610200Y-63761200D03*
G04 #@! TO.N,/K9*
X103847900Y-60960000D03*
G04 #@! TO.N,/K8*
X103879900Y-55880000D03*
G04 #@! TO.N,/K6*
X98956700Y-64886900D03*
G04 #@! TO.N,/K3*
X91207000Y-67231500D03*
G04 #@! TO.N,/K2*
X85792200Y-65856400D03*
G04 #@! TO.N,Net-(Q18-Pad2)*
X105794900Y-59635800D03*
X112701200Y-67889900D03*
X105804500Y-54930000D03*
G04 #@! TO.N,Net-(Q14-Pad2)*
X100933500Y-62949400D03*
X102448000Y-59087700D03*
G04 #@! TO.N,Net-(J1-Pad5)*
X119460500Y-63007600D03*
G04 #@! TD*
D17*
G04 #@! TO.N,Net-(Q4-Pad1)*
X106414000Y-69620800D02*
X108519100Y-71725900D01*
X106414000Y-68665400D02*
X106414000Y-69620800D01*
G04 #@! TO.N,Net-(R30-Pad1)*
X76213400Y-68000000D02*
X77288700Y-68000000D01*
X86741600Y-70158200D02*
X87703400Y-71120000D01*
X79446900Y-70158200D02*
X86741600Y-70158200D01*
X77288700Y-68000000D02*
X79446900Y-70158200D01*
G04 #@! TO.N,Net-(R13-Pad2)*
X122076800Y-62979900D02*
X122777200Y-62279500D01*
X122076800Y-69662900D02*
X122076800Y-62979900D01*
G04 #@! TO.N,Net-(R1-Pad2)*
X123610200Y-61348900D02*
X122586300Y-60325000D01*
X123610200Y-63761200D02*
X123610200Y-61348900D01*
G04 #@! TO.N,/K9*
X103847900Y-61080700D02*
X103847900Y-60960000D01*
X96518300Y-68410300D02*
X103847900Y-61080700D01*
X80551900Y-68410300D02*
X96518300Y-68410300D01*
X79538700Y-67397100D02*
X80551900Y-68410300D01*
X78463400Y-67397100D02*
X79538700Y-67397100D01*
G04 #@! TO.N,/K8*
X101747400Y-58012500D02*
X103879900Y-55880000D01*
X78515300Y-58012500D02*
X101747400Y-58012500D01*
X77388000Y-59139800D02*
X78515300Y-58012500D01*
X77388000Y-59346300D02*
X77388000Y-59139800D01*
X72316300Y-64418000D02*
X77388000Y-59346300D01*
X72316300Y-65750000D02*
X72316300Y-64418000D01*
G04 #@! TO.N,/K6*
X71713400Y-63500000D02*
X71713400Y-64575300D01*
X71232900Y-65055800D02*
X71713400Y-64575300D01*
X71232900Y-66187400D02*
X71232900Y-65055800D01*
X73526000Y-68480500D02*
X71232900Y-66187400D01*
X74404600Y-68480500D02*
X73526000Y-68480500D01*
X75138000Y-67747100D02*
X74404600Y-68480500D01*
X75138000Y-67100300D02*
X75138000Y-67747100D01*
X75916600Y-66321700D02*
X75138000Y-67100300D01*
X79161300Y-66321700D02*
X75916600Y-66321700D01*
X80796600Y-67957000D02*
X79161300Y-66321700D01*
X95886600Y-67957000D02*
X80796600Y-67957000D01*
X98956700Y-64886900D02*
X95886600Y-67957000D01*
G04 #@! TO.N,/K3*
X83578400Y-59602900D02*
X78463400Y-59602900D01*
X91207000Y-67231500D02*
X83578400Y-59602900D01*
G04 #@! TO.N,/K2*
X80110500Y-61250000D02*
X81185800Y-61250000D01*
X81185800Y-61250000D02*
X85792200Y-65856400D01*
G04 #@! TO.N,Net-(Q18-Pad2)*
X112701200Y-66542100D02*
X112701200Y-67889900D01*
X105794900Y-59635800D02*
X112701200Y-66542100D01*
X105794900Y-54939600D02*
X105804500Y-54930000D01*
X105794900Y-59635800D02*
X105794900Y-54939600D01*
G04 #@! TO.N,Net-(Q14-Pad2)*
X100933500Y-60602200D02*
X100933500Y-62949400D01*
X102448000Y-59087700D02*
X100933500Y-60602200D01*
G04 #@! TO.N,/HV*
X86903400Y-56680000D02*
X87703400Y-55880000D01*
X82272200Y-56680000D02*
X86903400Y-56680000D01*
X80837200Y-55245000D02*
X82272200Y-56680000D01*
X91513400Y-55880000D02*
X87703400Y-55880000D01*
X74295000Y-71755000D02*
X80837200Y-71755000D01*
X69215000Y-66675000D02*
X74295000Y-71755000D01*
X69215000Y-60325000D02*
X69215000Y-66675000D01*
X74295000Y-55245000D02*
X69215000Y-60325000D01*
X80837200Y-55245000D02*
X74295000Y-55245000D01*
G04 #@! TO.N,Net-(J1-Pad5)*
X117667000Y-55245000D02*
X117667000Y-58340600D01*
X117667200Y-58340400D02*
X117667200Y-55245000D01*
X117667000Y-58340600D02*
X117667200Y-58340400D01*
X117667000Y-58340600D02*
X117667000Y-62790500D01*
X117667000Y-62790500D02*
X117667000Y-67272700D01*
X117667000Y-67272700D02*
X117667000Y-71755000D01*
X117667200Y-67272900D02*
X117667200Y-71755000D01*
X117667000Y-67272700D02*
X117667200Y-67272900D01*
X119243400Y-62790500D02*
X119460500Y-63007600D01*
X117667000Y-62790500D02*
X119243400Y-62790500D01*
G04 #@! TO.N,Net-(J1-Pad4)*
X120207000Y-71017900D02*
X120207000Y-71755000D01*
X120207200Y-71018100D02*
X120207200Y-71755000D01*
X120207000Y-71017900D02*
X120207200Y-71018100D01*
X120207000Y-55245000D02*
X120207000Y-58837500D01*
X120207000Y-58837500D02*
X120207000Y-71017900D01*
X120207200Y-58837300D02*
X120207200Y-55245000D01*
X120207000Y-58837500D02*
X120207200Y-58837300D01*
G04 #@! TO.N,Net-(J1-Pad6)*
X115127000Y-55245000D02*
X115127000Y-59372500D01*
X115127200Y-59372300D02*
X115127200Y-55245000D01*
X115127000Y-59372500D02*
X115127200Y-59372300D01*
X115127000Y-59372500D02*
X115127000Y-70397500D01*
X115127000Y-70397500D02*
X115127000Y-71755000D01*
X115127200Y-70397700D02*
X115127200Y-71755000D01*
X115127000Y-70397500D02*
X115127200Y-70397700D01*
G04 #@! TO.N,GND*
X125287000Y-68008100D02*
X125287000Y-71755000D01*
X125287200Y-68008300D02*
X125287200Y-71755000D01*
X125287000Y-68008100D02*
X125287200Y-68008300D01*
X125287000Y-55245000D02*
X125287000Y-58976200D01*
X125287000Y-58976200D02*
X125287000Y-68008100D01*
X125287200Y-58976000D02*
X125287200Y-55245000D01*
X125287000Y-58976200D02*
X125287200Y-58976000D01*
G04 #@! TO.N,VCC*
X127827000Y-55245000D02*
X127827000Y-59372500D01*
X127827200Y-59372300D02*
X127827200Y-55245000D01*
X127827000Y-59372500D02*
X127827200Y-59372300D01*
X127827000Y-59372500D02*
X127827000Y-69466300D01*
X127827000Y-69466300D02*
X127827000Y-71755000D01*
X127827200Y-69466500D02*
X127827200Y-71755000D01*
X127827000Y-69466300D02*
X127827200Y-69466500D01*
G04 #@! TD*
G04 #@! TA.AperFunction,Conductor*
G04 #@! TO.N,GND*
G36*
X132830473Y-53360002D02*
G01*
X132876966Y-53413658D01*
X132887070Y-53483932D01*
X132857576Y-53548512D01*
X132834802Y-53569087D01*
X132790689Y-53600090D01*
X132790682Y-53600095D01*
X132787177Y-53602559D01*
X132576578Y-53798260D01*
X132394487Y-54020732D01*
X132244273Y-54265858D01*
X132242547Y-54269791D01*
X132242546Y-54269792D01*
X132191035Y-54387138D01*
X132128717Y-54529102D01*
X132127542Y-54533229D01*
X132127541Y-54533230D01*
X132102042Y-54622745D01*
X132049956Y-54805594D01*
X132009449Y-55090216D01*
X132009427Y-55094505D01*
X132009426Y-55094512D01*
X132007965Y-55373417D01*
X132007943Y-55377703D01*
X132045468Y-55662734D01*
X132121329Y-55940036D01*
X132123013Y-55943984D01*
X132222747Y-56177805D01*
X132234123Y-56204476D01*
X132262300Y-56251556D01*
X132361435Y-56417198D01*
X132381761Y-56451161D01*
X132561513Y-56675528D01*
X132640165Y-56750166D01*
X132719451Y-56825405D01*
X132770051Y-56873423D01*
X132792987Y-56889904D01*
X132973824Y-57019849D01*
X133003517Y-57041186D01*
X133007312Y-57043195D01*
X133007313Y-57043196D01*
X133029069Y-57054715D01*
X133257592Y-57175712D01*
X133392582Y-57225111D01*
X133504365Y-57266018D01*
X133527573Y-57274511D01*
X133808464Y-57335755D01*
X133837041Y-57338004D01*
X134031482Y-57353307D01*
X134031491Y-57353307D01*
X134033939Y-57353500D01*
X134189471Y-57353500D01*
X134191607Y-57353354D01*
X134191618Y-57353354D01*
X134399748Y-57339165D01*
X134399754Y-57339164D01*
X134404025Y-57338873D01*
X134408220Y-57338004D01*
X134408222Y-57338004D01*
X134586782Y-57301026D01*
X134685542Y-57280574D01*
X134956543Y-57184607D01*
X135212012Y-57052750D01*
X135215513Y-57050289D01*
X135215517Y-57050287D01*
X135329617Y-56970096D01*
X135447223Y-56887441D01*
X135553696Y-56788500D01*
X135654679Y-56694661D01*
X135654682Y-56694658D01*
X135657822Y-56691740D01*
X135666496Y-56681143D01*
X135725118Y-56641097D01*
X135796087Y-56639102D01*
X135856868Y-56675792D01*
X135888164Y-56739519D01*
X135890000Y-56760948D01*
X135890000Y-70237838D01*
X135869998Y-70305959D01*
X135816342Y-70352452D01*
X135746068Y-70362556D01*
X135681488Y-70333062D01*
X135673750Y-70325550D01*
X135672887Y-70324472D01*
X135464349Y-70126577D01*
X135263813Y-69982477D01*
X135234372Y-69961321D01*
X135234371Y-69961320D01*
X135230883Y-69958814D01*
X135209043Y-69947250D01*
X135159552Y-69921046D01*
X134976808Y-69824288D01*
X134841817Y-69774888D01*
X134710858Y-69726964D01*
X134710856Y-69726963D01*
X134706827Y-69725489D01*
X134425936Y-69664245D01*
X134394885Y-69661801D01*
X134202918Y-69646693D01*
X134202909Y-69646693D01*
X134200461Y-69646500D01*
X134044929Y-69646500D01*
X134042793Y-69646646D01*
X134042782Y-69646646D01*
X133834652Y-69660835D01*
X133834646Y-69660836D01*
X133830375Y-69661127D01*
X133826180Y-69661996D01*
X133826178Y-69661996D01*
X133715728Y-69684869D01*
X133548858Y-69719426D01*
X133277857Y-69815393D01*
X133022388Y-69947250D01*
X133018887Y-69949711D01*
X133018883Y-69949713D01*
X132922044Y-70017773D01*
X132787177Y-70112559D01*
X132772092Y-70126577D01*
X132611617Y-70275700D01*
X132576578Y-70308260D01*
X132394487Y-70530732D01*
X132337809Y-70623222D01*
X132247017Y-70771381D01*
X132244273Y-70775858D01*
X132242547Y-70779791D01*
X132242546Y-70779792D01*
X132191035Y-70897138D01*
X132128717Y-71039102D01*
X132127542Y-71043229D01*
X132127541Y-71043230D01*
X132124898Y-71052509D01*
X132049956Y-71315594D01*
X132009449Y-71600216D01*
X132009427Y-71604505D01*
X132009426Y-71604512D01*
X132008289Y-71821590D01*
X132007943Y-71887703D01*
X132008502Y-71891947D01*
X132008502Y-71891951D01*
X132010850Y-71909784D01*
X132045468Y-72172734D01*
X132046601Y-72176874D01*
X132046601Y-72176876D01*
X132055658Y-72209984D01*
X132121329Y-72450036D01*
X132123013Y-72453984D01*
X132222747Y-72687805D01*
X132234123Y-72714476D01*
X132381761Y-72961161D01*
X132561513Y-73185528D01*
X132770051Y-73383423D01*
X132837207Y-73431680D01*
X132880853Y-73487672D01*
X132887299Y-73558375D01*
X132854496Y-73621340D01*
X132792860Y-73656574D01*
X132763679Y-73660000D01*
X70702048Y-73660000D01*
X70633927Y-73639998D01*
X70587434Y-73586342D01*
X70577330Y-73516068D01*
X70606824Y-73451488D01*
X70629598Y-73430913D01*
X70673711Y-73399910D01*
X70673718Y-73399905D01*
X70677223Y-73397441D01*
X70755603Y-73324606D01*
X70884679Y-73204661D01*
X70884681Y-73204658D01*
X70887822Y-73201740D01*
X71069913Y-72979268D01*
X71220127Y-72734142D01*
X71224127Y-72725031D01*
X71333957Y-72474830D01*
X71335683Y-72470898D01*
X71359717Y-72386528D01*
X71413268Y-72198534D01*
X71414444Y-72194406D01*
X71454951Y-71909784D01*
X71455045Y-71891951D01*
X71456435Y-71626583D01*
X71456435Y-71626576D01*
X71456457Y-71622297D01*
X71418932Y-71337266D01*
X71343071Y-71059964D01*
X71312676Y-70988705D01*
X71231963Y-70799476D01*
X71231961Y-70799472D01*
X71230277Y-70795524D01*
X71126904Y-70622800D01*
X71084843Y-70552521D01*
X71084840Y-70552517D01*
X71082639Y-70548839D01*
X70902887Y-70324472D01*
X70694349Y-70126577D01*
X70493813Y-69982477D01*
X70464372Y-69961321D01*
X70464371Y-69961320D01*
X70460883Y-69958814D01*
X70439043Y-69947250D01*
X70389552Y-69921046D01*
X70206808Y-69824288D01*
X70071817Y-69774888D01*
X69940858Y-69726964D01*
X69940856Y-69726963D01*
X69936827Y-69725489D01*
X69655936Y-69664245D01*
X69624885Y-69661801D01*
X69432918Y-69646693D01*
X69432909Y-69646693D01*
X69430461Y-69646500D01*
X69274929Y-69646500D01*
X69272793Y-69646646D01*
X69272782Y-69646646D01*
X69064652Y-69660835D01*
X69064646Y-69660836D01*
X69060375Y-69661127D01*
X69056180Y-69661996D01*
X69056178Y-69661996D01*
X68945728Y-69684869D01*
X68778858Y-69719426D01*
X68507857Y-69815393D01*
X68252388Y-69947250D01*
X68248887Y-69949711D01*
X68248883Y-69949713D01*
X68152044Y-70017773D01*
X68017177Y-70112559D01*
X68002092Y-70126577D01*
X67841617Y-70275700D01*
X67806578Y-70308260D01*
X67624487Y-70530732D01*
X67588957Y-70588711D01*
X67549133Y-70653698D01*
X67496485Y-70701329D01*
X67426443Y-70712936D01*
X67361246Y-70684833D01*
X67321592Y-70625942D01*
X67315700Y-70587863D01*
X67315700Y-60304943D01*
X68576780Y-60304943D01*
X68577526Y-60312835D01*
X68580941Y-60348961D01*
X68581500Y-60360819D01*
X68581500Y-66596233D01*
X68580973Y-66607416D01*
X68579298Y-66614909D01*
X68579547Y-66622835D01*
X68579547Y-66622836D01*
X68581438Y-66682986D01*
X68581500Y-66686945D01*
X68581500Y-66714856D01*
X68581997Y-66718790D01*
X68581997Y-66718791D01*
X68582005Y-66718856D01*
X68582938Y-66730693D01*
X68584327Y-66774889D01*
X68589978Y-66794339D01*
X68593987Y-66813700D01*
X68596526Y-66833797D01*
X68599445Y-66841168D01*
X68599445Y-66841170D01*
X68612804Y-66874912D01*
X68616649Y-66886142D01*
X68628982Y-66928593D01*
X68633015Y-66935412D01*
X68633017Y-66935417D01*
X68639293Y-66946028D01*
X68647988Y-66963776D01*
X68655448Y-66982617D01*
X68660110Y-66989033D01*
X68660110Y-66989034D01*
X68681436Y-67018387D01*
X68687952Y-67028307D01*
X68710458Y-67066362D01*
X68724779Y-67080683D01*
X68737619Y-67095716D01*
X68749528Y-67112107D01*
X68755634Y-67117158D01*
X68783605Y-67140298D01*
X68792384Y-67148288D01*
X73791348Y-72147253D01*
X73798888Y-72155539D01*
X73803000Y-72162018D01*
X73808777Y-72167443D01*
X73852651Y-72208643D01*
X73855493Y-72211398D01*
X73875230Y-72231135D01*
X73878427Y-72233615D01*
X73887447Y-72241318D01*
X73919679Y-72271586D01*
X73926625Y-72275405D01*
X73926628Y-72275407D01*
X73937434Y-72281348D01*
X73953953Y-72292199D01*
X73969959Y-72304614D01*
X73977228Y-72307759D01*
X73977232Y-72307762D01*
X74010537Y-72322174D01*
X74021187Y-72327391D01*
X74059940Y-72348695D01*
X74067615Y-72350666D01*
X74067616Y-72350666D01*
X74079562Y-72353733D01*
X74098267Y-72360137D01*
X74116855Y-72368181D01*
X74124678Y-72369420D01*
X74124688Y-72369423D01*
X74160524Y-72375099D01*
X74172144Y-72377505D01*
X74207289Y-72386528D01*
X74214970Y-72388500D01*
X74235224Y-72388500D01*
X74254934Y-72390051D01*
X74274943Y-72393220D01*
X74282835Y-72392474D01*
X74318961Y-72389059D01*
X74330819Y-72388500D01*
X79561474Y-72388500D01*
X79629595Y-72408502D01*
X79668907Y-72448665D01*
X79674062Y-72457077D01*
X79737187Y-72560088D01*
X79883450Y-72728938D01*
X80055326Y-72871632D01*
X80248200Y-72984338D01*
X80456892Y-73064030D01*
X80461960Y-73065061D01*
X80461963Y-73065062D01*
X80557062Y-73084410D01*
X80675797Y-73108567D01*
X80680972Y-73108757D01*
X80680974Y-73108757D01*
X80893873Y-73116564D01*
X80893877Y-73116564D01*
X80899037Y-73116753D01*
X80904157Y-73116097D01*
X80904159Y-73116097D01*
X81115488Y-73089025D01*
X81115489Y-73089025D01*
X81120616Y-73088368D01*
X81125566Y-73086883D01*
X81329629Y-73025661D01*
X81329634Y-73025659D01*
X81334584Y-73024174D01*
X81535194Y-72925896D01*
X81717060Y-72796173D01*
X81775639Y-72737799D01*
X81825679Y-72687933D01*
X81888051Y-72654017D01*
X81958858Y-72659205D01*
X82015619Y-72701851D01*
X82032601Y-72732954D01*
X82073876Y-72843054D01*
X82082414Y-72858649D01*
X82158915Y-72960724D01*
X82171476Y-72973285D01*
X82273551Y-73049786D01*
X82289146Y-73058324D01*
X82409594Y-73103478D01*
X82424849Y-73107105D01*
X82475714Y-73112631D01*
X82482528Y-73113000D01*
X83105085Y-73113000D01*
X83120324Y-73108525D01*
X83121529Y-73107135D01*
X83123200Y-73099452D01*
X83123200Y-73094884D01*
X83631200Y-73094884D01*
X83635675Y-73110123D01*
X83637065Y-73111328D01*
X83644748Y-73112999D01*
X84271869Y-73112999D01*
X84278690Y-73112629D01*
X84329552Y-73107105D01*
X84344804Y-73103479D01*
X84465254Y-73058324D01*
X84480849Y-73049786D01*
X84582924Y-72973285D01*
X84595485Y-72960724D01*
X84671986Y-72858649D01*
X84680524Y-72843054D01*
X84725678Y-72722606D01*
X84729305Y-72707351D01*
X84734831Y-72656486D01*
X84735200Y-72649672D01*
X84735200Y-72027115D01*
X84730725Y-72011876D01*
X84729335Y-72010671D01*
X84721652Y-72009000D01*
X83649315Y-72009000D01*
X83634076Y-72013475D01*
X83632871Y-72014865D01*
X83631200Y-72022548D01*
X83631200Y-73094884D01*
X83123200Y-73094884D01*
X83123200Y-71627000D01*
X83143202Y-71558879D01*
X83196858Y-71512386D01*
X83249200Y-71501000D01*
X84717084Y-71501000D01*
X84732323Y-71496525D01*
X84733528Y-71495135D01*
X84735199Y-71487452D01*
X84735199Y-70917700D01*
X84755201Y-70849579D01*
X84808857Y-70803086D01*
X84861199Y-70791700D01*
X86281119Y-70791700D01*
X86349240Y-70811702D01*
X86395733Y-70865358D01*
X86406640Y-70928682D01*
X86389902Y-71120000D01*
X86409857Y-71348087D01*
X86411281Y-71353400D01*
X86411281Y-71353402D01*
X86461960Y-71542535D01*
X86469116Y-71569243D01*
X86471439Y-71574224D01*
X86471439Y-71574225D01*
X86563551Y-71771762D01*
X86563554Y-71771767D01*
X86565877Y-71776749D01*
X86569034Y-71781257D01*
X86679870Y-71939547D01*
X86697202Y-71964300D01*
X86859100Y-72126198D01*
X86863608Y-72129355D01*
X86863611Y-72129357D01*
X86898088Y-72153498D01*
X87046651Y-72257523D01*
X87051633Y-72259846D01*
X87051638Y-72259849D01*
X87242171Y-72348695D01*
X87254157Y-72354284D01*
X87259465Y-72355706D01*
X87259467Y-72355707D01*
X87469998Y-72412119D01*
X87470000Y-72412119D01*
X87475313Y-72413543D01*
X87703400Y-72433498D01*
X87931487Y-72413543D01*
X87936800Y-72412119D01*
X87936802Y-72412119D01*
X88147333Y-72355707D01*
X88147335Y-72355706D01*
X88152643Y-72354284D01*
X88164629Y-72348695D01*
X88355162Y-72259849D01*
X88355167Y-72259846D01*
X88360149Y-72257523D01*
X88508712Y-72153498D01*
X88543189Y-72129357D01*
X88543192Y-72129355D01*
X88547700Y-72126198D01*
X88709598Y-71964300D01*
X88726931Y-71939547D01*
X88837766Y-71781257D01*
X88840923Y-71776749D01*
X88843246Y-71771767D01*
X88843249Y-71771762D01*
X88935361Y-71574225D01*
X88935361Y-71574224D01*
X88937684Y-71569243D01*
X88944841Y-71542535D01*
X88995519Y-71353402D01*
X88995519Y-71353400D01*
X88996943Y-71348087D01*
X89016898Y-71120000D01*
X90199902Y-71120000D01*
X90219857Y-71348087D01*
X90221281Y-71353400D01*
X90221281Y-71353402D01*
X90271960Y-71542535D01*
X90279116Y-71569243D01*
X90281439Y-71574224D01*
X90281439Y-71574225D01*
X90373551Y-71771762D01*
X90373554Y-71771767D01*
X90375877Y-71776749D01*
X90379034Y-71781257D01*
X90489870Y-71939547D01*
X90507202Y-71964300D01*
X90669100Y-72126198D01*
X90673608Y-72129355D01*
X90673611Y-72129357D01*
X90708088Y-72153498D01*
X90856651Y-72257523D01*
X90861633Y-72259846D01*
X90861638Y-72259849D01*
X91052171Y-72348695D01*
X91064157Y-72354284D01*
X91069465Y-72355706D01*
X91069467Y-72355707D01*
X91279998Y-72412119D01*
X91280000Y-72412119D01*
X91285313Y-72413543D01*
X91513400Y-72433498D01*
X91741487Y-72413543D01*
X91746800Y-72412119D01*
X91746802Y-72412119D01*
X91957333Y-72355707D01*
X91957335Y-72355706D01*
X91962643Y-72354284D01*
X91974629Y-72348695D01*
X92165162Y-72259849D01*
X92165167Y-72259846D01*
X92170149Y-72257523D01*
X92318712Y-72153498D01*
X92353189Y-72129357D01*
X92353192Y-72129355D01*
X92357700Y-72126198D01*
X92519598Y-71964300D01*
X92536931Y-71939547D01*
X92647766Y-71781257D01*
X92650923Y-71776749D01*
X92653246Y-71771767D01*
X92653249Y-71771762D01*
X92745361Y-71574225D01*
X92745361Y-71574224D01*
X92747684Y-71569243D01*
X92754841Y-71542535D01*
X92805519Y-71353402D01*
X92805519Y-71353400D01*
X92806943Y-71348087D01*
X92826898Y-71120000D01*
X92806943Y-70891913D01*
X92798097Y-70858898D01*
X92749107Y-70676067D01*
X92749106Y-70676065D01*
X92747684Y-70670757D01*
X92731837Y-70636772D01*
X92653249Y-70468238D01*
X92653246Y-70468233D01*
X92650923Y-70463251D01*
X92574891Y-70354666D01*
X92522757Y-70280211D01*
X92522755Y-70280208D01*
X92519598Y-70275700D01*
X92357700Y-70113802D01*
X92353192Y-70110645D01*
X92353189Y-70110643D01*
X92268715Y-70051494D01*
X92170149Y-69982477D01*
X92165167Y-69980154D01*
X92165162Y-69980151D01*
X91967625Y-69888039D01*
X91967624Y-69888039D01*
X91962643Y-69885716D01*
X91957335Y-69884294D01*
X91957333Y-69884293D01*
X91746802Y-69827881D01*
X91746800Y-69827881D01*
X91741487Y-69826457D01*
X91513400Y-69806502D01*
X91285313Y-69826457D01*
X91280000Y-69827881D01*
X91279998Y-69827881D01*
X91069467Y-69884293D01*
X91069465Y-69884294D01*
X91064157Y-69885716D01*
X91059176Y-69888039D01*
X91059175Y-69888039D01*
X90861638Y-69980151D01*
X90861633Y-69980154D01*
X90856651Y-69982477D01*
X90758085Y-70051494D01*
X90673611Y-70110643D01*
X90673608Y-70110645D01*
X90669100Y-70113802D01*
X90507202Y-70275700D01*
X90504045Y-70280208D01*
X90504043Y-70280211D01*
X90451909Y-70354666D01*
X90375877Y-70463251D01*
X90373554Y-70468233D01*
X90373551Y-70468238D01*
X90294963Y-70636772D01*
X90279116Y-70670757D01*
X90277694Y-70676065D01*
X90277693Y-70676067D01*
X90228703Y-70858898D01*
X90219857Y-70891913D01*
X90199902Y-71120000D01*
X89016898Y-71120000D01*
X88996943Y-70891913D01*
X88988097Y-70858898D01*
X88939107Y-70676067D01*
X88939106Y-70676065D01*
X88937684Y-70670757D01*
X88921837Y-70636772D01*
X88843249Y-70468238D01*
X88843246Y-70468233D01*
X88840923Y-70463251D01*
X88764891Y-70354666D01*
X88712757Y-70280211D01*
X88712755Y-70280208D01*
X88709598Y-70275700D01*
X88547700Y-70113802D01*
X88543192Y-70110645D01*
X88543189Y-70110643D01*
X88458715Y-70051494D01*
X88360149Y-69982477D01*
X88355167Y-69980154D01*
X88355162Y-69980151D01*
X88157625Y-69888039D01*
X88157624Y-69888039D01*
X88152643Y-69885716D01*
X88147335Y-69884294D01*
X88147333Y-69884293D01*
X87936802Y-69827881D01*
X87936800Y-69827881D01*
X87931487Y-69826457D01*
X87703400Y-69806502D01*
X87475313Y-69826457D01*
X87470000Y-69827881D01*
X87469998Y-69827881D01*
X87411859Y-69843459D01*
X87340882Y-69841769D01*
X87290153Y-69810847D01*
X87245248Y-69765942D01*
X87237713Y-69757662D01*
X87233600Y-69751182D01*
X87183948Y-69704556D01*
X87181107Y-69701802D01*
X87161370Y-69682065D01*
X87158173Y-69679585D01*
X87149151Y-69671880D01*
X87116921Y-69641614D01*
X87109975Y-69637795D01*
X87109972Y-69637793D01*
X87099166Y-69631852D01*
X87082647Y-69621001D01*
X87082183Y-69620641D01*
X87066641Y-69608586D01*
X87059372Y-69605441D01*
X87059368Y-69605438D01*
X87026063Y-69591026D01*
X87015413Y-69585809D01*
X86976660Y-69564505D01*
X86957037Y-69559467D01*
X86938334Y-69553063D01*
X86927020Y-69548167D01*
X86927019Y-69548167D01*
X86919745Y-69545019D01*
X86911922Y-69543780D01*
X86911912Y-69543777D01*
X86876076Y-69538101D01*
X86864456Y-69535695D01*
X86829311Y-69526672D01*
X86829310Y-69526672D01*
X86821630Y-69524700D01*
X86801376Y-69524700D01*
X86781665Y-69523149D01*
X86769486Y-69521220D01*
X86761657Y-69519980D01*
X86753765Y-69520726D01*
X86717639Y-69524141D01*
X86705781Y-69524700D01*
X79761494Y-69524700D01*
X79693373Y-69504698D01*
X79672399Y-69487795D01*
X78936352Y-68751748D01*
X78902326Y-68689436D01*
X78907391Y-68618621D01*
X78949938Y-68561785D01*
X78972198Y-68548458D01*
X79090062Y-68493498D01*
X79090068Y-68493494D01*
X79095053Y-68491170D01*
X79275437Y-68364863D01*
X79353903Y-68286397D01*
X79416215Y-68252371D01*
X79487030Y-68257436D01*
X79532093Y-68286397D01*
X80048243Y-68802547D01*
X80055787Y-68810837D01*
X80059900Y-68817318D01*
X80065677Y-68822743D01*
X80109567Y-68863958D01*
X80112409Y-68866713D01*
X80132130Y-68886434D01*
X80135325Y-68888912D01*
X80144347Y-68896618D01*
X80176579Y-68926886D01*
X80183528Y-68930706D01*
X80194332Y-68936646D01*
X80210856Y-68947499D01*
X80226859Y-68959913D01*
X80267443Y-68977476D01*
X80278073Y-68982683D01*
X80316840Y-69003995D01*
X80324517Y-69005966D01*
X80324522Y-69005968D01*
X80336458Y-69009032D01*
X80355166Y-69015437D01*
X80373755Y-69023481D01*
X80381583Y-69024721D01*
X80381590Y-69024723D01*
X80417424Y-69030399D01*
X80429044Y-69032805D01*
X80460859Y-69040973D01*
X80471870Y-69043800D01*
X80492124Y-69043800D01*
X80511834Y-69045351D01*
X80531843Y-69048520D01*
X80539735Y-69047774D01*
X80558480Y-69046002D01*
X80575862Y-69044359D01*
X80587719Y-69043800D01*
X96439533Y-69043800D01*
X96450716Y-69044327D01*
X96458209Y-69046002D01*
X96466135Y-69045753D01*
X96466136Y-69045753D01*
X96526286Y-69043862D01*
X96530245Y-69043800D01*
X96558156Y-69043800D01*
X96562091Y-69043303D01*
X96562156Y-69043295D01*
X96573993Y-69042362D01*
X96606251Y-69041348D01*
X96610270Y-69041222D01*
X96618189Y-69040973D01*
X96637643Y-69035321D01*
X96657000Y-69031313D01*
X96669230Y-69029768D01*
X96669231Y-69029768D01*
X96677097Y-69028774D01*
X96684468Y-69025855D01*
X96684470Y-69025855D01*
X96718212Y-69012496D01*
X96729442Y-69008651D01*
X96764283Y-68998529D01*
X96764284Y-68998529D01*
X96771893Y-68996318D01*
X96778712Y-68992285D01*
X96778717Y-68992283D01*
X96789328Y-68986007D01*
X96807076Y-68977312D01*
X96825917Y-68969852D01*
X96835686Y-68962755D01*
X96861687Y-68943864D01*
X96871607Y-68937348D01*
X96902835Y-68918880D01*
X96902838Y-68918878D01*
X96909662Y-68914842D01*
X96923983Y-68900521D01*
X96939017Y-68887680D01*
X96940732Y-68886434D01*
X96955407Y-68875772D01*
X96983598Y-68841695D01*
X96991588Y-68832916D01*
X97159104Y-68665400D01*
X105500496Y-68665400D01*
X105501186Y-68671965D01*
X105514911Y-68802547D01*
X105520458Y-68855328D01*
X105579473Y-69036956D01*
X105582776Y-69042678D01*
X105582777Y-69042679D01*
X105594211Y-69062483D01*
X105674960Y-69202344D01*
X105748137Y-69283615D01*
X105778853Y-69347621D01*
X105780500Y-69367924D01*
X105780500Y-69542033D01*
X105779973Y-69553216D01*
X105778298Y-69560709D01*
X105778547Y-69568635D01*
X105778547Y-69568636D01*
X105780438Y-69628786D01*
X105780500Y-69632745D01*
X105780500Y-69660656D01*
X105780997Y-69664590D01*
X105780997Y-69664591D01*
X105781005Y-69664656D01*
X105781938Y-69676493D01*
X105783327Y-69720689D01*
X105788978Y-69740139D01*
X105792987Y-69759500D01*
X105795526Y-69779597D01*
X105798445Y-69786968D01*
X105798445Y-69786970D01*
X105811804Y-69820712D01*
X105815649Y-69831942D01*
X105827982Y-69874393D01*
X105832015Y-69881212D01*
X105832017Y-69881217D01*
X105838293Y-69891828D01*
X105846988Y-69909576D01*
X105854448Y-69928417D01*
X105859110Y-69934833D01*
X105859110Y-69934834D01*
X105880436Y-69964187D01*
X105886952Y-69974107D01*
X105890527Y-69980151D01*
X105909458Y-70012162D01*
X105923779Y-70026483D01*
X105936619Y-70041516D01*
X105948528Y-70057907D01*
X105954634Y-70062958D01*
X105982605Y-70086098D01*
X105991384Y-70094088D01*
X107571978Y-71674683D01*
X107606004Y-71736995D01*
X107608193Y-71750606D01*
X107610416Y-71771762D01*
X107622152Y-71883417D01*
X107625558Y-71915828D01*
X107684573Y-72097456D01*
X107780060Y-72262844D01*
X107784478Y-72267751D01*
X107784479Y-72267752D01*
X107896334Y-72391980D01*
X107907847Y-72404766D01*
X108062348Y-72517018D01*
X108068376Y-72519702D01*
X108068378Y-72519703D01*
X108167849Y-72563990D01*
X108236812Y-72594694D01*
X108330212Y-72614547D01*
X108417156Y-72633028D01*
X108417161Y-72633028D01*
X108423613Y-72634400D01*
X108614587Y-72634400D01*
X108621039Y-72633028D01*
X108621044Y-72633028D01*
X108707988Y-72614547D01*
X108801388Y-72594694D01*
X108870351Y-72563990D01*
X108969822Y-72519703D01*
X108969824Y-72519702D01*
X108975852Y-72517018D01*
X109130353Y-72404766D01*
X109141866Y-72391980D01*
X109253721Y-72267752D01*
X109253722Y-72267751D01*
X109258140Y-72262844D01*
X109353627Y-72097456D01*
X109412642Y-71915828D01*
X109416049Y-71883417D01*
X109431914Y-71732465D01*
X109432604Y-71725900D01*
X109432162Y-71721695D01*
X113764451Y-71721695D01*
X113777310Y-71944715D01*
X113778447Y-71949761D01*
X113778448Y-71949767D01*
X113792806Y-72013475D01*
X113826422Y-72162639D01*
X113882100Y-72299758D01*
X113904017Y-72353733D01*
X113910466Y-72369616D01*
X113949319Y-72433019D01*
X114024491Y-72555688D01*
X114027187Y-72560088D01*
X114173450Y-72728938D01*
X114345326Y-72871632D01*
X114538200Y-72984338D01*
X114746892Y-73064030D01*
X114751960Y-73065061D01*
X114751963Y-73065062D01*
X114847062Y-73084410D01*
X114965797Y-73108567D01*
X114970972Y-73108757D01*
X114970974Y-73108757D01*
X115183873Y-73116564D01*
X115183877Y-73116564D01*
X115189037Y-73116753D01*
X115194157Y-73116097D01*
X115194159Y-73116097D01*
X115405488Y-73089025D01*
X115405489Y-73089025D01*
X115410616Y-73088368D01*
X115415566Y-73086883D01*
X115619629Y-73025661D01*
X115619634Y-73025659D01*
X115624584Y-73024174D01*
X115825194Y-72925896D01*
X116007060Y-72796173D01*
X116165296Y-72638489D01*
X116224794Y-72555689D01*
X116295653Y-72457077D01*
X116296976Y-72458028D01*
X116343845Y-72414857D01*
X116413780Y-72402625D01*
X116479226Y-72430144D01*
X116507075Y-72461994D01*
X116567187Y-72560088D01*
X116713450Y-72728938D01*
X116885326Y-72871632D01*
X117078200Y-72984338D01*
X117286892Y-73064030D01*
X117291960Y-73065061D01*
X117291963Y-73065062D01*
X117387062Y-73084410D01*
X117505797Y-73108567D01*
X117510972Y-73108757D01*
X117510974Y-73108757D01*
X117723873Y-73116564D01*
X117723877Y-73116564D01*
X117729037Y-73116753D01*
X117734157Y-73116097D01*
X117734159Y-73116097D01*
X117945488Y-73089025D01*
X117945489Y-73089025D01*
X117950616Y-73088368D01*
X117955566Y-73086883D01*
X118159629Y-73025661D01*
X118159634Y-73025659D01*
X118164584Y-73024174D01*
X118365194Y-72925896D01*
X118547060Y-72796173D01*
X118705296Y-72638489D01*
X118764794Y-72555689D01*
X118835653Y-72457077D01*
X118836976Y-72458028D01*
X118883845Y-72414857D01*
X118953780Y-72402625D01*
X119019226Y-72430144D01*
X119047075Y-72461994D01*
X119107187Y-72560088D01*
X119253450Y-72728938D01*
X119425326Y-72871632D01*
X119618200Y-72984338D01*
X119826892Y-73064030D01*
X119831960Y-73065061D01*
X119831963Y-73065062D01*
X119927062Y-73084410D01*
X120045797Y-73108567D01*
X120050972Y-73108757D01*
X120050974Y-73108757D01*
X120263873Y-73116564D01*
X120263877Y-73116564D01*
X120269037Y-73116753D01*
X120274157Y-73116097D01*
X120274159Y-73116097D01*
X120485488Y-73089025D01*
X120485489Y-73089025D01*
X120490616Y-73088368D01*
X120495566Y-73086883D01*
X120699629Y-73025661D01*
X120699634Y-73025659D01*
X120704584Y-73024174D01*
X120905194Y-72925896D01*
X121087060Y-72796173D01*
X121245296Y-72638489D01*
X121304794Y-72555689D01*
X121375653Y-72457077D01*
X121376976Y-72458028D01*
X121423845Y-72414857D01*
X121493780Y-72402625D01*
X121559226Y-72430144D01*
X121587075Y-72461994D01*
X121647187Y-72560088D01*
X121793450Y-72728938D01*
X121965326Y-72871632D01*
X122158200Y-72984338D01*
X122366892Y-73064030D01*
X122371960Y-73065061D01*
X122371963Y-73065062D01*
X122467062Y-73084410D01*
X122585797Y-73108567D01*
X122590972Y-73108757D01*
X122590974Y-73108757D01*
X122803873Y-73116564D01*
X122803877Y-73116564D01*
X122809037Y-73116753D01*
X122814157Y-73116097D01*
X122814159Y-73116097D01*
X123025488Y-73089025D01*
X123025489Y-73089025D01*
X123030616Y-73088368D01*
X123035566Y-73086883D01*
X123239629Y-73025661D01*
X123239634Y-73025659D01*
X123244584Y-73024174D01*
X123445194Y-72925896D01*
X123627060Y-72796173D01*
X123785296Y-72638489D01*
X123844794Y-72555689D01*
X123915653Y-72457077D01*
X123916840Y-72457930D01*
X123964160Y-72414362D01*
X124034097Y-72402145D01*
X124099538Y-72429678D01*
X124127366Y-72461511D01*
X124184894Y-72555388D01*
X124190977Y-72563699D01*
X124330413Y-72724667D01*
X124337780Y-72731883D01*
X124501634Y-72867916D01*
X124510081Y-72873831D01*
X124693956Y-72981279D01*
X124703242Y-72985729D01*
X124902201Y-73061703D01*
X124912099Y-73064579D01*
X125015450Y-73085606D01*
X125029499Y-73084410D01*
X125033200Y-73074065D01*
X125033200Y-73073517D01*
X125541200Y-73073517D01*
X125545264Y-73087359D01*
X125558678Y-73089393D01*
X125565384Y-73088534D01*
X125575462Y-73086392D01*
X125779455Y-73025191D01*
X125789042Y-73021433D01*
X125980295Y-72927739D01*
X125989145Y-72922464D01*
X126162528Y-72798792D01*
X126170393Y-72792145D01*
X126275097Y-72687805D01*
X126337468Y-72653889D01*
X126408275Y-72659077D01*
X126465037Y-72701723D01*
X126482019Y-72732826D01*
X126504257Y-72792145D01*
X126526585Y-72851705D01*
X126613939Y-72968261D01*
X126730495Y-73055615D01*
X126866884Y-73106745D01*
X126929066Y-73113500D01*
X128725334Y-73113500D01*
X128787516Y-73106745D01*
X128923905Y-73055615D01*
X129040461Y-72968261D01*
X129127815Y-72851705D01*
X129178945Y-72715316D01*
X129185700Y-72653134D01*
X129185700Y-70856866D01*
X129178945Y-70794684D01*
X129127815Y-70658295D01*
X129040461Y-70541739D01*
X128923905Y-70454385D01*
X128787516Y-70403255D01*
X128725334Y-70396500D01*
X128586700Y-70396500D01*
X128518579Y-70376498D01*
X128472086Y-70322842D01*
X128460700Y-70270500D01*
X128460700Y-69545267D01*
X128461227Y-69534084D01*
X128462902Y-69526591D01*
X128460762Y-69458491D01*
X128460700Y-69454533D01*
X128460700Y-69426644D01*
X128460567Y-69425590D01*
X128460500Y-69423466D01*
X128460500Y-59453913D01*
X128460567Y-59452848D01*
X128460700Y-59452330D01*
X128460700Y-59432076D01*
X128462251Y-59412365D01*
X128464180Y-59400186D01*
X128465420Y-59392357D01*
X128461259Y-59348338D01*
X128460700Y-59336481D01*
X128460700Y-56729500D01*
X128480702Y-56661379D01*
X128534358Y-56614886D01*
X128586700Y-56603500D01*
X128725334Y-56603500D01*
X128787516Y-56596745D01*
X128923905Y-56545615D01*
X129040461Y-56458261D01*
X129127815Y-56341705D01*
X129178945Y-56205316D01*
X129185700Y-56143134D01*
X129185700Y-54346866D01*
X129178945Y-54284684D01*
X129127815Y-54148295D01*
X129040461Y-54031739D01*
X128923905Y-53944385D01*
X128787516Y-53893255D01*
X128725334Y-53886500D01*
X126929066Y-53886500D01*
X126866884Y-53893255D01*
X126730495Y-53944385D01*
X126613939Y-54031739D01*
X126526585Y-54148295D01*
X126523433Y-54156703D01*
X126523432Y-54156705D01*
X126481922Y-54267433D01*
X126439281Y-54324198D01*
X126372719Y-54348898D01*
X126303370Y-54333691D01*
X126270746Y-54308004D01*
X126219999Y-54252234D01*
X126212473Y-54245215D01*
X126045339Y-54113222D01*
X126036752Y-54107517D01*
X125850317Y-54004599D01*
X125840905Y-54000369D01*
X125640159Y-53929280D01*
X125630188Y-53926646D01*
X125559037Y-53913972D01*
X125545740Y-53915432D01*
X125541200Y-53929989D01*
X125541200Y-56563517D01*
X125545264Y-56577359D01*
X125558678Y-56579393D01*
X125565384Y-56578534D01*
X125575462Y-56576392D01*
X125779455Y-56515191D01*
X125789042Y-56511433D01*
X125980295Y-56417739D01*
X125989145Y-56412464D01*
X126162528Y-56288792D01*
X126170393Y-56282145D01*
X126275097Y-56177805D01*
X126337468Y-56143889D01*
X126408275Y-56149077D01*
X126465037Y-56191723D01*
X126482019Y-56222826D01*
X126494935Y-56257279D01*
X126526585Y-56341705D01*
X126613939Y-56458261D01*
X126730495Y-56545615D01*
X126866884Y-56596745D01*
X126929066Y-56603500D01*
X127067500Y-56603500D01*
X127135621Y-56623502D01*
X127182114Y-56677158D01*
X127193500Y-56729500D01*
X127193500Y-59312724D01*
X127191949Y-59332434D01*
X127188780Y-59352443D01*
X127189526Y-59360335D01*
X127192941Y-59396461D01*
X127193500Y-59408319D01*
X127193500Y-69387533D01*
X127192973Y-69398716D01*
X127191298Y-69406209D01*
X127191547Y-69414135D01*
X127191547Y-69414136D01*
X127193438Y-69474286D01*
X127193500Y-69478245D01*
X127193500Y-70270500D01*
X127173498Y-70338621D01*
X127119842Y-70385114D01*
X127067500Y-70396500D01*
X126929066Y-70396500D01*
X126866884Y-70403255D01*
X126730495Y-70454385D01*
X126613939Y-70541739D01*
X126526585Y-70658295D01*
X126523433Y-70666703D01*
X126523432Y-70666705D01*
X126481922Y-70777433D01*
X126439281Y-70834198D01*
X126372719Y-70858898D01*
X126303370Y-70843691D01*
X126270746Y-70818004D01*
X126219999Y-70762234D01*
X126212473Y-70755215D01*
X126045339Y-70623222D01*
X126036752Y-70617517D01*
X125850317Y-70514599D01*
X125840905Y-70510369D01*
X125640159Y-70439280D01*
X125630188Y-70436646D01*
X125559037Y-70423972D01*
X125545740Y-70425432D01*
X125541200Y-70439989D01*
X125541200Y-73073517D01*
X125033200Y-73073517D01*
X125033200Y-70438102D01*
X125029282Y-70424758D01*
X125015006Y-70422771D01*
X124976524Y-70428660D01*
X124966488Y-70431051D01*
X124764068Y-70497212D01*
X124754559Y-70501209D01*
X124565663Y-70599542D01*
X124556938Y-70605036D01*
X124386633Y-70732905D01*
X124378926Y-70739748D01*
X124231790Y-70893717D01*
X124225309Y-70901722D01*
X124120698Y-71055074D01*
X124065787Y-71100076D01*
X123995262Y-71108247D01*
X123931515Y-71076993D01*
X123910818Y-71052509D01*
X123830022Y-70927617D01*
X123830020Y-70927614D01*
X123827214Y-70923277D01*
X123676870Y-70758051D01*
X123672819Y-70754852D01*
X123672815Y-70754848D01*
X123505614Y-70622800D01*
X123505610Y-70622798D01*
X123501559Y-70619598D01*
X123497031Y-70617098D01*
X123403049Y-70565218D01*
X123305989Y-70511638D01*
X123301120Y-70509914D01*
X123301116Y-70509912D01*
X123100287Y-70438795D01*
X123100283Y-70438794D01*
X123095412Y-70437069D01*
X123090319Y-70436162D01*
X123090316Y-70436161D01*
X122892647Y-70400951D01*
X122829089Y-70369313D01*
X122792726Y-70308336D01*
X122795103Y-70237379D01*
X122812369Y-70203699D01*
X122815840Y-70199844D01*
X122864549Y-70115478D01*
X122908023Y-70040179D01*
X122908024Y-70040178D01*
X122911327Y-70034456D01*
X122970342Y-69852828D01*
X122971505Y-69841769D01*
X122989614Y-69669465D01*
X122990304Y-69662900D01*
X122980397Y-69568636D01*
X122971032Y-69479535D01*
X122971032Y-69479533D01*
X122970342Y-69472972D01*
X122911327Y-69291344D01*
X122906864Y-69283613D01*
X122819141Y-69131674D01*
X122815840Y-69125956D01*
X122742663Y-69044685D01*
X122711947Y-68980679D01*
X122710300Y-68960376D01*
X122710300Y-64447731D01*
X122730302Y-64379610D01*
X122783958Y-64333117D01*
X122854232Y-64323013D01*
X122918812Y-64352507D01*
X122929925Y-64363409D01*
X122998947Y-64440066D01*
X123153448Y-64552318D01*
X123159476Y-64555002D01*
X123159478Y-64555003D01*
X123320812Y-64626833D01*
X123327912Y-64629994D01*
X123413795Y-64648249D01*
X123508256Y-64668328D01*
X123508261Y-64668328D01*
X123514713Y-64669700D01*
X123705687Y-64669700D01*
X123712139Y-64668328D01*
X123712144Y-64668328D01*
X123806605Y-64648249D01*
X123892488Y-64629994D01*
X123899588Y-64626833D01*
X124060922Y-64555003D01*
X124060924Y-64555002D01*
X124066952Y-64552318D01*
X124221453Y-64440066D01*
X124275888Y-64379610D01*
X124344821Y-64303052D01*
X124344822Y-64303051D01*
X124349240Y-64298144D01*
X124444727Y-64132756D01*
X124503742Y-63951128D01*
X124505221Y-63937061D01*
X124523014Y-63767765D01*
X124523704Y-63761200D01*
X124503742Y-63571272D01*
X124444727Y-63389644D01*
X124349240Y-63224256D01*
X124276063Y-63142985D01*
X124245347Y-63078979D01*
X124243700Y-63058676D01*
X124243700Y-61427667D01*
X124244227Y-61416484D01*
X124245902Y-61408991D01*
X124245355Y-61391570D01*
X124243762Y-61340914D01*
X124243700Y-61336955D01*
X124243700Y-61309044D01*
X124243195Y-61305044D01*
X124242262Y-61293201D01*
X124241122Y-61256929D01*
X124240873Y-61249010D01*
X124235222Y-61229558D01*
X124231214Y-61210206D01*
X124229667Y-61197963D01*
X124228674Y-61190103D01*
X124225756Y-61182732D01*
X124212400Y-61148997D01*
X124208555Y-61137770D01*
X124202264Y-61116118D01*
X124196218Y-61095307D01*
X124192184Y-61088485D01*
X124192181Y-61088479D01*
X124185906Y-61077868D01*
X124177210Y-61060118D01*
X124172672Y-61048656D01*
X124172669Y-61048651D01*
X124169752Y-61041283D01*
X124157101Y-61023870D01*
X124143773Y-61005525D01*
X124137257Y-60995607D01*
X124126205Y-60976919D01*
X124114742Y-60957537D01*
X124100418Y-60943213D01*
X124087576Y-60928178D01*
X124075672Y-60911793D01*
X124041606Y-60883611D01*
X124032827Y-60875622D01*
X123533422Y-60376217D01*
X123499396Y-60313905D01*
X123497207Y-60300292D01*
X123495721Y-60286148D01*
X123488884Y-60221100D01*
X123480532Y-60141635D01*
X123480532Y-60141633D01*
X123479842Y-60135072D01*
X123420827Y-59953444D01*
X123325340Y-59788056D01*
X123305991Y-59766566D01*
X123201975Y-59651045D01*
X123201974Y-59651044D01*
X123197553Y-59646134D01*
X123043052Y-59533882D01*
X123037024Y-59531198D01*
X123037022Y-59531197D01*
X122874619Y-59458891D01*
X122874618Y-59458891D01*
X122868588Y-59456206D01*
X122755066Y-59432076D01*
X122688244Y-59417872D01*
X122688239Y-59417872D01*
X122681787Y-59416500D01*
X122490813Y-59416500D01*
X122484361Y-59417872D01*
X122484356Y-59417872D01*
X122417534Y-59432076D01*
X122304012Y-59456206D01*
X122297982Y-59458891D01*
X122297981Y-59458891D01*
X122135578Y-59531197D01*
X122135576Y-59531198D01*
X122129548Y-59533882D01*
X121975047Y-59646134D01*
X121970626Y-59651044D01*
X121970625Y-59651045D01*
X121866610Y-59766566D01*
X121847260Y-59788056D01*
X121751773Y-59953444D01*
X121692758Y-60135072D01*
X121692068Y-60141633D01*
X121692068Y-60141635D01*
X121679079Y-60265224D01*
X121672796Y-60325000D01*
X121673486Y-60331565D01*
X121691390Y-60501909D01*
X121692758Y-60514928D01*
X121751773Y-60696556D01*
X121847260Y-60861944D01*
X121851678Y-60866851D01*
X121851679Y-60866852D01*
X121970625Y-60998955D01*
X121975047Y-61003866D01*
X122129548Y-61116118D01*
X122135576Y-61118802D01*
X122135578Y-61118803D01*
X122297981Y-61191109D01*
X122304012Y-61193794D01*
X122373889Y-61208647D01*
X122383670Y-61210726D01*
X122446144Y-61244455D01*
X122480465Y-61306604D01*
X122475737Y-61377443D01*
X122433461Y-61434481D01*
X122408722Y-61449080D01*
X122326478Y-61485697D01*
X122326476Y-61485698D01*
X122320448Y-61488382D01*
X122315107Y-61492262D01*
X122315106Y-61492263D01*
X122286230Y-61513243D01*
X122165947Y-61600634D01*
X122161526Y-61605544D01*
X122161525Y-61605545D01*
X122128027Y-61642749D01*
X122038160Y-61742556D01*
X122034859Y-61748274D01*
X121967413Y-61865094D01*
X121942673Y-61907944D01*
X121883658Y-62089572D01*
X121882968Y-62096133D01*
X121882968Y-62096135D01*
X121882512Y-62100472D01*
X121866734Y-62250600D01*
X121866293Y-62254792D01*
X121839280Y-62320449D01*
X121830078Y-62330717D01*
X121684547Y-62476248D01*
X121676261Y-62483788D01*
X121669782Y-62487900D01*
X121664357Y-62493677D01*
X121623157Y-62537551D01*
X121620402Y-62540393D01*
X121600665Y-62560130D01*
X121598185Y-62563327D01*
X121590482Y-62572347D01*
X121560214Y-62604579D01*
X121556395Y-62611525D01*
X121556393Y-62611528D01*
X121550452Y-62622334D01*
X121539601Y-62638853D01*
X121527186Y-62654859D01*
X121524041Y-62662128D01*
X121524038Y-62662132D01*
X121509626Y-62695437D01*
X121504409Y-62706087D01*
X121483105Y-62744840D01*
X121481134Y-62752515D01*
X121481134Y-62752516D01*
X121478067Y-62764462D01*
X121471663Y-62783166D01*
X121463619Y-62801755D01*
X121462380Y-62809578D01*
X121462377Y-62809588D01*
X121456701Y-62845424D01*
X121454295Y-62857044D01*
X121452551Y-62863838D01*
X121443300Y-62899870D01*
X121443300Y-62920124D01*
X121441749Y-62939834D01*
X121438580Y-62959843D01*
X121439326Y-62967735D01*
X121442741Y-63003861D01*
X121443300Y-63015719D01*
X121443300Y-68960376D01*
X121423298Y-69028497D01*
X121410942Y-69044679D01*
X121337760Y-69125956D01*
X121334459Y-69131674D01*
X121246737Y-69283613D01*
X121242273Y-69291344D01*
X121183258Y-69472972D01*
X121182568Y-69479533D01*
X121182568Y-69479535D01*
X121173203Y-69568636D01*
X121163296Y-69662900D01*
X121163986Y-69669465D01*
X121182096Y-69841769D01*
X121183258Y-69852828D01*
X121242273Y-70034456D01*
X121337760Y-70199844D01*
X121342178Y-70204751D01*
X121342179Y-70204752D01*
X121455487Y-70330593D01*
X121465547Y-70341766D01*
X121542800Y-70397894D01*
X121614331Y-70449864D01*
X121620048Y-70454018D01*
X121626076Y-70456702D01*
X121626078Y-70456703D01*
X121675065Y-70478513D01*
X121794512Y-70531694D01*
X121794140Y-70532530D01*
X121848060Y-70569396D01*
X121875699Y-70634792D01*
X121863595Y-70704749D01*
X121841615Y-70736210D01*
X121697901Y-70886598D01*
X121687829Y-70897138D01*
X121580401Y-71054621D01*
X121525493Y-71099621D01*
X121454968Y-71107792D01*
X121391221Y-71076538D01*
X121370524Y-71052054D01*
X121290022Y-70927617D01*
X121290020Y-70927614D01*
X121287214Y-70923277D01*
X121136870Y-70758051D01*
X121132819Y-70754852D01*
X121132815Y-70754848D01*
X120965614Y-70622800D01*
X120965610Y-70622798D01*
X120961559Y-70619598D01*
X120957031Y-70617098D01*
X120905607Y-70588711D01*
X120855636Y-70538278D01*
X120840500Y-70478402D01*
X120840500Y-58918913D01*
X120840567Y-58917848D01*
X120840700Y-58917330D01*
X120840700Y-58897076D01*
X120842251Y-58877365D01*
X120844180Y-58865186D01*
X120845420Y-58857357D01*
X120841259Y-58813338D01*
X120840700Y-58801481D01*
X120840700Y-56525427D01*
X120860702Y-56457306D01*
X120901818Y-56417550D01*
X120905194Y-56415896D01*
X121087060Y-56286173D01*
X121245296Y-56128489D01*
X121304794Y-56045689D01*
X121375653Y-55947077D01*
X121376976Y-55948028D01*
X121423845Y-55904857D01*
X121493780Y-55892625D01*
X121559226Y-55920144D01*
X121587075Y-55951994D01*
X121647187Y-56050088D01*
X121793450Y-56218938D01*
X121965326Y-56361632D01*
X122158200Y-56474338D01*
X122366892Y-56554030D01*
X122371960Y-56555061D01*
X122371963Y-56555062D01*
X122467062Y-56574410D01*
X122585797Y-56598567D01*
X122590972Y-56598757D01*
X122590974Y-56598757D01*
X122803873Y-56606564D01*
X122803877Y-56606564D01*
X122809037Y-56606753D01*
X122814157Y-56606097D01*
X122814159Y-56606097D01*
X123025488Y-56579025D01*
X123025489Y-56579025D01*
X123030616Y-56578368D01*
X123035569Y-56576882D01*
X123239629Y-56515661D01*
X123239634Y-56515659D01*
X123244584Y-56514174D01*
X123445194Y-56415896D01*
X123627060Y-56286173D01*
X123785296Y-56128489D01*
X123844794Y-56045689D01*
X123915653Y-55947077D01*
X123916840Y-55947930D01*
X123964160Y-55904362D01*
X124034097Y-55892145D01*
X124099538Y-55919678D01*
X124127366Y-55951511D01*
X124184894Y-56045388D01*
X124190977Y-56053699D01*
X124330413Y-56214667D01*
X124337780Y-56221883D01*
X124501634Y-56357916D01*
X124510081Y-56363831D01*
X124693956Y-56471279D01*
X124703242Y-56475729D01*
X124902201Y-56551703D01*
X124912099Y-56554579D01*
X125015450Y-56575606D01*
X125029499Y-56574410D01*
X125033200Y-56564065D01*
X125033200Y-53928102D01*
X125029282Y-53914758D01*
X125015006Y-53912771D01*
X124976524Y-53918660D01*
X124966488Y-53921051D01*
X124764068Y-53987212D01*
X124754559Y-53991209D01*
X124565663Y-54089542D01*
X124556938Y-54095036D01*
X124386633Y-54222905D01*
X124378926Y-54229748D01*
X124231790Y-54383717D01*
X124225309Y-54391722D01*
X124120698Y-54545074D01*
X124065787Y-54590076D01*
X123995262Y-54598247D01*
X123931515Y-54566993D01*
X123910818Y-54542509D01*
X123830022Y-54417617D01*
X123830020Y-54417614D01*
X123827214Y-54413277D01*
X123676870Y-54248051D01*
X123672819Y-54244852D01*
X123672815Y-54244848D01*
X123505614Y-54112800D01*
X123505610Y-54112798D01*
X123501559Y-54109598D01*
X123465228Y-54089542D01*
X123444071Y-54077863D01*
X123305989Y-54001638D01*
X123301120Y-53999914D01*
X123301116Y-53999912D01*
X123100287Y-53928795D01*
X123100283Y-53928794D01*
X123095412Y-53927069D01*
X123090319Y-53926162D01*
X123090316Y-53926161D01*
X122880573Y-53888800D01*
X122880567Y-53888799D01*
X122875484Y-53887894D01*
X122801652Y-53886992D01*
X122657281Y-53885228D01*
X122657279Y-53885228D01*
X122652111Y-53885165D01*
X122431291Y-53918955D01*
X122218956Y-53988357D01*
X122163138Y-54017414D01*
X122079015Y-54061206D01*
X122020807Y-54091507D01*
X122016674Y-54094610D01*
X122016671Y-54094612D01*
X121933971Y-54156705D01*
X121842165Y-54225635D01*
X121687829Y-54387138D01*
X121580401Y-54544621D01*
X121525493Y-54589621D01*
X121454968Y-54597792D01*
X121391221Y-54566538D01*
X121370524Y-54542054D01*
X121290022Y-54417617D01*
X121290020Y-54417614D01*
X121287214Y-54413277D01*
X121136870Y-54248051D01*
X121132819Y-54244852D01*
X121132815Y-54244848D01*
X120965614Y-54112800D01*
X120965610Y-54112798D01*
X120961559Y-54109598D01*
X120925228Y-54089542D01*
X120904071Y-54077863D01*
X120765989Y-54001638D01*
X120761120Y-53999914D01*
X120761116Y-53999912D01*
X120560287Y-53928795D01*
X120560283Y-53928794D01*
X120555412Y-53927069D01*
X120550319Y-53926162D01*
X120550316Y-53926161D01*
X120340573Y-53888800D01*
X120340567Y-53888799D01*
X120335484Y-53887894D01*
X120261652Y-53886992D01*
X120117281Y-53885228D01*
X120117279Y-53885228D01*
X120112111Y-53885165D01*
X119891291Y-53918955D01*
X119678956Y-53988357D01*
X119623138Y-54017414D01*
X119539015Y-54061206D01*
X119480807Y-54091507D01*
X119476674Y-54094610D01*
X119476671Y-54094612D01*
X119393971Y-54156705D01*
X119302165Y-54225635D01*
X119147829Y-54387138D01*
X119040401Y-54544621D01*
X118985493Y-54589621D01*
X118914968Y-54597792D01*
X118851221Y-54566538D01*
X118830524Y-54542054D01*
X118750022Y-54417617D01*
X118750020Y-54417614D01*
X118747214Y-54413277D01*
X118596870Y-54248051D01*
X118592819Y-54244852D01*
X118592815Y-54244848D01*
X118425614Y-54112800D01*
X118425610Y-54112798D01*
X118421559Y-54109598D01*
X118385228Y-54089542D01*
X118364071Y-54077863D01*
X118225989Y-54001638D01*
X118221120Y-53999914D01*
X118221116Y-53999912D01*
X118020287Y-53928795D01*
X118020283Y-53928794D01*
X118015412Y-53927069D01*
X118010319Y-53926162D01*
X118010316Y-53926161D01*
X117800573Y-53888800D01*
X117800567Y-53888799D01*
X117795484Y-53887894D01*
X117721652Y-53886992D01*
X117577281Y-53885228D01*
X117577279Y-53885228D01*
X117572111Y-53885165D01*
X117351291Y-53918955D01*
X117138956Y-53988357D01*
X117083138Y-54017414D01*
X116999015Y-54061206D01*
X116940807Y-54091507D01*
X116936674Y-54094610D01*
X116936671Y-54094612D01*
X116853971Y-54156705D01*
X116762165Y-54225635D01*
X116607829Y-54387138D01*
X116500401Y-54544621D01*
X116445493Y-54589621D01*
X116374968Y-54597792D01*
X116311221Y-54566538D01*
X116290524Y-54542054D01*
X116210022Y-54417617D01*
X116210020Y-54417614D01*
X116207214Y-54413277D01*
X116056870Y-54248051D01*
X116052819Y-54244852D01*
X116052815Y-54244848D01*
X115885614Y-54112800D01*
X115885610Y-54112798D01*
X115881559Y-54109598D01*
X115845228Y-54089542D01*
X115824071Y-54077863D01*
X115685989Y-54001638D01*
X115681120Y-53999914D01*
X115681116Y-53999912D01*
X115480287Y-53928795D01*
X115480283Y-53928794D01*
X115475412Y-53927069D01*
X115470319Y-53926162D01*
X115470316Y-53926161D01*
X115260573Y-53888800D01*
X115260567Y-53888799D01*
X115255484Y-53887894D01*
X115181652Y-53886992D01*
X115037281Y-53885228D01*
X115037279Y-53885228D01*
X115032111Y-53885165D01*
X114811291Y-53918955D01*
X114598956Y-53988357D01*
X114543138Y-54017414D01*
X114459015Y-54061206D01*
X114400807Y-54091507D01*
X114396674Y-54094610D01*
X114396671Y-54094612D01*
X114313971Y-54156705D01*
X114222165Y-54225635D01*
X114067829Y-54387138D01*
X113941943Y-54571680D01*
X113902446Y-54656770D01*
X113856952Y-54754779D01*
X113847888Y-54774305D01*
X113788189Y-54989570D01*
X113764451Y-55211695D01*
X113764748Y-55216848D01*
X113764748Y-55216851D01*
X113766371Y-55245000D01*
X113777310Y-55434715D01*
X113778447Y-55439761D01*
X113778448Y-55439767D01*
X113792636Y-55502721D01*
X113826422Y-55652639D01*
X113910466Y-55859616D01*
X113947776Y-55920500D01*
X114024491Y-56045688D01*
X114027187Y-56050088D01*
X114173450Y-56218938D01*
X114345326Y-56361632D01*
X114349783Y-56364236D01*
X114349788Y-56364240D01*
X114431070Y-56411737D01*
X114479794Y-56463375D01*
X114493500Y-56520525D01*
X114493500Y-59312724D01*
X114491949Y-59332434D01*
X114488780Y-59352443D01*
X114489526Y-59360335D01*
X114492941Y-59396461D01*
X114493500Y-59408319D01*
X114493500Y-70318733D01*
X114492973Y-70329916D01*
X114491298Y-70337409D01*
X114491547Y-70345335D01*
X114491547Y-70345336D01*
X114493438Y-70405486D01*
X114493500Y-70409445D01*
X114493500Y-70476796D01*
X114473498Y-70544917D01*
X114425680Y-70588559D01*
X114400807Y-70601507D01*
X114396674Y-70604610D01*
X114396671Y-70604612D01*
X114252397Y-70712936D01*
X114222165Y-70735635D01*
X114168588Y-70791700D01*
X114106085Y-70857106D01*
X114067829Y-70897138D01*
X114064920Y-70901403D01*
X114064914Y-70901411D01*
X114005366Y-70988705D01*
X113941943Y-71081680D01*
X113847888Y-71284305D01*
X113788189Y-71499570D01*
X113764451Y-71721695D01*
X109432162Y-71721695D01*
X109422209Y-71627000D01*
X109413332Y-71542535D01*
X109413332Y-71542533D01*
X109412642Y-71535972D01*
X109353627Y-71354344D01*
X109258140Y-71188956D01*
X109197403Y-71121500D01*
X109134775Y-71051945D01*
X109134774Y-71051944D01*
X109130353Y-71047034D01*
X108975852Y-70934782D01*
X108969824Y-70932098D01*
X108969822Y-70932097D01*
X108807419Y-70859791D01*
X108807418Y-70859791D01*
X108801388Y-70857106D01*
X108693615Y-70834198D01*
X108621044Y-70818772D01*
X108621039Y-70818772D01*
X108614587Y-70817400D01*
X108558694Y-70817400D01*
X108490573Y-70797398D01*
X108469599Y-70780495D01*
X107113647Y-69424542D01*
X107079621Y-69362230D01*
X107084686Y-69291414D01*
X107109103Y-69251141D01*
X107153040Y-69202344D01*
X107233789Y-69062483D01*
X107245223Y-69042679D01*
X107245224Y-69042678D01*
X107248527Y-69036956D01*
X107307542Y-68855328D01*
X107313090Y-68802547D01*
X107326814Y-68671965D01*
X107327504Y-68665400D01*
X107317756Y-68572649D01*
X107308232Y-68482035D01*
X107308232Y-68482033D01*
X107307542Y-68475472D01*
X107248527Y-68293844D01*
X107244228Y-68286397D01*
X107156341Y-68134174D01*
X107153040Y-68128456D01*
X107025253Y-67986534D01*
X106892248Y-67889900D01*
X106876094Y-67878163D01*
X106876093Y-67878162D01*
X106870752Y-67874282D01*
X106864724Y-67871598D01*
X106864722Y-67871597D01*
X106702319Y-67799291D01*
X106702318Y-67799291D01*
X106696288Y-67796606D01*
X106602887Y-67776753D01*
X106515944Y-67758272D01*
X106515939Y-67758272D01*
X106509487Y-67756900D01*
X106318513Y-67756900D01*
X106312061Y-67758272D01*
X106312056Y-67758272D01*
X106225113Y-67776753D01*
X106131712Y-67796606D01*
X106125682Y-67799291D01*
X106125681Y-67799291D01*
X105963278Y-67871597D01*
X105963276Y-67871598D01*
X105957248Y-67874282D01*
X105951907Y-67878162D01*
X105951906Y-67878163D01*
X105935752Y-67889900D01*
X105802747Y-67986534D01*
X105674960Y-68128456D01*
X105671659Y-68134174D01*
X105583773Y-68286397D01*
X105579473Y-68293844D01*
X105520458Y-68475472D01*
X105519768Y-68482033D01*
X105519768Y-68482035D01*
X105510244Y-68572649D01*
X105500496Y-68665400D01*
X97159104Y-68665400D01*
X103933019Y-61891486D01*
X103995916Y-61857335D01*
X104130188Y-61828794D01*
X104239775Y-61780003D01*
X104298622Y-61753803D01*
X104298624Y-61753802D01*
X104304652Y-61751118D01*
X104459153Y-61638866D01*
X104467754Y-61629314D01*
X104582521Y-61501852D01*
X104582522Y-61501851D01*
X104586940Y-61496944D01*
X104682427Y-61331556D01*
X104741442Y-61149928D01*
X104744714Y-61118803D01*
X104760714Y-60966565D01*
X104761404Y-60960000D01*
X104749578Y-60847480D01*
X104742132Y-60776635D01*
X104742132Y-60776633D01*
X104741442Y-60770072D01*
X104682427Y-60588444D01*
X104667238Y-60562135D01*
X104590241Y-60428774D01*
X104586940Y-60423056D01*
X104546698Y-60378362D01*
X104463575Y-60286045D01*
X104463574Y-60286044D01*
X104459153Y-60281134D01*
X104334159Y-60190320D01*
X104309994Y-60172763D01*
X104309993Y-60172762D01*
X104304652Y-60168882D01*
X104298624Y-60166198D01*
X104298622Y-60166197D01*
X104136219Y-60093891D01*
X104136218Y-60093891D01*
X104130188Y-60091206D01*
X104007864Y-60065205D01*
X103949844Y-60052872D01*
X103949839Y-60052872D01*
X103943387Y-60051500D01*
X103752413Y-60051500D01*
X103745961Y-60052872D01*
X103745956Y-60052872D01*
X103687936Y-60065205D01*
X103565612Y-60091206D01*
X103559582Y-60093891D01*
X103559581Y-60093891D01*
X103397178Y-60166197D01*
X103397176Y-60166198D01*
X103391148Y-60168882D01*
X103385807Y-60172762D01*
X103385806Y-60172763D01*
X103361641Y-60190320D01*
X103236647Y-60281134D01*
X103232226Y-60286044D01*
X103232225Y-60286045D01*
X103149103Y-60378362D01*
X103108860Y-60423056D01*
X103105559Y-60428774D01*
X103028563Y-60562135D01*
X103013373Y-60588444D01*
X102954358Y-60770072D01*
X102953668Y-60776633D01*
X102953668Y-60776635D01*
X102946222Y-60847480D01*
X102934396Y-60960000D01*
X102935086Y-60966565D01*
X102935086Y-60966566D01*
X102941267Y-61025380D01*
X102928494Y-61095218D01*
X102905052Y-61127644D01*
X101782095Y-62250600D01*
X101719783Y-62284626D01*
X101648967Y-62279561D01*
X101592132Y-62237014D01*
X101567321Y-62170494D01*
X101567000Y-62161505D01*
X101567000Y-60916794D01*
X101587002Y-60848673D01*
X101603905Y-60827699D01*
X102398499Y-60033105D01*
X102460811Y-59999079D01*
X102487594Y-59996200D01*
X102543487Y-59996200D01*
X102549939Y-59994828D01*
X102549944Y-59994828D01*
X102637970Y-59976117D01*
X102730288Y-59956494D01*
X102736319Y-59953809D01*
X102898722Y-59881503D01*
X102898724Y-59881502D01*
X102904752Y-59878818D01*
X103059253Y-59766566D01*
X103162656Y-59651725D01*
X103176995Y-59635800D01*
X104881396Y-59635800D01*
X104882086Y-59642365D01*
X104900418Y-59816780D01*
X104901358Y-59825728D01*
X104960373Y-60007356D01*
X104963676Y-60013078D01*
X104963677Y-60013079D01*
X104967682Y-60020015D01*
X105055860Y-60172744D01*
X105060278Y-60177651D01*
X105060279Y-60177652D01*
X105174892Y-60304943D01*
X105183647Y-60314666D01*
X105338148Y-60426918D01*
X105344176Y-60429602D01*
X105344178Y-60429603D01*
X105361080Y-60437128D01*
X105512612Y-60504594D01*
X105590765Y-60521206D01*
X105692956Y-60542928D01*
X105692961Y-60542928D01*
X105699413Y-60544300D01*
X105755306Y-60544300D01*
X105823427Y-60564302D01*
X105844401Y-60581205D01*
X112030795Y-66767600D01*
X112064821Y-66829912D01*
X112067700Y-66856695D01*
X112067700Y-67187376D01*
X112047698Y-67255497D01*
X112035342Y-67271679D01*
X111962160Y-67352956D01*
X111866673Y-67518344D01*
X111807658Y-67699972D01*
X111787696Y-67889900D01*
X111788386Y-67896465D01*
X111797853Y-67986534D01*
X111807658Y-68079828D01*
X111866673Y-68261456D01*
X111962160Y-68426844D01*
X111966578Y-68431751D01*
X111966579Y-68431752D01*
X112083661Y-68561785D01*
X112089947Y-68568766D01*
X112158566Y-68618621D01*
X112231988Y-68671965D01*
X112244448Y-68681018D01*
X112250476Y-68683702D01*
X112250478Y-68683703D01*
X112263355Y-68689436D01*
X112418912Y-68758694D01*
X112512313Y-68778547D01*
X112599256Y-68797028D01*
X112599261Y-68797028D01*
X112605713Y-68798400D01*
X112796687Y-68798400D01*
X112803139Y-68797028D01*
X112803144Y-68797028D01*
X112890087Y-68778547D01*
X112983488Y-68758694D01*
X113139045Y-68689436D01*
X113151922Y-68683703D01*
X113151924Y-68683702D01*
X113157952Y-68681018D01*
X113170413Y-68671965D01*
X113243834Y-68618621D01*
X113312453Y-68568766D01*
X113318739Y-68561785D01*
X113435821Y-68431752D01*
X113435822Y-68431751D01*
X113440240Y-68426844D01*
X113535727Y-68261456D01*
X113594742Y-68079828D01*
X113604548Y-67986534D01*
X113614014Y-67896465D01*
X113614704Y-67889900D01*
X113594742Y-67699972D01*
X113535727Y-67518344D01*
X113440240Y-67352956D01*
X113367063Y-67271685D01*
X113336347Y-67207679D01*
X113334700Y-67187376D01*
X113334700Y-66620867D01*
X113335227Y-66609684D01*
X113336902Y-66602191D01*
X113334762Y-66534114D01*
X113334700Y-66530155D01*
X113334700Y-66502244D01*
X113334195Y-66498244D01*
X113333262Y-66486401D01*
X113332122Y-66450129D01*
X113331873Y-66442210D01*
X113326222Y-66422758D01*
X113322214Y-66403406D01*
X113320667Y-66391163D01*
X113319674Y-66383303D01*
X113316756Y-66375932D01*
X113303400Y-66342197D01*
X113299555Y-66330970D01*
X113292515Y-66306739D01*
X113287218Y-66288507D01*
X113281815Y-66279370D01*
X113276907Y-66271072D01*
X113268212Y-66253324D01*
X113260752Y-66234483D01*
X113255502Y-66227256D01*
X113234764Y-66198713D01*
X113228248Y-66188793D01*
X113209780Y-66157565D01*
X113209778Y-66157562D01*
X113205742Y-66150738D01*
X113191421Y-66136417D01*
X113178580Y-66121383D01*
X113171331Y-66111406D01*
X113166672Y-66104993D01*
X113132595Y-66076802D01*
X113123816Y-66068812D01*
X106742022Y-59687017D01*
X106707996Y-59624705D01*
X106705807Y-59611092D01*
X106689132Y-59452435D01*
X106689132Y-59452433D01*
X106688442Y-59445872D01*
X106629427Y-59264244D01*
X106533940Y-59098856D01*
X106460763Y-59017585D01*
X106430047Y-58953579D01*
X106428400Y-58933276D01*
X106428400Y-55643186D01*
X106448402Y-55575065D01*
X106460764Y-55558876D01*
X106539121Y-55471852D01*
X106539122Y-55471851D01*
X106543540Y-55466944D01*
X106639027Y-55301556D01*
X106698042Y-55119928D01*
X106706421Y-55040211D01*
X106717314Y-54936565D01*
X106718004Y-54930000D01*
X106701147Y-54769610D01*
X106698732Y-54746635D01*
X106698732Y-54746633D01*
X106698042Y-54740072D01*
X106639027Y-54558444D01*
X106543540Y-54393056D01*
X106538212Y-54387138D01*
X106420175Y-54256045D01*
X106420174Y-54256044D01*
X106415753Y-54251134D01*
X106285783Y-54156705D01*
X106266594Y-54142763D01*
X106266593Y-54142762D01*
X106261252Y-54138882D01*
X106255224Y-54136198D01*
X106255222Y-54136197D01*
X106092819Y-54063891D01*
X106092818Y-54063891D01*
X106086788Y-54061206D01*
X105983616Y-54039276D01*
X105906444Y-54022872D01*
X105906439Y-54022872D01*
X105899987Y-54021500D01*
X105709013Y-54021500D01*
X105702561Y-54022872D01*
X105702556Y-54022872D01*
X105625384Y-54039276D01*
X105522212Y-54061206D01*
X105516182Y-54063891D01*
X105516181Y-54063891D01*
X105353778Y-54136197D01*
X105353776Y-54136198D01*
X105347748Y-54138882D01*
X105342407Y-54142762D01*
X105342406Y-54142763D01*
X105323217Y-54156705D01*
X105193247Y-54251134D01*
X105188826Y-54256044D01*
X105188825Y-54256045D01*
X105070789Y-54387138D01*
X105065460Y-54393056D01*
X104969973Y-54558444D01*
X104910958Y-54740072D01*
X104910268Y-54746633D01*
X104910268Y-54746635D01*
X104907853Y-54769610D01*
X104890996Y-54930000D01*
X104891686Y-54936565D01*
X104902580Y-55040211D01*
X104910958Y-55119928D01*
X104969973Y-55301556D01*
X104973276Y-55307278D01*
X104973277Y-55307279D01*
X105016389Y-55381951D01*
X105065460Y-55466944D01*
X105069878Y-55471851D01*
X105069879Y-55471852D01*
X105129036Y-55537552D01*
X105159753Y-55601560D01*
X105161400Y-55621863D01*
X105161400Y-58933276D01*
X105141398Y-59001397D01*
X105129042Y-59017579D01*
X105055860Y-59098856D01*
X104960373Y-59264244D01*
X104901358Y-59445872D01*
X104900668Y-59452433D01*
X104900668Y-59452435D01*
X104882569Y-59624644D01*
X104881396Y-59635800D01*
X103176995Y-59635800D01*
X103182621Y-59629552D01*
X103182622Y-59629551D01*
X103187040Y-59624644D01*
X103282527Y-59459256D01*
X103341542Y-59277628D01*
X103359731Y-59104574D01*
X103360814Y-59094265D01*
X103361504Y-59087700D01*
X103353047Y-59007234D01*
X103342232Y-58904335D01*
X103342232Y-58904333D01*
X103341542Y-58897772D01*
X103282527Y-58716144D01*
X103187040Y-58550756D01*
X103147196Y-58506504D01*
X103063675Y-58413745D01*
X103063674Y-58413744D01*
X103059253Y-58408834D01*
X102904752Y-58296582D01*
X102898724Y-58293898D01*
X102898722Y-58293897D01*
X102736319Y-58221591D01*
X102736318Y-58221591D01*
X102730288Y-58218906D01*
X102723830Y-58217533D01*
X102723826Y-58217532D01*
X102715317Y-58215723D01*
X102652844Y-58181993D01*
X102618525Y-58119842D01*
X102623254Y-58049004D01*
X102652422Y-58003382D01*
X103830399Y-56825405D01*
X103892711Y-56791379D01*
X103919494Y-56788500D01*
X103975387Y-56788500D01*
X103981839Y-56787128D01*
X103981844Y-56787128D01*
X104068787Y-56768647D01*
X104162188Y-56748794D01*
X104183020Y-56739519D01*
X104330622Y-56673803D01*
X104330624Y-56673802D01*
X104336652Y-56671118D01*
X104491153Y-56558866D01*
X104571827Y-56469268D01*
X104614521Y-56421852D01*
X104614522Y-56421851D01*
X104618940Y-56416944D01*
X104696545Y-56282529D01*
X104711123Y-56257279D01*
X104711124Y-56257278D01*
X104714427Y-56251556D01*
X104773442Y-56069928D01*
X104775905Y-56046500D01*
X104792714Y-55886565D01*
X104793404Y-55880000D01*
X104786026Y-55809798D01*
X104774132Y-55696635D01*
X104774132Y-55696633D01*
X104773442Y-55690072D01*
X104714427Y-55508444D01*
X104708975Y-55499000D01*
X104622241Y-55348774D01*
X104618940Y-55343056D01*
X104496041Y-55206562D01*
X104495575Y-55206045D01*
X104495574Y-55206044D01*
X104491153Y-55201134D01*
X104336652Y-55088882D01*
X104330624Y-55086198D01*
X104330622Y-55086197D01*
X104168219Y-55013891D01*
X104168218Y-55013891D01*
X104162188Y-55011206D01*
X104060399Y-54989570D01*
X103981844Y-54972872D01*
X103981839Y-54972872D01*
X103975387Y-54971500D01*
X103784413Y-54971500D01*
X103777961Y-54972872D01*
X103777956Y-54972872D01*
X103699401Y-54989570D01*
X103597612Y-55011206D01*
X103591582Y-55013891D01*
X103591581Y-55013891D01*
X103429178Y-55086197D01*
X103429176Y-55086198D01*
X103423148Y-55088882D01*
X103268647Y-55201134D01*
X103264226Y-55206044D01*
X103264225Y-55206045D01*
X103263760Y-55206562D01*
X103140860Y-55343056D01*
X103137559Y-55348774D01*
X103050826Y-55499000D01*
X103045373Y-55508444D01*
X102986358Y-55690072D01*
X102985668Y-55696633D01*
X102985668Y-55696635D01*
X102968993Y-55855292D01*
X102941980Y-55920949D01*
X102932778Y-55931217D01*
X101521900Y-57342095D01*
X101459588Y-57376121D01*
X101432805Y-57379000D01*
X91931776Y-57379000D01*
X91863655Y-57358998D01*
X91817162Y-57305342D01*
X91807058Y-57235068D01*
X91836552Y-57170488D01*
X91899165Y-57131293D01*
X91957333Y-57115707D01*
X91957335Y-57115706D01*
X91962643Y-57114284D01*
X91967625Y-57111961D01*
X92165162Y-57019849D01*
X92165167Y-57019846D01*
X92170149Y-57017523D01*
X92275011Y-56944098D01*
X92353189Y-56889357D01*
X92353192Y-56889355D01*
X92357700Y-56886198D01*
X92519598Y-56724300D01*
X92554957Y-56673803D01*
X92596211Y-56614886D01*
X92650923Y-56536749D01*
X92653246Y-56531767D01*
X92653249Y-56531762D01*
X92745361Y-56334225D01*
X92745361Y-56334224D01*
X92747684Y-56329243D01*
X92758422Y-56289171D01*
X92805519Y-56113402D01*
X92805519Y-56113400D01*
X92806943Y-56108087D01*
X92826898Y-55880000D01*
X92806943Y-55651913D01*
X92791645Y-55594820D01*
X92749107Y-55436067D01*
X92749106Y-55436065D01*
X92747684Y-55430757D01*
X92687437Y-55301556D01*
X92653249Y-55228238D01*
X92653246Y-55228233D01*
X92650923Y-55223251D01*
X92573232Y-55112297D01*
X92522757Y-55040211D01*
X92522755Y-55040208D01*
X92519598Y-55035700D01*
X92357700Y-54873802D01*
X92353192Y-54870645D01*
X92353189Y-54870643D01*
X92215604Y-54774305D01*
X92170149Y-54742477D01*
X92165167Y-54740154D01*
X92165162Y-54740151D01*
X91967625Y-54648039D01*
X91967624Y-54648039D01*
X91962643Y-54645716D01*
X91957335Y-54644294D01*
X91957333Y-54644293D01*
X91746802Y-54587881D01*
X91746800Y-54587881D01*
X91741487Y-54586457D01*
X91513400Y-54566502D01*
X91285313Y-54586457D01*
X91280000Y-54587881D01*
X91279998Y-54587881D01*
X91069467Y-54644293D01*
X91069465Y-54644294D01*
X91064157Y-54645716D01*
X91059176Y-54648039D01*
X91059175Y-54648039D01*
X90861638Y-54740151D01*
X90861633Y-54740154D01*
X90856651Y-54742477D01*
X90811196Y-54774305D01*
X90673611Y-54870643D01*
X90673608Y-54870645D01*
X90669100Y-54873802D01*
X90507202Y-55035700D01*
X90504045Y-55040208D01*
X90504043Y-55040211D01*
X90397219Y-55192771D01*
X90341762Y-55237099D01*
X90294006Y-55246500D01*
X88922794Y-55246500D01*
X88854673Y-55226498D01*
X88819581Y-55192771D01*
X88712757Y-55040211D01*
X88712755Y-55040208D01*
X88709598Y-55035700D01*
X88547700Y-54873802D01*
X88543192Y-54870645D01*
X88543189Y-54870643D01*
X88405604Y-54774305D01*
X88360149Y-54742477D01*
X88355167Y-54740154D01*
X88355162Y-54740151D01*
X88157625Y-54648039D01*
X88157624Y-54648039D01*
X88152643Y-54645716D01*
X88147335Y-54644294D01*
X88147333Y-54644293D01*
X87936802Y-54587881D01*
X87936800Y-54587881D01*
X87931487Y-54586457D01*
X87703400Y-54566502D01*
X87475313Y-54586457D01*
X87470000Y-54587881D01*
X87469998Y-54587881D01*
X87259467Y-54644293D01*
X87259465Y-54644294D01*
X87254157Y-54645716D01*
X87249176Y-54648039D01*
X87249175Y-54648039D01*
X87051638Y-54740151D01*
X87051633Y-54740154D01*
X87046651Y-54742477D01*
X87001196Y-54774305D01*
X86863611Y-54870643D01*
X86863608Y-54870645D01*
X86859100Y-54873802D01*
X86697202Y-55035700D01*
X86694045Y-55040208D01*
X86694043Y-55040211D01*
X86643568Y-55112297D01*
X86565877Y-55223251D01*
X86563554Y-55228233D01*
X86563551Y-55228238D01*
X86529363Y-55301556D01*
X86469116Y-55430757D01*
X86467694Y-55436065D01*
X86467693Y-55436067D01*
X86425155Y-55594820D01*
X86409857Y-55651913D01*
X86389902Y-55880000D01*
X86390381Y-55885475D01*
X86390381Y-55885483D01*
X86392484Y-55909516D01*
X86378497Y-55979121D01*
X86329098Y-56030114D01*
X86266964Y-56046500D01*
X84861200Y-56046500D01*
X84793079Y-56026498D01*
X84746586Y-55972842D01*
X84735200Y-55920500D01*
X84735200Y-55517115D01*
X84730725Y-55501876D01*
X84729335Y-55500671D01*
X84721652Y-55499000D01*
X83249200Y-55499000D01*
X83181079Y-55478998D01*
X83134586Y-55425342D01*
X83123200Y-55373000D01*
X83123200Y-54972885D01*
X83631200Y-54972885D01*
X83635675Y-54988124D01*
X83637065Y-54989329D01*
X83644748Y-54991000D01*
X84717084Y-54991000D01*
X84732323Y-54986525D01*
X84733528Y-54985135D01*
X84735199Y-54977452D01*
X84735199Y-54350331D01*
X84734829Y-54343510D01*
X84729305Y-54292648D01*
X84725679Y-54277396D01*
X84680524Y-54156946D01*
X84671986Y-54141351D01*
X84595485Y-54039276D01*
X84582924Y-54026715D01*
X84480849Y-53950214D01*
X84465254Y-53941676D01*
X84344806Y-53896522D01*
X84329551Y-53892895D01*
X84278686Y-53887369D01*
X84271872Y-53887000D01*
X83649315Y-53887000D01*
X83634076Y-53891475D01*
X83632871Y-53892865D01*
X83631200Y-53900548D01*
X83631200Y-54972885D01*
X83123200Y-54972885D01*
X83123200Y-53905116D01*
X83118725Y-53889877D01*
X83117335Y-53888672D01*
X83109652Y-53887001D01*
X82482531Y-53887001D01*
X82475710Y-53887371D01*
X82424848Y-53892895D01*
X82409596Y-53896521D01*
X82289146Y-53941676D01*
X82273551Y-53950214D01*
X82171476Y-54026715D01*
X82158915Y-54039276D01*
X82082414Y-54141351D01*
X82073876Y-54156946D01*
X82032497Y-54267322D01*
X81989855Y-54324087D01*
X81923293Y-54348786D01*
X81853944Y-54333578D01*
X81821321Y-54307891D01*
X81770351Y-54251876D01*
X81770345Y-54251870D01*
X81766870Y-54248051D01*
X81762819Y-54244852D01*
X81762815Y-54244848D01*
X81595614Y-54112800D01*
X81595610Y-54112798D01*
X81591559Y-54109598D01*
X81555228Y-54089542D01*
X81534071Y-54077863D01*
X81395989Y-54001638D01*
X81391120Y-53999914D01*
X81391116Y-53999912D01*
X81190287Y-53928795D01*
X81190283Y-53928794D01*
X81185412Y-53927069D01*
X81180319Y-53926162D01*
X81180316Y-53926161D01*
X80970573Y-53888800D01*
X80970567Y-53888799D01*
X80965484Y-53887894D01*
X80891652Y-53886992D01*
X80747281Y-53885228D01*
X80747279Y-53885228D01*
X80742111Y-53885165D01*
X80521291Y-53918955D01*
X80308956Y-53988357D01*
X80253138Y-54017414D01*
X80169015Y-54061206D01*
X80110807Y-54091507D01*
X80106674Y-54094610D01*
X80106671Y-54094612D01*
X80023971Y-54156705D01*
X79932165Y-54225635D01*
X79777829Y-54387138D01*
X79774920Y-54391403D01*
X79774914Y-54391411D01*
X79662295Y-54556504D01*
X79607384Y-54601507D01*
X79558207Y-54611500D01*
X74373767Y-54611500D01*
X74362584Y-54610973D01*
X74355091Y-54609298D01*
X74347165Y-54609547D01*
X74347164Y-54609547D01*
X74287001Y-54611438D01*
X74283043Y-54611500D01*
X74255144Y-54611500D01*
X74251154Y-54612004D01*
X74239320Y-54612936D01*
X74195111Y-54614326D01*
X74187497Y-54616538D01*
X74187492Y-54616539D01*
X74175659Y-54619977D01*
X74156296Y-54623988D01*
X74136203Y-54626526D01*
X74128836Y-54629443D01*
X74128831Y-54629444D01*
X74095092Y-54642802D01*
X74083865Y-54646646D01*
X74041407Y-54658982D01*
X74034581Y-54663019D01*
X74023972Y-54669293D01*
X74006224Y-54677988D01*
X73987383Y-54685448D01*
X73980967Y-54690110D01*
X73980966Y-54690110D01*
X73951613Y-54711436D01*
X73941693Y-54717952D01*
X73910465Y-54736420D01*
X73910462Y-54736422D01*
X73903638Y-54740458D01*
X73889317Y-54754779D01*
X73874284Y-54767619D01*
X73857893Y-54779528D01*
X73852842Y-54785634D01*
X73829702Y-54813605D01*
X73821712Y-54822384D01*
X68822747Y-59821348D01*
X68814461Y-59828888D01*
X68807982Y-59833000D01*
X68802557Y-59838777D01*
X68761357Y-59882651D01*
X68758602Y-59885493D01*
X68738865Y-59905230D01*
X68736385Y-59908427D01*
X68728682Y-59917447D01*
X68698414Y-59949679D01*
X68694595Y-59956625D01*
X68694593Y-59956628D01*
X68688652Y-59967434D01*
X68677801Y-59983953D01*
X68665386Y-59999959D01*
X68662241Y-60007228D01*
X68662238Y-60007232D01*
X68647826Y-60040537D01*
X68642609Y-60051187D01*
X68621305Y-60089940D01*
X68619334Y-60097615D01*
X68619334Y-60097616D01*
X68616267Y-60109562D01*
X68609863Y-60128266D01*
X68608963Y-60130347D01*
X68601819Y-60146855D01*
X68600580Y-60154678D01*
X68600577Y-60154688D01*
X68594901Y-60190524D01*
X68592495Y-60202144D01*
X68584361Y-60233828D01*
X68581500Y-60244970D01*
X68581500Y-60265224D01*
X68579949Y-60284934D01*
X68576780Y-60304943D01*
X67315700Y-60304943D01*
X67315700Y-56412364D01*
X67335702Y-56344243D01*
X67389358Y-56297750D01*
X67459632Y-56287646D01*
X67524212Y-56317140D01*
X67549816Y-56347658D01*
X67591435Y-56417198D01*
X67611761Y-56451161D01*
X67791513Y-56675528D01*
X67870165Y-56750166D01*
X67949451Y-56825405D01*
X68000051Y-56873423D01*
X68022987Y-56889904D01*
X68203824Y-57019849D01*
X68233517Y-57041186D01*
X68237312Y-57043195D01*
X68237313Y-57043196D01*
X68259069Y-57054715D01*
X68487592Y-57175712D01*
X68622582Y-57225111D01*
X68734365Y-57266018D01*
X68757573Y-57274511D01*
X69038464Y-57335755D01*
X69067041Y-57338004D01*
X69261482Y-57353307D01*
X69261491Y-57353307D01*
X69263939Y-57353500D01*
X69419471Y-57353500D01*
X69421607Y-57353354D01*
X69421618Y-57353354D01*
X69629748Y-57339165D01*
X69629754Y-57339164D01*
X69634025Y-57338873D01*
X69638220Y-57338004D01*
X69638222Y-57338004D01*
X69816782Y-57301026D01*
X69915542Y-57280574D01*
X70186543Y-57184607D01*
X70442012Y-57052750D01*
X70445513Y-57050289D01*
X70445517Y-57050287D01*
X70559617Y-56970096D01*
X70677223Y-56887441D01*
X70783696Y-56788500D01*
X70884679Y-56694661D01*
X70884681Y-56694658D01*
X70887822Y-56691740D01*
X71069913Y-56469268D01*
X71220127Y-56224142D01*
X71224127Y-56215031D01*
X71333957Y-55964830D01*
X71335683Y-55960898D01*
X71363280Y-55864020D01*
X71413268Y-55688534D01*
X71414444Y-55684406D01*
X71454951Y-55399784D01*
X71455045Y-55381951D01*
X71456435Y-55116583D01*
X71456435Y-55116576D01*
X71456457Y-55112297D01*
X71453886Y-55092763D01*
X71431593Y-54923435D01*
X71418932Y-54827266D01*
X71417597Y-54822384D01*
X71378096Y-54677994D01*
X71343071Y-54549964D01*
X71274050Y-54388148D01*
X71231963Y-54289476D01*
X71231961Y-54289472D01*
X71230277Y-54285524D01*
X71126904Y-54112800D01*
X71084843Y-54042521D01*
X71084840Y-54042517D01*
X71082639Y-54038839D01*
X70902887Y-53814472D01*
X70694349Y-53616577D01*
X70627193Y-53568320D01*
X70583547Y-53512328D01*
X70577101Y-53441625D01*
X70609904Y-53378660D01*
X70671540Y-53343426D01*
X70700721Y-53340000D01*
X132762352Y-53340000D01*
X132830473Y-53360002D01*
G37*
G04 #@! TD.AperFunction*
G04 #@! TD*
M02*
