G04 #@! TF.GenerationSoftware,KiCad,Pcbnew,6.0.4*
G04 #@! TF.CreationDate,2022-05-06T17:46:11+10:00*
G04 #@! TF.ProjectId,modularnixie,6d6f6475-6c61-4726-9e69-7869652e6b69,rev?*
G04 #@! TF.SameCoordinates,Original*
G04 #@! TF.FileFunction,Soldermask,Top*
G04 #@! TF.FilePolarity,Negative*
%FSLAX46Y46*%
G04 Gerber Fmt 4.6, Leading zero omitted, Abs format (unit mm)*
G04 Created by KiCad (PCBNEW 6.0.4) date 2022-05-06 17:46:11*
%MOMM*%
%LPD*%
G01*
G04 APERTURE LIST*
G04 Aperture macros list*
%AMRoundRect*
0 Rectangle with rounded corners*
0 $1 Rounding radius*
0 $2 $3 $4 $5 $6 $7 $8 $9 X,Y pos of 4 corners*
0 Add a 4 corners polygon primitive as box body*
4,1,4,$2,$3,$4,$5,$6,$7,$8,$9,$2,$3,0*
0 Add four circle primitives for the rounded corners*
1,1,$1+$1,$2,$3*
1,1,$1+$1,$4,$5*
1,1,$1+$1,$6,$7*
1,1,$1+$1,$8,$9*
0 Add four rect primitives between the rounded corners*
20,1,$1+$1,$2,$3,$4,$5,0*
20,1,$1+$1,$4,$5,$6,$7,0*
20,1,$1+$1,$6,$7,$8,$9,0*
20,1,$1+$1,$8,$9,$2,$3,0*%
G04 Aperture macros list end*
%ADD10RoundRect,0.150000X0.587500X0.150000X-0.587500X0.150000X-0.587500X-0.150000X0.587500X-0.150000X0*%
%ADD11C,3.200000*%
%ADD12RoundRect,0.200000X-0.200000X-0.275000X0.200000X-0.275000X0.200000X0.275000X-0.200000X0.275000X0*%
%ADD13RoundRect,0.150000X-0.850000X-0.150000X0.850000X-0.150000X0.850000X0.150000X-0.850000X0.150000X0*%
%ADD14C,1.600000*%
%ADD15O,1.600000X1.600000*%
%ADD16R,1.700000X1.700000*%
%ADD17O,1.700000X1.700000*%
%ADD18RoundRect,0.200000X-0.275000X0.200000X-0.275000X-0.200000X0.275000X-0.200000X0.275000X0.200000X0*%
%ADD19R,1.500000X1.500000*%
%ADD20O,1.500000X1.500000*%
%ADD21RoundRect,0.225000X-0.250000X0.225000X-0.250000X-0.225000X0.250000X-0.225000X0.250000X0.225000X0*%
G04 APERTURE END LIST*
D10*
G04 #@! TO.C,Q4*
X107174700Y-72070000D03*
X107174700Y-70170000D03*
X105299700Y-71120000D03*
G04 #@! TD*
D11*
G04 #@! TO.C,H4*
X134117200Y-71755000D03*
G04 #@! TD*
D10*
G04 #@! TO.C,Q12*
X96984200Y-66990000D03*
X96984200Y-65090000D03*
X95109200Y-66040000D03*
G04 #@! TD*
D12*
G04 #@! TO.C,R3*
X119717200Y-67945000D03*
X121367200Y-67945000D03*
G04 #@! TD*
D13*
G04 #@! TO.C,U1*
X125217200Y-59690000D03*
X125217200Y-60960000D03*
X125217200Y-62230000D03*
X125217200Y-63500000D03*
X125217200Y-64770000D03*
X125217200Y-66040000D03*
X125217200Y-67310000D03*
X125217200Y-68580000D03*
X130217200Y-68580000D03*
X130217200Y-67310000D03*
X130217200Y-66040000D03*
X130217200Y-64770000D03*
X130217200Y-63500000D03*
X130217200Y-62230000D03*
X130217200Y-60960000D03*
X130217200Y-59690000D03*
G04 #@! TD*
D10*
G04 #@! TO.C,Q2*
X115954700Y-64450000D03*
X115954700Y-62550000D03*
X114079700Y-63500000D03*
G04 #@! TD*
D14*
G04 #@! TO.C,R30*
X91513400Y-71120000D03*
D15*
X91513400Y-55880000D03*
G04 #@! TD*
D16*
G04 #@! TO.C,J1*
X127827200Y-55245000D03*
D17*
X125287200Y-55245000D03*
X122747200Y-55245000D03*
X120207200Y-55245000D03*
X117667200Y-55245000D03*
X115127200Y-55245000D03*
G04 #@! TD*
D18*
G04 #@! TO.C,R9*
X132737200Y-65215000D03*
X132737200Y-66865000D03*
G04 #@! TD*
D10*
G04 #@! TO.C,Q14*
X102064200Y-56830000D03*
X102064200Y-54930000D03*
X100189200Y-55880000D03*
G04 #@! TD*
D16*
G04 #@! TO.C,J2*
X127827200Y-71755000D03*
D17*
X125287200Y-71755000D03*
X122747200Y-71755000D03*
X120207200Y-71755000D03*
X117667200Y-71755000D03*
X115127200Y-71755000D03*
G04 #@! TD*
D19*
G04 #@! TO.C,V1*
X76213400Y-68000000D03*
D20*
X78463399Y-67397114D03*
X80110514Y-65749999D03*
X80713400Y-63500000D03*
X80110514Y-61250000D03*
X78463400Y-59602886D03*
X76213400Y-59000000D03*
X73963400Y-59602886D03*
X72316286Y-61250000D03*
X71713400Y-63500000D03*
X72316286Y-65749999D03*
X73963401Y-67397114D03*
G04 #@! TD*
D11*
G04 #@! TO.C,H3*
X134117200Y-55245000D03*
G04 #@! TD*
G04 #@! TO.C,H1*
X69347200Y-55245000D03*
G04 #@! TD*
D10*
G04 #@! TO.C,Q3*
X115954700Y-68895000D03*
X115954700Y-66995000D03*
X114079700Y-67945000D03*
G04 #@! TD*
D12*
G04 #@! TO.C,R12*
X109222200Y-66040000D03*
X110872200Y-66040000D03*
G04 #@! TD*
D21*
G04 #@! TO.C,C1*
X132737200Y-60820000D03*
X132737200Y-62370000D03*
G04 #@! TD*
D10*
G04 #@! TO.C,Q10*
X96984200Y-56830000D03*
X96984200Y-54930000D03*
X95109200Y-55880000D03*
G04 #@! TD*
G04 #@! TO.C,Q13*
X96984200Y-72070000D03*
X96984200Y-70170000D03*
X95109200Y-71120000D03*
G04 #@! TD*
G04 #@! TO.C,Q17*
X102064200Y-72070000D03*
X102064200Y-70170000D03*
X100189200Y-71120000D03*
G04 #@! TD*
D16*
G04 #@! TO.C,J4*
X83377200Y-55245000D03*
D17*
X80837200Y-55245000D03*
G04 #@! TD*
D10*
G04 #@! TO.C,Q15*
X102064200Y-61910000D03*
X102064200Y-60010000D03*
X100189200Y-60960000D03*
G04 #@! TD*
G04 #@! TO.C,Q16*
X102064200Y-66990000D03*
X102064200Y-65090000D03*
X100189200Y-66040000D03*
G04 #@! TD*
D16*
G04 #@! TO.C,J3*
X83377200Y-71755000D03*
D17*
X80837200Y-71755000D03*
G04 #@! TD*
D10*
G04 #@! TO.C,Q19*
X107144200Y-61910000D03*
X107144200Y-60010000D03*
X105269200Y-60960000D03*
G04 #@! TD*
D14*
G04 #@! TO.C,R31*
X87703400Y-71120000D03*
D15*
X87703400Y-55880000D03*
G04 #@! TD*
D10*
G04 #@! TO.C,Q18*
X107144200Y-56830000D03*
X107144200Y-54930000D03*
X105269200Y-55880000D03*
G04 #@! TD*
G04 #@! TO.C,Q1*
X115954700Y-60005000D03*
X115954700Y-58105000D03*
X114079700Y-59055000D03*
G04 #@! TD*
D12*
G04 #@! TO.C,R1*
X119907200Y-60325000D03*
X121557200Y-60325000D03*
G04 #@! TD*
G04 #@! TO.C,R10*
X109222200Y-56515000D03*
X110872200Y-56515000D03*
G04 #@! TD*
G04 #@! TO.C,R11*
X109222200Y-60960000D03*
X110872200Y-60960000D03*
G04 #@! TD*
G04 #@! TO.C,R4*
X105152900Y-67310000D03*
X106802900Y-67310000D03*
G04 #@! TD*
D10*
G04 #@! TO.C,Q11*
X96984200Y-61910000D03*
X96984200Y-60010000D03*
X95109200Y-60960000D03*
G04 #@! TD*
D12*
G04 #@! TO.C,R13*
X109222200Y-70485000D03*
X110872200Y-70485000D03*
G04 #@! TD*
G04 #@! TO.C,R2*
X119907200Y-64135000D03*
X121557200Y-64135000D03*
G04 #@! TD*
D11*
G04 #@! TO.C,H2*
X69347200Y-71755000D03*
G04 #@! TD*
M02*
