M48
; DRILL file {KiCad 6.0.4} date Fri 06 May 2022 17:46:14
; FORMAT={-:-/ absolute / inch / decimal}
; #@! TF.CreationDate,2022-05-06T17:46:14+10:00
; #@! TF.GenerationSoftware,Kicad,Pcbnew,6.0.4
; #@! TF.FileFunction,Plated,1,2,PTH
FMAT,2
INCH
; #@! TA.AperFunction,Plated,PTH,ViaDrill
T1C0.0157
; #@! TA.AperFunction,Plated,PTH,ComponentDrill
T2C0.0315
; #@! TA.AperFunction,Plated,PTH,ComponentDrill
T3C0.0394
%
G90
G05
T1
X3.3776Y-2.5928
X3.5908Y-2.6469
X3.8959Y-2.5546
X3.9738Y-2.4783
X4.0334Y-2.3263
X4.0885Y-2.4
X4.0898Y-2.2
X4.1652Y-2.3479
X4.1655Y-2.1626
X4.1895Y-2.7034
X4.2724Y-2.8239
X4.4371Y-2.6728
X4.7032Y-2.4806
X4.8062Y-2.7426
X4.8262Y-2.375
X4.8337Y-2.4519
X4.8665Y-2.5103
T2
X2.8234Y-2.5
X2.8471Y-2.4114
X2.8471Y-2.5886
X2.9119Y-2.3466
X2.9119Y-2.6534
X3.0005Y-2.3228
X3.0005Y-2.6772
X3.0891Y-2.6534
X3.0891Y-2.3466
X3.154Y-2.4114
X3.154Y-2.5886
X3.1777Y-2.5
X3.4529Y-2.2
X3.4529Y-2.8
X3.6029Y-2.2
X3.6029Y-2.8
T3
X3.1826Y-2.175
X3.1826Y-2.825
X3.2826Y-2.175
X3.2826Y-2.825
X4.5326Y-2.175
X4.5326Y-2.825
X4.6326Y-2.175
X4.6326Y-2.825
X4.7326Y-2.175
X4.7326Y-2.825
X4.8326Y-2.175
X4.8326Y-2.825
X4.9326Y-2.175
X4.9326Y-2.825
X5.0326Y-2.175
X5.0326Y-2.825
T0
M30
