G04 #@! TF.GenerationSoftware,KiCad,Pcbnew,6.0.4*
G04 #@! TF.CreationDate,2022-05-06T17:46:11+10:00*
G04 #@! TF.ProjectId,modularnixie,6d6f6475-6c61-4726-9e69-7869652e6b69,rev?*
G04 #@! TF.SameCoordinates,Original*
G04 #@! TF.FileFunction,Copper,L1,Top*
G04 #@! TF.FilePolarity,Positive*
%FSLAX46Y46*%
G04 Gerber Fmt 4.6, Leading zero omitted, Abs format (unit mm)*
G04 Created by KiCad (PCBNEW 6.0.4) date 2022-05-06 17:46:11*
%MOMM*%
%LPD*%
G01*
G04 APERTURE LIST*
G04 Aperture macros list*
%AMRoundRect*
0 Rectangle with rounded corners*
0 $1 Rounding radius*
0 $2 $3 $4 $5 $6 $7 $8 $9 X,Y pos of 4 corners*
0 Add a 4 corners polygon primitive as box body*
4,1,4,$2,$3,$4,$5,$6,$7,$8,$9,$2,$3,0*
0 Add four circle primitives for the rounded corners*
1,1,$1+$1,$2,$3*
1,1,$1+$1,$4,$5*
1,1,$1+$1,$6,$7*
1,1,$1+$1,$8,$9*
0 Add four rect primitives between the rounded corners*
20,1,$1+$1,$2,$3,$4,$5,0*
20,1,$1+$1,$4,$5,$6,$7,0*
20,1,$1+$1,$6,$7,$8,$9,0*
20,1,$1+$1,$8,$9,$2,$3,0*%
G04 Aperture macros list end*
G04 #@! TA.AperFunction,SMDPad,CuDef*
%ADD10RoundRect,0.150000X0.587500X0.150000X-0.587500X0.150000X-0.587500X-0.150000X0.587500X-0.150000X0*%
G04 #@! TD*
G04 #@! TA.AperFunction,SMDPad,CuDef*
%ADD11RoundRect,0.200000X-0.200000X-0.275000X0.200000X-0.275000X0.200000X0.275000X-0.200000X0.275000X0*%
G04 #@! TD*
G04 #@! TA.AperFunction,SMDPad,CuDef*
%ADD12RoundRect,0.150000X-0.850000X-0.150000X0.850000X-0.150000X0.850000X0.150000X-0.850000X0.150000X0*%
G04 #@! TD*
G04 #@! TA.AperFunction,ComponentPad*
%ADD13C,1.600000*%
G04 #@! TD*
G04 #@! TA.AperFunction,ComponentPad*
%ADD14O,1.600000X1.600000*%
G04 #@! TD*
G04 #@! TA.AperFunction,ComponentPad*
%ADD15R,1.700000X1.700000*%
G04 #@! TD*
G04 #@! TA.AperFunction,ComponentPad*
%ADD16O,1.700000X1.700000*%
G04 #@! TD*
G04 #@! TA.AperFunction,SMDPad,CuDef*
%ADD17RoundRect,0.200000X-0.275000X0.200000X-0.275000X-0.200000X0.275000X-0.200000X0.275000X0.200000X0*%
G04 #@! TD*
G04 #@! TA.AperFunction,ComponentPad*
%ADD18R,1.500000X1.500000*%
G04 #@! TD*
G04 #@! TA.AperFunction,ComponentPad*
%ADD19O,1.500000X1.500000*%
G04 #@! TD*
G04 #@! TA.AperFunction,SMDPad,CuDef*
%ADD20RoundRect,0.225000X-0.250000X0.225000X-0.250000X-0.225000X0.250000X-0.225000X0.250000X0.225000X0*%
G04 #@! TD*
G04 #@! TA.AperFunction,ViaPad*
%ADD21C,0.800000*%
G04 #@! TD*
G04 #@! TA.AperFunction,Conductor*
%ADD22C,0.250000*%
G04 #@! TD*
G04 APERTURE END LIST*
D10*
G04 #@! TO.P,Q4,1,B*
G04 #@! TO.N,Net-(Q4-Pad1)*
X107174700Y-72070000D03*
G04 #@! TO.P,Q4,2,E*
G04 #@! TO.N,GND*
X107174700Y-70170000D03*
G04 #@! TO.P,Q4,3,C*
G04 #@! TO.N,/KDP*
X105299700Y-71120000D03*
G04 #@! TD*
G04 #@! TO.P,Q12,1,B*
G04 #@! TO.N,Net-(Q12-Pad1)*
X96984200Y-66990000D03*
G04 #@! TO.P,Q12,2,E*
G04 #@! TO.N,Net-(Q1-Pad3)*
X96984200Y-65090000D03*
G04 #@! TO.P,Q12,3,C*
G04 #@! TO.N,/K2*
X95109200Y-66040000D03*
G04 #@! TD*
D11*
G04 #@! TO.P,R3,1*
G04 #@! TO.N,Net-(Q3-Pad1)*
X119717200Y-67945000D03*
G04 #@! TO.P,R3,2*
G04 #@! TO.N,Net-(R3-Pad2)*
X121367200Y-67945000D03*
G04 #@! TD*
D12*
G04 #@! TO.P,U1,1,QB*
G04 #@! TO.N,Net-(R11-Pad2)*
X125217200Y-59690000D03*
G04 #@! TO.P,U1,2,QC*
G04 #@! TO.N,Net-(R12-Pad2)*
X125217200Y-60960000D03*
G04 #@! TO.P,U1,3,QD*
G04 #@! TO.N,Net-(R13-Pad2)*
X125217200Y-62230000D03*
G04 #@! TO.P,U1,4,QE*
G04 #@! TO.N,Net-(R1-Pad2)*
X125217200Y-63500000D03*
G04 #@! TO.P,U1,5,QF*
G04 #@! TO.N,Net-(R2-Pad2)*
X125217200Y-64770000D03*
G04 #@! TO.P,U1,6,QG*
G04 #@! TO.N,Net-(R3-Pad2)*
X125217200Y-66040000D03*
G04 #@! TO.P,U1,7,QH*
G04 #@! TO.N,Net-(R4-Pad2)*
X125217200Y-67310000D03*
G04 #@! TO.P,U1,8,GND*
G04 #@! TO.N,GND*
X125217200Y-68580000D03*
G04 #@! TO.P,U1,9,QH'*
G04 #@! TO.N,Net-(J2-Pad3)*
X130217200Y-68580000D03*
G04 #@! TO.P,U1,10,~{SRCLR}*
G04 #@! TO.N,Net-(J1-Pad6)*
X130217200Y-67310000D03*
G04 #@! TO.P,U1,11,SRCLK*
G04 #@! TO.N,Net-(J1-Pad4)*
X130217200Y-66040000D03*
G04 #@! TO.P,U1,12,RCLK*
G04 #@! TO.N,Net-(J1-Pad5)*
X130217200Y-64770000D03*
G04 #@! TO.P,U1,13,~{OE}*
G04 #@! TO.N,GND*
X130217200Y-63500000D03*
G04 #@! TO.P,U1,14,SER*
G04 #@! TO.N,Net-(J1-Pad3)*
X130217200Y-62230000D03*
G04 #@! TO.P,U1,15,QA*
G04 #@! TO.N,Net-(R10-Pad2)*
X130217200Y-60960000D03*
G04 #@! TO.P,U1,16,VCC*
G04 #@! TO.N,VCC*
X130217200Y-59690000D03*
G04 #@! TD*
D10*
G04 #@! TO.P,Q2,1,B*
G04 #@! TO.N,Net-(Q2-Pad1)*
X115954700Y-64450000D03*
G04 #@! TO.P,Q2,2,E*
G04 #@! TO.N,GND*
X115954700Y-62550000D03*
G04 #@! TO.P,Q2,3,C*
G04 #@! TO.N,Net-(Q14-Pad2)*
X114079700Y-63500000D03*
G04 #@! TD*
D13*
G04 #@! TO.P,R30,1*
G04 #@! TO.N,Net-(R30-Pad1)*
X91513400Y-71120000D03*
D14*
G04 #@! TO.P,R30,2*
G04 #@! TO.N,/HV*
X91513400Y-55880000D03*
G04 #@! TD*
D15*
G04 #@! TO.P,J1,1,Pin_1*
G04 #@! TO.N,VCC*
X127827200Y-55245000D03*
D16*
G04 #@! TO.P,J1,2,Pin_2*
G04 #@! TO.N,GND*
X125287200Y-55245000D03*
G04 #@! TO.P,J1,3,Pin_3*
G04 #@! TO.N,Net-(J1-Pad3)*
X122747200Y-55245000D03*
G04 #@! TO.P,J1,4,Pin_4*
G04 #@! TO.N,Net-(J1-Pad4)*
X120207200Y-55245000D03*
G04 #@! TO.P,J1,5,Pin_5*
G04 #@! TO.N,Net-(J1-Pad5)*
X117667200Y-55245000D03*
G04 #@! TO.P,J1,6,Pin_6*
G04 #@! TO.N,Net-(J1-Pad6)*
X115127200Y-55245000D03*
G04 #@! TD*
D17*
G04 #@! TO.P,R9,1*
G04 #@! TO.N,VCC*
X132737200Y-65215000D03*
G04 #@! TO.P,R9,2*
G04 #@! TO.N,Net-(J1-Pad6)*
X132737200Y-66865000D03*
G04 #@! TD*
D10*
G04 #@! TO.P,Q14,1,B*
G04 #@! TO.N,Net-(Q10-Pad1)*
X102064200Y-56830000D03*
G04 #@! TO.P,Q14,2,E*
G04 #@! TO.N,Net-(Q14-Pad2)*
X102064200Y-54930000D03*
G04 #@! TO.P,Q14,3,C*
G04 #@! TO.N,/K4*
X100189200Y-55880000D03*
G04 #@! TD*
D15*
G04 #@! TO.P,J2,1,Pin_1*
G04 #@! TO.N,VCC*
X127827200Y-71755000D03*
D16*
G04 #@! TO.P,J2,2,Pin_2*
G04 #@! TO.N,GND*
X125287200Y-71755000D03*
G04 #@! TO.P,J2,3,Pin_3*
G04 #@! TO.N,Net-(J2-Pad3)*
X122747200Y-71755000D03*
G04 #@! TO.P,J2,4,Pin_4*
G04 #@! TO.N,Net-(J1-Pad4)*
X120207200Y-71755000D03*
G04 #@! TO.P,J2,5,Pin_5*
G04 #@! TO.N,Net-(J1-Pad5)*
X117667200Y-71755000D03*
G04 #@! TO.P,J2,6,Pin_6*
G04 #@! TO.N,Net-(J1-Pad6)*
X115127200Y-71755000D03*
G04 #@! TD*
D18*
G04 #@! TO.P,V1,1,A*
G04 #@! TO.N,Net-(R30-Pad1)*
X76213400Y-68000000D03*
D19*
G04 #@! TO.P,V1,2,K9*
G04 #@! TO.N,/K9*
X78463399Y-67397114D03*
G04 #@! TO.P,V1,3,K1*
G04 #@! TO.N,/K1*
X80110514Y-65749999D03*
G04 #@! TO.P,V1,4,K0*
G04 #@! TO.N,/K0*
X80713400Y-63500000D03*
G04 #@! TO.P,V1,5,K2*
G04 #@! TO.N,/K2*
X80110514Y-61250000D03*
G04 #@! TO.P,V1,6,K3*
G04 #@! TO.N,/K3*
X78463400Y-59602886D03*
G04 #@! TO.P,V1,7,K4*
G04 #@! TO.N,/K4*
X76213400Y-59000000D03*
G04 #@! TO.P,V1,8,K5*
G04 #@! TO.N,/K5*
X73963400Y-59602886D03*
G04 #@! TO.P,V1,9,K7*
G04 #@! TO.N,/K7*
X72316286Y-61250000D03*
G04 #@! TO.P,V1,10,K6*
G04 #@! TO.N,/K6*
X71713400Y-63500000D03*
G04 #@! TO.P,V1,11,K8*
G04 #@! TO.N,/K8*
X72316286Y-65749999D03*
G04 #@! TO.P,V1,12,KDP*
G04 #@! TO.N,/KDP*
X73963401Y-67397114D03*
G04 #@! TD*
D10*
G04 #@! TO.P,Q3,1,B*
G04 #@! TO.N,Net-(Q3-Pad1)*
X115954700Y-68895000D03*
G04 #@! TO.P,Q3,2,E*
G04 #@! TO.N,GND*
X115954700Y-66995000D03*
G04 #@! TO.P,Q3,3,C*
G04 #@! TO.N,Net-(Q18-Pad2)*
X114079700Y-67945000D03*
G04 #@! TD*
D11*
G04 #@! TO.P,R12,1*
G04 #@! TO.N,Net-(Q12-Pad1)*
X109222200Y-66040000D03*
G04 #@! TO.P,R12,2*
G04 #@! TO.N,Net-(R12-Pad2)*
X110872200Y-66040000D03*
G04 #@! TD*
D20*
G04 #@! TO.P,C1,1*
G04 #@! TO.N,VCC*
X132737200Y-60820000D03*
G04 #@! TO.P,C1,2*
G04 #@! TO.N,GND*
X132737200Y-62370000D03*
G04 #@! TD*
D10*
G04 #@! TO.P,Q10,1,B*
G04 #@! TO.N,Net-(Q10-Pad1)*
X96984200Y-56830000D03*
G04 #@! TO.P,Q10,2,E*
G04 #@! TO.N,Net-(Q1-Pad3)*
X96984200Y-54930000D03*
G04 #@! TO.P,Q10,3,C*
G04 #@! TO.N,/K0*
X95109200Y-55880000D03*
G04 #@! TD*
G04 #@! TO.P,Q13,1,B*
G04 #@! TO.N,Net-(Q13-Pad1)*
X96984200Y-72070000D03*
G04 #@! TO.P,Q13,2,E*
G04 #@! TO.N,Net-(Q1-Pad3)*
X96984200Y-70170000D03*
G04 #@! TO.P,Q13,3,C*
G04 #@! TO.N,/K3*
X95109200Y-71120000D03*
G04 #@! TD*
G04 #@! TO.P,Q17,1,B*
G04 #@! TO.N,Net-(Q13-Pad1)*
X102064200Y-72070000D03*
G04 #@! TO.P,Q17,2,E*
G04 #@! TO.N,Net-(Q14-Pad2)*
X102064200Y-70170000D03*
G04 #@! TO.P,Q17,3,C*
G04 #@! TO.N,/K7*
X100189200Y-71120000D03*
G04 #@! TD*
D15*
G04 #@! TO.P,J4,1,Pin_1*
G04 #@! TO.N,GND*
X83377200Y-55245000D03*
D16*
G04 #@! TO.P,J4,2,Pin_2*
G04 #@! TO.N,/HV*
X80837200Y-55245000D03*
G04 #@! TD*
D10*
G04 #@! TO.P,Q15,1,B*
G04 #@! TO.N,Net-(Q11-Pad1)*
X102064200Y-61910000D03*
G04 #@! TO.P,Q15,2,E*
G04 #@! TO.N,Net-(Q14-Pad2)*
X102064200Y-60010000D03*
G04 #@! TO.P,Q15,3,C*
G04 #@! TO.N,/K5*
X100189200Y-60960000D03*
G04 #@! TD*
G04 #@! TO.P,Q16,1,B*
G04 #@! TO.N,Net-(Q12-Pad1)*
X102064200Y-66990000D03*
G04 #@! TO.P,Q16,2,E*
G04 #@! TO.N,Net-(Q14-Pad2)*
X102064200Y-65090000D03*
G04 #@! TO.P,Q16,3,C*
G04 #@! TO.N,/K6*
X100189200Y-66040000D03*
G04 #@! TD*
D15*
G04 #@! TO.P,J3,1,Pin_1*
G04 #@! TO.N,GND*
X83377200Y-71755000D03*
D16*
G04 #@! TO.P,J3,2,Pin_2*
G04 #@! TO.N,/HV*
X80837200Y-71755000D03*
G04 #@! TD*
D10*
G04 #@! TO.P,Q19,1,B*
G04 #@! TO.N,Net-(Q11-Pad1)*
X107144200Y-61910000D03*
G04 #@! TO.P,Q19,2,E*
G04 #@! TO.N,Net-(Q18-Pad2)*
X107144200Y-60010000D03*
G04 #@! TO.P,Q19,3,C*
G04 #@! TO.N,/K9*
X105269200Y-60960000D03*
G04 #@! TD*
D13*
G04 #@! TO.P,R31,1*
G04 #@! TO.N,Net-(R30-Pad1)*
X87703400Y-71120000D03*
D14*
G04 #@! TO.P,R31,2*
G04 #@! TO.N,/HV*
X87703400Y-55880000D03*
G04 #@! TD*
D10*
G04 #@! TO.P,Q18,1,B*
G04 #@! TO.N,Net-(Q10-Pad1)*
X107144200Y-56830000D03*
G04 #@! TO.P,Q18,2,E*
G04 #@! TO.N,Net-(Q18-Pad2)*
X107144200Y-54930000D03*
G04 #@! TO.P,Q18,3,C*
G04 #@! TO.N,/K8*
X105269200Y-55880000D03*
G04 #@! TD*
G04 #@! TO.P,Q1,1,B*
G04 #@! TO.N,Net-(Q1-Pad1)*
X115954700Y-60005000D03*
G04 #@! TO.P,Q1,2,E*
G04 #@! TO.N,GND*
X115954700Y-58105000D03*
G04 #@! TO.P,Q1,3,C*
G04 #@! TO.N,Net-(Q1-Pad3)*
X114079700Y-59055000D03*
G04 #@! TD*
D11*
G04 #@! TO.P,R1,1*
G04 #@! TO.N,Net-(Q1-Pad1)*
X119907200Y-60325000D03*
G04 #@! TO.P,R1,2*
G04 #@! TO.N,Net-(R1-Pad2)*
X121557200Y-60325000D03*
G04 #@! TD*
G04 #@! TO.P,R10,1*
G04 #@! TO.N,Net-(Q10-Pad1)*
X109222200Y-56515000D03*
G04 #@! TO.P,R10,2*
G04 #@! TO.N,Net-(R10-Pad2)*
X110872200Y-56515000D03*
G04 #@! TD*
G04 #@! TO.P,R11,1*
G04 #@! TO.N,Net-(Q11-Pad1)*
X109222200Y-60960000D03*
G04 #@! TO.P,R11,2*
G04 #@! TO.N,Net-(R11-Pad2)*
X110872200Y-60960000D03*
G04 #@! TD*
G04 #@! TO.P,R4,1*
G04 #@! TO.N,Net-(Q4-Pad1)*
X105152900Y-67310000D03*
G04 #@! TO.P,R4,2*
G04 #@! TO.N,Net-(R4-Pad2)*
X106802900Y-67310000D03*
G04 #@! TD*
D10*
G04 #@! TO.P,Q11,1,B*
G04 #@! TO.N,Net-(Q11-Pad1)*
X96984200Y-61910000D03*
G04 #@! TO.P,Q11,2,E*
G04 #@! TO.N,Net-(Q1-Pad3)*
X96984200Y-60010000D03*
G04 #@! TO.P,Q11,3,C*
G04 #@! TO.N,/K1*
X95109200Y-60960000D03*
G04 #@! TD*
D11*
G04 #@! TO.P,R13,1*
G04 #@! TO.N,Net-(Q13-Pad1)*
X109222200Y-70485000D03*
G04 #@! TO.P,R13,2*
G04 #@! TO.N,Net-(R13-Pad2)*
X110872200Y-70485000D03*
G04 #@! TD*
G04 #@! TO.P,R2,1*
G04 #@! TO.N,Net-(Q2-Pad1)*
X119907200Y-64135000D03*
G04 #@! TO.P,R2,2*
G04 #@! TO.N,Net-(R2-Pad2)*
X121557200Y-64135000D03*
G04 #@! TD*
D21*
G04 #@! TO.N,Net-(Q4-Pad1)*
X106414000Y-68665400D03*
X108519100Y-71725900D03*
G04 #@! TO.N,Net-(R13-Pad2)*
X122076800Y-69662900D03*
X122777200Y-62279500D03*
G04 #@! TO.N,Net-(R1-Pad2)*
X122586300Y-60325000D03*
X123610200Y-63761200D03*
G04 #@! TO.N,/K9*
X103847900Y-60960000D03*
G04 #@! TO.N,/K8*
X103879900Y-55880000D03*
G04 #@! TO.N,/K6*
X98956700Y-64886900D03*
G04 #@! TO.N,/K3*
X91207000Y-67231500D03*
G04 #@! TO.N,/K2*
X85792200Y-65856400D03*
G04 #@! TO.N,Net-(Q18-Pad2)*
X105794900Y-59635800D03*
X112701200Y-67889900D03*
X105804500Y-54930000D03*
G04 #@! TO.N,Net-(Q14-Pad2)*
X100933500Y-62949400D03*
X102448000Y-59087700D03*
G04 #@! TO.N,Net-(J1-Pad5)*
X119460500Y-63007600D03*
G04 #@! TD*
D22*
G04 #@! TO.N,Net-(R4-Pad2)*
X111306100Y-67310000D02*
X106802900Y-67310000D01*
X111901800Y-66714300D02*
X111306100Y-67310000D01*
X113479100Y-66714300D02*
X111901800Y-66714300D01*
X114780500Y-65412900D02*
X113479100Y-66714300D01*
X126337000Y-65412900D02*
X114780500Y-65412900D01*
X126545400Y-65621300D02*
X126337000Y-65412900D01*
X126545400Y-66394300D02*
X126545400Y-65621300D01*
X125629700Y-67310000D02*
X126545400Y-66394300D01*
X125217200Y-67310000D02*
X125629700Y-67310000D01*
G04 #@! TO.N,Net-(Q4-Pad1)*
X106414000Y-68571100D02*
X106414000Y-68665400D01*
X105152900Y-67310000D02*
X106414000Y-68571100D01*
X108519100Y-71726000D02*
X108519100Y-71725900D01*
X107518700Y-71726000D02*
X108519100Y-71726000D01*
X107174700Y-72070000D02*
X107518700Y-71726000D01*
G04 #@! TO.N,Net-(R30-Pad1)*
X87703400Y-71120000D02*
X91513400Y-71120000D01*
G04 #@! TO.N,Net-(R13-Pad2)*
X111694300Y-69662900D02*
X122076800Y-69662900D01*
X110872200Y-70485000D02*
X111694300Y-69662900D01*
X125167700Y-62279500D02*
X125217200Y-62230000D01*
X122777200Y-62279500D02*
X125167700Y-62279500D01*
G04 #@! TO.N,Net-(R12-Pad2)*
X112952100Y-66040000D02*
X110872200Y-66040000D01*
X115647900Y-63344200D02*
X112952100Y-66040000D01*
X117523300Y-63344200D02*
X115647900Y-63344200D01*
X118662700Y-62204800D02*
X117523300Y-63344200D01*
X121826200Y-62204800D02*
X118662700Y-62204800D01*
X122476800Y-61554200D02*
X121826200Y-62204800D01*
X124623000Y-61554200D02*
X122476800Y-61554200D01*
X125217200Y-60960000D02*
X124623000Y-61554200D01*
G04 #@! TO.N,Net-(R11-Pad2)*
X124875300Y-59348100D02*
X125217200Y-59690000D01*
X115199100Y-59348100D02*
X124875300Y-59348100D01*
X113587200Y-60960000D02*
X115199100Y-59348100D01*
X110872200Y-60960000D02*
X113587200Y-60960000D01*
G04 #@! TO.N,Net-(R10-Pad2)*
X129814000Y-60960000D02*
X130217200Y-60960000D01*
X126651800Y-57797800D02*
X129814000Y-60960000D01*
X126651800Y-54913200D02*
X126651800Y-57797800D01*
X125291400Y-53552800D02*
X126651800Y-54913200D01*
X113834400Y-53552800D02*
X125291400Y-53552800D01*
X110872200Y-56515000D02*
X113834400Y-53552800D01*
G04 #@! TO.N,Net-(R3-Pad2)*
X123272200Y-66040000D02*
X121367200Y-67945000D01*
X125217200Y-66040000D02*
X123272200Y-66040000D01*
G04 #@! TO.N,Net-(R2-Pad2)*
X122192200Y-64770000D02*
X125217200Y-64770000D01*
X121557200Y-64135000D02*
X122192200Y-64770000D01*
G04 #@! TO.N,Net-(R1-Pad2)*
X124956000Y-63761200D02*
X123610200Y-63761200D01*
X125217200Y-63500000D02*
X124956000Y-63761200D01*
X121557200Y-60325000D02*
X122586300Y-60325000D01*
G04 #@! TO.N,/KDP*
X73963400Y-67397100D02*
X73963400Y-68472400D01*
X101601800Y-71120000D02*
X105299700Y-71120000D01*
X100933200Y-71788600D02*
X101601800Y-71120000D01*
X98894900Y-71788600D02*
X100933200Y-71788600D01*
X98549100Y-71442800D02*
X98894900Y-71788600D01*
X96198900Y-71442800D02*
X98549100Y-71442800D01*
X95877900Y-71763800D02*
X96198900Y-71442800D01*
X93859500Y-71763800D02*
X95877900Y-71763800D01*
X91828200Y-69732500D02*
X93859500Y-71763800D01*
X75223500Y-69732500D02*
X91828200Y-69732500D01*
X73963400Y-68472400D02*
X75223500Y-69732500D01*
G04 #@! TO.N,/K9*
X105269200Y-60960000D02*
X103847900Y-60960000D01*
G04 #@! TO.N,/K8*
X105269200Y-55880000D02*
X103879900Y-55880000D01*
G04 #@! TO.N,/K7*
X72316300Y-62337500D02*
X72316300Y-61250000D01*
X76258200Y-66279400D02*
X72316300Y-62337500D01*
X78992800Y-66279400D02*
X76258200Y-66279400D01*
X79569800Y-66856400D02*
X78992800Y-66279400D01*
X90556400Y-66856400D02*
X79569800Y-66856400D01*
X90906600Y-66506200D02*
X90556400Y-66856400D01*
X91908000Y-66506200D02*
X90906600Y-66506200D01*
X96394200Y-70992400D02*
X91908000Y-66506200D01*
X100061600Y-70992400D02*
X96394200Y-70992400D01*
X100189200Y-71120000D02*
X100061600Y-70992400D01*
G04 #@! TO.N,/K6*
X99036100Y-64886900D02*
X98956700Y-64886900D01*
X100189200Y-66040000D02*
X99036100Y-64886900D01*
G04 #@! TO.N,/K5*
X76114000Y-60678200D02*
X75038700Y-59602900D01*
X79035200Y-60678200D02*
X76114000Y-60678200D01*
X80353700Y-59359700D02*
X79035200Y-60678200D01*
X98588900Y-59359700D02*
X80353700Y-59359700D01*
X100189200Y-60960000D02*
X98588900Y-59359700D01*
X73963400Y-59602900D02*
X75038700Y-59602900D01*
G04 #@! TO.N,/K4*
X77978900Y-58309800D02*
X77288700Y-59000000D01*
X97759400Y-58309800D02*
X77978900Y-58309800D01*
X100189200Y-55880000D02*
X97759400Y-58309800D01*
X76213400Y-59000000D02*
X77288700Y-59000000D01*
G04 #@! TO.N,/K3*
X95095500Y-71120000D02*
X91207000Y-67231500D01*
X95109200Y-71120000D02*
X95095500Y-71120000D01*
G04 #@! TO.N,Net-(Q13-Pad1)*
X105762300Y-72070000D02*
X102064200Y-72070000D01*
X106871600Y-70960700D02*
X105762300Y-72070000D01*
X108746500Y-70960700D02*
X106871600Y-70960700D01*
X109222200Y-70485000D02*
X108746500Y-70960700D01*
X97153200Y-72239000D02*
X96984200Y-72070000D01*
X101895200Y-72239000D02*
X97153200Y-72239000D01*
X102064200Y-72070000D02*
X101895200Y-72239000D01*
G04 #@! TO.N,/K2*
X94925600Y-65856400D02*
X85792200Y-65856400D01*
X95109200Y-66040000D02*
X94925600Y-65856400D01*
G04 #@! TO.N,Net-(Q12-Pad1)*
X103014200Y-66040000D02*
X102064200Y-66990000D01*
X109222200Y-66040000D02*
X103014200Y-66040000D01*
X102064200Y-66990000D02*
X96984200Y-66990000D01*
G04 #@! TO.N,/K1*
X85975800Y-60960000D02*
X81185800Y-65750000D01*
X95109200Y-60960000D02*
X85975800Y-60960000D01*
X80110500Y-65750000D02*
X81185800Y-65750000D01*
G04 #@! TO.N,Net-(Q11-Pad1)*
X102064200Y-61910000D02*
X107144200Y-61910000D01*
X108094200Y-60960000D02*
X109222200Y-60960000D01*
X107144200Y-61910000D02*
X108094200Y-60960000D01*
X101879900Y-62094300D02*
X102064200Y-61910000D01*
X97168500Y-62094300D02*
X101879900Y-62094300D01*
X96984200Y-61910000D02*
X97168500Y-62094300D01*
G04 #@! TO.N,/K0*
X77330400Y-61192300D02*
X79638100Y-63500000D01*
X74021000Y-61192300D02*
X77330400Y-61192300D01*
X72837500Y-60008800D02*
X74021000Y-61192300D01*
X72837500Y-59201300D02*
X72837500Y-60008800D01*
X74206700Y-57832100D02*
X72837500Y-59201300D01*
X93157100Y-57832100D02*
X74206700Y-57832100D01*
X95109200Y-55880000D02*
X93157100Y-57832100D01*
X80713400Y-63500000D02*
X79638100Y-63500000D01*
G04 #@! TO.N,Net-(Q10-Pad1)*
X107459200Y-56515000D02*
X107144200Y-56830000D01*
X109222200Y-56515000D02*
X107459200Y-56515000D01*
X103759000Y-56830000D02*
X102911600Y-55982600D01*
X107144200Y-56830000D02*
X103759000Y-56830000D01*
X102911600Y-55982600D02*
X102064200Y-56830000D01*
X103154600Y-55739600D02*
X102911600Y-55982600D01*
X103154600Y-54609000D02*
X103154600Y-55739600D01*
X102823200Y-54277600D02*
X103154600Y-54609000D01*
X99536600Y-54277600D02*
X102823200Y-54277600D01*
X96984200Y-56830000D02*
X99536600Y-54277600D01*
G04 #@! TO.N,Net-(Q18-Pad2)*
X106770000Y-59635800D02*
X107144200Y-60010000D01*
X105794900Y-59635800D02*
X106770000Y-59635800D01*
X114024600Y-67889900D02*
X114079700Y-67945000D01*
X112701200Y-67889900D02*
X114024600Y-67889900D01*
X107144200Y-54930000D02*
X105804500Y-54930000D01*
G04 #@! TO.N,Net-(Q3-Pad1)*
X118767200Y-68895000D02*
X119717200Y-67945000D01*
X115954700Y-68895000D02*
X118767200Y-68895000D01*
G04 #@! TO.N,Net-(Q14-Pad2)*
X109948400Y-66553800D02*
X109948400Y-65090000D01*
X109642600Y-66859600D02*
X109948400Y-66553800D01*
X108725000Y-66859600D02*
X109642600Y-66859600D01*
X108374200Y-66508800D02*
X108725000Y-66859600D01*
X104652000Y-66508800D02*
X108374200Y-66508800D01*
X102064200Y-69096600D02*
X104652000Y-66508800D01*
X102064200Y-70170000D02*
X102064200Y-69096600D01*
X112489700Y-65090000D02*
X109948400Y-65090000D01*
X114079700Y-63500000D02*
X112489700Y-65090000D01*
X109948400Y-65090000D02*
X102064200Y-65090000D01*
X102064200Y-59471500D02*
X102064200Y-60010000D01*
X102448000Y-59087700D02*
X102064200Y-59471500D01*
X102064200Y-55417500D02*
X102064200Y-54930000D01*
X100991100Y-56490600D02*
X102064200Y-55417500D01*
X100991100Y-57630800D02*
X100991100Y-56490600D01*
X102448000Y-59087700D02*
X100991100Y-57630800D01*
X102064200Y-64080100D02*
X100933500Y-62949400D01*
X102064200Y-65090000D02*
X102064200Y-64080100D01*
G04 #@! TO.N,Net-(Q2-Pad1)*
X116269700Y-64135000D02*
X119907200Y-64135000D01*
X115954700Y-64450000D02*
X116269700Y-64135000D01*
G04 #@! TO.N,Net-(Q1-Pad3)*
X96984200Y-65577500D02*
X96984200Y-65090000D01*
X95915400Y-66646300D02*
X96984200Y-65577500D01*
X95915400Y-69101200D02*
X95915400Y-66646300D01*
X96984200Y-70170000D02*
X95915400Y-69101200D01*
X95884300Y-61599000D02*
X96984200Y-60499100D01*
X95884300Y-63990100D02*
X95884300Y-61599000D01*
X96984200Y-65090000D02*
X95884300Y-63990100D01*
X96984200Y-60499100D02*
X96984200Y-60010000D01*
X98122400Y-53791800D02*
X96984200Y-54930000D01*
X107786500Y-53791800D02*
X98122400Y-53791800D01*
X109976600Y-55981900D02*
X107786500Y-53791800D01*
X109976600Y-58896200D02*
X109976600Y-55981900D01*
X104654100Y-58896200D02*
X109976600Y-58896200D01*
X102773000Y-60777300D02*
X104654100Y-58896200D01*
X101784300Y-60777300D02*
X102773000Y-60777300D01*
X100970300Y-61591300D02*
X101784300Y-60777300D01*
X98076400Y-61591300D02*
X100970300Y-61591300D01*
X96984200Y-60499100D02*
X98076400Y-61591300D01*
X113920900Y-58896200D02*
X114079700Y-59055000D01*
X109976600Y-58896200D02*
X113920900Y-58896200D01*
G04 #@! TO.N,Net-(Q1-Pad1)*
X116274700Y-60325000D02*
X115954700Y-60005000D01*
X119907200Y-60325000D02*
X116274700Y-60325000D01*
G04 #@! TO.N,Net-(J2-Pad3)*
X128217500Y-70579700D02*
X130217200Y-68580000D01*
X124730400Y-70579700D02*
X128217500Y-70579700D01*
X123922500Y-71387600D02*
X124730400Y-70579700D01*
X123922500Y-71755000D02*
X123922500Y-71387600D01*
X122747200Y-71755000D02*
X123922500Y-71755000D01*
G04 #@! TO.N,Net-(J1-Pad5)*
X128183400Y-64770000D02*
X130217200Y-64770000D01*
X126278400Y-62865000D02*
X128183400Y-64770000D01*
X123620500Y-62865000D02*
X126278400Y-62865000D01*
X123477900Y-63007600D02*
X123620500Y-62865000D01*
X119460500Y-63007600D02*
X123477900Y-63007600D01*
G04 #@! TO.N,Net-(J1-Pad4)*
X133143200Y-66040000D02*
X130217200Y-66040000D01*
X133549400Y-66446200D02*
X133143200Y-66040000D01*
X133549400Y-68232800D02*
X133549400Y-66446200D01*
X128851800Y-72930400D02*
X133549400Y-68232800D01*
X122190600Y-72930400D02*
X128851800Y-72930400D01*
X121382500Y-72122300D02*
X122190600Y-72930400D01*
X121382500Y-71755000D02*
X121382500Y-72122300D01*
X120207200Y-71755000D02*
X121382500Y-71755000D01*
G04 #@! TO.N,Net-(J1-Pad3)*
X123197600Y-55245000D02*
X122747200Y-55245000D01*
X127547500Y-59594900D02*
X123197600Y-55245000D01*
X127547500Y-60045300D02*
X127547500Y-59594900D01*
X129732200Y-62230000D02*
X127547500Y-60045300D01*
X130217200Y-62230000D02*
X129732200Y-62230000D01*
G04 #@! TO.N,Net-(J1-Pad6)*
X130662200Y-66865000D02*
X130217200Y-67310000D01*
X132737200Y-66865000D02*
X130662200Y-66865000D01*
X129584100Y-67310000D02*
X130217200Y-67310000D01*
X127537300Y-69356800D02*
X129584100Y-67310000D01*
X124237200Y-69356800D02*
X127537300Y-69356800D01*
X123014300Y-70579700D02*
X124237200Y-69356800D01*
X117110400Y-70579700D02*
X123014300Y-70579700D01*
X116302500Y-71387600D02*
X117110400Y-70579700D01*
X116302500Y-71755000D02*
X116302500Y-71387600D01*
X115127200Y-71755000D02*
X116302500Y-71755000D01*
G04 #@! TO.N,GND*
X130217200Y-63500000D02*
X131607200Y-63500000D01*
X131607200Y-63500000D02*
X132737200Y-62370000D01*
X125051000Y-68746200D02*
X125217200Y-68580000D01*
X120946200Y-68746200D02*
X125051000Y-68746200D01*
X120542200Y-68342200D02*
X120946200Y-68746200D01*
X120542200Y-67496000D02*
X120542200Y-68342200D01*
X120041200Y-66995000D02*
X120542200Y-67496000D01*
X115954700Y-66995000D02*
X120041200Y-66995000D01*
X131607200Y-65053200D02*
X131607200Y-63500000D01*
X131255400Y-65405000D02*
X131607200Y-65053200D01*
X129107500Y-65405000D02*
X131255400Y-65405000D01*
X125932500Y-68580000D02*
X129107500Y-65405000D01*
X125217200Y-68580000D02*
X125932500Y-68580000D01*
X107674700Y-69670000D02*
X107174700Y-70170000D01*
X109948400Y-69670000D02*
X107674700Y-69670000D01*
X109948400Y-69617000D02*
X109948400Y-69670000D01*
X112400800Y-67164600D02*
X109948400Y-69617000D01*
X115785100Y-67164600D02*
X112400800Y-67164600D01*
X115954700Y-66995000D02*
X115785100Y-67164600D01*
X85500800Y-72703300D02*
X84552500Y-71755000D01*
X108591400Y-72703300D02*
X85500800Y-72703300D01*
X109948400Y-71346300D02*
X108591400Y-72703300D01*
X109948400Y-69670000D02*
X109948400Y-71346300D01*
X83964900Y-71755000D02*
X84288200Y-71755000D01*
X83377200Y-71755000D02*
X83964900Y-71755000D01*
X84288200Y-71755000D02*
X84552500Y-71755000D01*
X81461900Y-57160300D02*
X83377200Y-55245000D01*
X74239600Y-57160300D02*
X81461900Y-57160300D01*
X70630400Y-60769500D02*
X74239600Y-57160300D01*
X70630400Y-65847100D02*
X70630400Y-60769500D01*
X77939400Y-73156100D02*
X70630400Y-65847100D01*
X82887100Y-73156100D02*
X77939400Y-73156100D01*
X84288200Y-71755000D02*
X82887100Y-73156100D01*
X125287200Y-55245000D02*
X124111900Y-55245000D01*
X121477200Y-54828200D02*
X121477200Y-55723900D01*
X122250600Y-54054800D02*
X121477200Y-54828200D01*
X123289000Y-54054800D02*
X122250600Y-54054800D01*
X124111900Y-54877700D02*
X123289000Y-54054800D01*
X124111900Y-55245000D02*
X124111900Y-54877700D01*
X119096100Y-58105000D02*
X115954700Y-58105000D01*
X121477200Y-55723900D02*
X119096100Y-58105000D01*
X126549900Y-59286400D02*
X126549900Y-60325000D01*
X124868400Y-57604900D02*
X126549900Y-59286400D01*
X123358200Y-57604900D02*
X124868400Y-57604900D01*
X121477200Y-55723900D02*
X123358200Y-57604900D01*
X129724900Y-63500000D02*
X126549900Y-60325000D01*
X130217200Y-63500000D02*
X129724900Y-63500000D01*
X116750200Y-61754500D02*
X115954700Y-62550000D01*
X121639600Y-61754500D02*
X116750200Y-61754500D01*
X122337000Y-61057100D02*
X121639600Y-61754500D01*
X122917900Y-61057100D02*
X122337000Y-61057100D01*
X123650000Y-60325000D02*
X122917900Y-61057100D01*
X126549900Y-60325000D02*
X123650000Y-60325000D01*
G04 #@! TO.N,VCC*
X130217200Y-58810300D02*
X130217200Y-59690000D01*
X127827200Y-56420300D02*
X130217200Y-58810300D01*
X127827200Y-55245000D02*
X127827200Y-56420300D01*
X131607200Y-59690000D02*
X132737200Y-60820000D01*
X130217200Y-59690000D02*
X131607200Y-59690000D01*
X133553700Y-64398500D02*
X132737200Y-65215000D01*
X133553700Y-61636500D02*
X133553700Y-64398500D01*
X132737200Y-60820000D02*
X133553700Y-61636500D01*
G04 #@! TD*
M02*
